ply
format ascii 1.0
comment VCGLIB generated
element vertex 8
property float x
property float y
property float z
property float nx
property float ny
property float nz
property uchar red
property uchar green
property uchar blue
property uchar alpha
property float texture_u
property float texture_v
element face 4
property list uchar int vertex_indices
end_header
-1.294209 0.04260743 -1.3 0 1 5.126e-07 150 150 150 255 0.000000 0.000000
-1.294209 0.04260615 1.2 0 1 5.126e-07 0 0 0 255 1.000000 0.000000
1.205791 0.04260615 1.2 0 1 5.126e-07 150 150 150 255 1.000000 1.000000
1.205791 0.04260743 -1.3 0 1 5.126e-07 150 150 150 255 0.000000 1.000000
-1.294209 0.04260615 1.2 0 -1 -5.126e-07 150 150 150 255 0.000000 0.000000
-1.294209 0.04260743 -1.3 0 -1 -5.126e-07 150 150 150 255 1.000000 0.000000
1.205791 0.04260743 -1.3 0 -1 -5.126e-07 150 150 150 255 1.000000 1.000000
1.205791 0.04260615 1.2 0 -1 -5.126e-07 150 150 150 255 0.000000 1.000000
3 0 1 2 
3 0 2 3 
3 4 5 6 
3 4 6 7 
