ply
format ascii 1.0
comment VCGLIB generated
element vertex 394
property float x
property float y
property float z
property float nx
property float ny
property float nz
property uchar red
property uchar green
property uchar blue
property uchar alpha
property float texture_u
property float texture_v
element face 550
property list uchar int vertex_indices
end_header
0.01572313 0.5689478 0.02996648 -0.2897024 0.6539299 0.6988907 150 150 150 255 0.354924 0.473697
0.001154803 0.5775727 0.01498682 -0.52754 0.8352221 0.15526 150 150 150 255 0.335676 0.473242
-0.06247483 0.5055368 0.008008597 -0.8286731 0.3361628 0.4475438 150 150 150 255 0.309991 0.414851
0.00446596 0.4573938 0.07155657 -0.6323404 0.1152256 0.7660736 150 150 150 255 0.375718 0.379235
0.001877211 0.00478793 -0.009362319 0.1373507 -0.779596 -0.6110359 150 150 150 255 0.230315 0.043949
-0.0242878 0.03019489 -0.02759052 -0.6818138 -0.330099 -0.6528128 150 150 150 255 0.250399 0.071332
0.007696055 0.03019489 -0.04030842 -0.06437127 -0.5122677 -0.8564101 150 150 150 255 0.224876 0.074053
-0.05352412 0.4968058 -0.04048909 -0.09965094 0.4221454 -0.9010344 150 150 150 255 0.252992 0.424488
0.00606098 0.5788077 0.004306702 0.001161163 0.4787554 -0.8779476 150 150 150 255 0.207956 0.498978
0.02096119 0.5666637 -0.00229604 -0.0382514 0.5104501 -0.8590562 150 150 150 255 0.195997 0.488403
0.02887812 0.4687767 -0.06620885 0.2667201 0.342397 -0.9009022 150 150 150 255 0.187310 0.396780
-0.03631411 0.04154588 -0.007623279 -0.8519727 -0.5135832 0.1018569 150 150 150 255 0.267168 0.082560
-0.04302607 0.1004939 0.02063162 -0.9919585 -0.05172495 0.1155113 150 150 150 255 0.291551 0.121677
-0.03189478 0.1014418 -0.0360024 -0.6426005 -0.1002835 -0.7596104 150 150 150 255 0.249928 0.125401
0.03408089 0.5535958 0.02553523 0.5168234 0.5382885 0.665687 150 150 150 255 0.046764 0.440005
0.07284585 0.5006637 0.04436695 0.7743787 0.4009986 0.489426 150 150 150 255 0.061098 0.397773
0.01999082 0.0006629303 0.00710321 -0.4617004 -0.7175558 0.5214849 150 150 150 255 0.286281 0.028631
0.008283995 0.06825687 0.0627712 -0.5522143 -0.180629 0.8138996 150 150 150 255 0.335222 0.083101
-0.0222231 0.04415788 0.03793108 -0.6528463 -0.4721633 0.5923289 150 150 150 255 0.298906 0.079264
0.03168287 0.5610708 0.01602154 0.6857808 0.7166636 0.126878 150 150 150 255 0.049785 0.448756
0.08160821 0.4803708 0.003031513 0.8819167 0.4693942 -0.04349775 150 150 150 255 0.093140 0.395622
0.05849495 0.03148891 0.03788922 0.6022656 -0.3647961 0.7100705 150 150 150 255 0.114340 0.067908
0.08169594 0.07040991 -0.02094682 0.8828705 -0.3416457 -0.3222079 150 150 150 255 0.159831 0.087681
0.03867998 0.04415788 -0.0415501 0.395969 -0.5627965 -0.7255816 150 150 150 255 0.202040 0.081014
0.02604284 0.1119679 -0.05912121 0.08828291 -0.1129688 -0.9896687 150 150 150 255 0.204813 0.130994
0.1000208 0.4381647 -0.02231847 0.8926737 0.1636261 -0.4199527 150 150 150 255 0.123315 0.368171
0.0288538 0.4341158 -0.06650507 0.1125162 -0.02236548 -0.9933982 150 150 150 255 0.189128 0.369631
-0.04662715 0.4230168 -0.05987512 -0.6883876 0.0003902215 -0.725343 150 150 150 255 0.248867 0.364461
-0.06114302 0.4465177 0.01060387 -0.9460638 -0.02804797 0.3227643 150 150 150 255 0.305488 0.374687
0.07313004 0.4589498 0.04508188 0.7644498 -0.01730114 0.6444511 91 91 91 255 0.066792 0.371387
0.1674 0.3567638 -0.07054721 -0.041443 0.7022941 -0.7106797 150 150 150 255 0.195356 0.816977
0.15772 0.2880188 -0.1194675 0.2442462 0.1870682 -0.9514985 150 150 150 255 0.179700 0.758222
0.1313252 0.3050188 -0.1103495 -0.6058881 0.4520103 -0.654665 150 150 150 255 0.198290 0.762864
0.02491798 0.01483989 -0.006611282 -0.3476393 0.06255965 -0.935539 150 150 150 255 0.588362 0.546131
0.01355305 0.04623188 0.01695853 -0.6748374 0.2120676 -0.7068394 150 150 150 255 0.618580 0.565629
0.03423681 0.0470369 0.004416471 -0.2680486 0.5594249 -0.7843429 150 150 150 255 0.595186 0.577305
0.1882111 0.3100148 -0.08040631 0.9514761 0.1973805 0.236081 150 150 150 255 0.136167 0.798392
0.1875719 0.2690658 -0.04359438 0.9631852 0.1045289 0.2476853 150 150 150 255 0.108116 0.759749
0.191533 0.2624389 -0.0780886 0.9461133 -0.2337916 -0.2240783 150 150 150 255 0.138646 0.756888
0.01729479 -0.01761409 0.006111016 0.4432582 -0.8339638 -0.3286741 150 150 150 255 0.553157 0.536174
0.06066122 0.02084292 0.001418954 0.7042601 -0.2823399 -0.6513847 150 150 150 255 0.563703 0.574445
0.06382313 0.007275831 0.02852606 0.7070801 -0.6811355 0.1899797 150 150 150 255 0.563703 0.574445
0.04224816 0.06111492 -0.05827421 -0.5882935 0.1240639 -0.7990738 150 150 150 255 0.200596 0.577798
0.0757288 0.04801883 -0.06955915 0.2362419 -0.405761 -0.8829201 150 150 150 255 0.173560 0.582179
0.03557815 0.006448871 -0.04665668 -0.1106809 -0.5927715 -0.7977291 150 150 150 255 0.184031 0.535855
0.02373113 0.01841487 -0.0483468 -0.6226167 -0.3846769 -0.6814486 150 150 150 255 0.196356 0.544856
0.1089548 0.2886958 -0.04829317 -0.8887049 0.4106573 -0.2038729 150 150 150 255 0.247308 0.754628
0.0251378 -0.004671091 -0.008090829 -0.8557782 -0.5131764 0.06552622 150 150 150 255 0.213878 0.513378
0.0295681 0.04989184 -0.01316891 -0.893421 0.432077 0.1229162 150 150 150 255 0.232938 0.552674
0.004938982 0.03030683 -0.02650127 -0.9836761 0.1699275 -0.05921074 150 150 150 255 0.212038 0.542121
0.1546511 0.3065438 -0.02186342 0.07226702 0.454069 0.8880309 150 150 150 255 0.048402 0.763056
0.05068913 0.02016391 0.01100192 -0.323503 0.002518482 0.9462238 150 150 150 255 0.084420 0.537172
0.1746971 0.2842068 -0.02781378 0.6265974 0.3812619 0.6797169 150 150 150 255 0.070030 0.761634
0.09751883 0.02927591 0.002405358 0.5520267 -0.5461606 0.6300597 150 150 150 255 0.114534 0.554694
0.0651001 -4.612841e-05 -0.03770473 0.3656572 -0.8806732 -0.3011803 150 150 150 255 0.160492 0.544665
0.108766 0.04723085 -0.04479352 0.7299395 -0.5360059 -0.4241298 150 150 150 255 0.143895 0.585713
0.184661 0.2520188 -0.02133495 0.8168718 -0.004433686 0.5768023 150 150 150 255 0.090291 0.743104
0.18409 0.2412939 -0.07501621 0.8922858 -0.3473565 -0.2883913 150 150 150 255 0.135433 0.738467
0.09764996 0.1634499 0.1142399 0.9464555 -0.1931878 0.2586512 150 150 150 255 0.578436 0.698090
0.09703723 0.1750878 0.09122138 0.7660545 0.2188128 -0.6043853 150 150 150 255 0.596439 0.693972
0.1007341 0.2019418 0.108685 0.9257682 0.3620967 -0.1088087 150 150 150 255 0.606309 0.717577
0.183576 0.2666218 -0.0986445 0.790981 -0.1108058 -0.6017235 150 150 150 255 0.155903 0.754705
0.153942 0.2383778 -0.1147838 0.3097799 -0.2939863 -0.9042171 150 150 150 255 0.170724 0.729090
0.1174668 0.2697029 -0.1033798 -0.7341596 0.133947 -0.6656334 150 150 150 255 0.202466 0.739027
0.1452321 0.2813398 -0.0176567 -0.1474214 0.1811276 0.9723476 150 150 150 255 0.052239 0.745326
-0.1040808 0.3270268 0.06004041 -0.6050197 0.5462255 0.5793003 150 150 150 255 0.940376 0.466581
-0.1509391 0.2317968 0.07253234 -0.9182122 0.07393773 0.3891268 150 150 150 255 0.908222 0.398295
-0.1223188 0.2414808 0.09947735 -0.2196007 0.1385138 0.9657067 150 150 150 255 0.932121 0.398347
-0.013445 -0.009143109 0.00907631 -0.3402817 -0.8078239 -0.4812785 150 150 150 255 0.850451 0.203192
-0.05924378 0.01665987 0.03245145 -0.483702 -0.784918 0.3872161 150 150 150 255 0.881863 0.243490
-0.06179486 0.02008094 0.002539149 -0.6678222 -0.6921508 -0.2737534 150 150 150 255 0.857577 0.249177
-0.1332689 0.2303239 0.002883395 -0.7393952 0.311511 -0.5968717 150 150 150 255 0.857656 0.411963
0.03555622 0.02256585 0.06217362 0.4263464 -0.6256523 0.6532902 150 150 150 255 0.523687 0.587924
-0.04921113 0.04967786 0.06733401 -0.2505762 -0.4666345 0.8482122 150 150 150 255 0.912756 0.266629
-0.08394299 0.04393185 0.03605505 -0.8538638 -0.5051888 0.1253038 150 150 150 255 0.881511 0.273133
-0.04648505 0.2403929 0.07658415 0.2968386 0.0968817 0.9500005 150 150 150 255 0.990580 0.384369
0.003754042 0.05014588 0.0473257 0.2697746 -0.371024 0.8885735 150 150 150 255 0.943465 0.235066
-0.04520093 0.2707358 0.0202742 0.7011372 0.6300362 -0.3338579 150 150 150 255 0.748567 0.422883
0.01097908 0.03828992 -0.0001131017 0.9787029 -0.03665946 -0.2019821 150 150 150 255 0.764471 0.244134
-0.06735383 0.2564379 -0.004236484 0.2366295 0.7308473 -0.6402099 150 150 150 255 0.775332 0.422306
-0.0260192 0.05307187 -0.03846177 0.2497095 -0.188473 -0.9498016 150 150 150 255 0.805039 0.254464
-0.05282078 0.02888383 -0.0186923 -0.4095837 -0.574541 -0.7086211 150 150 150 255 0.839197 0.251467
-0.07922994 0.05689086 -0.01323206 -0.7380186 -0.360856 -0.5701856 150 150 150 255 0.845699 0.279085
-0.07178603 0.2356919 -0.03008685 0.002063369 0.3483383 -0.9373667 150 150 150 255 0.797969 0.407458
-0.1285988 0.2133798 0.0007328298 -0.7722259 -0.1870184 -0.6071996 150 150 150 255 0.853712 0.397362
-0.1512152 0.1943018 0.05530952 -0.9292462 -0.2972092 0.2194725 150 150 150 255 0.894100 0.377926
0.075982 0.1745999 0.1364753 0.6460826 -0.2386335 0.7250044 150 150 150 255 0.561374 0.717832
0.082508 0.2204918 0.1279468 0.7362297 0.02101522 0.6764054 150 150 150 255 0.590816 0.744651
0.06028881 0.1998639 0.1328892 -0.6404181 0.141832 0.7548168 150 150 150 255 0.662817 0.709519
-0.1117192 0.2133538 0.09615222 -0.1572264 -0.2090662 0.9651794 150 150 150 255 0.932228 0.378590
-0.03872691 0.2505629 0.01791476 0.9056502 0.2721112 -0.3251973 150 150 150 255 0.750572 0.407935
0.003754042 0.01976587 0.04128042 -0.9152807 -0.2679551 0.300768 150 150 150 255 0.650524 0.561958
0.005265139 0.03642489 0.02866693 -0.9662029 -0.09405342 -0.2400122 150 150 150 255 0.650524 0.561958
0.05064001 0.1988369 0.1011477 -0.6970696 0.6763918 -0.2378826 150 150 150 255 0.640594 0.703346
0.08801213 0.2084279 0.1029631 0.1989012 0.7755014 -0.5991961 150 150 150 255 0.606309 0.717577
0.07287684 0.1827989 0.07871729 0.1257025 0.5360801 -0.8347557 150 150 150 255 0.616434 0.687976
0.003783129 0.05978289 0.02662459 -0.8448471 0.2577229 -0.4688414 150 150 150 255 0.632349 0.574541
0.0379571 0.06044091 0.01123592 -0.03511498 0.4535013 -0.8905636 150 150 150 255 0.595186 0.577305
0.04427424 0.04080392 -0.00660515 0.0987655 0.4007672 -0.9108409 150 150 150 255 0.595186 0.577305
0.07091513 0.05377389 0.017628 0.7460613 0.2538242 -0.6156021 150 150 150 255 0.580405 0.594433
0.0693368 0.02969791 0.04134755 0.8637007 -0.3885123 0.3210597 150 150 150 255 0.557061 0.592309
0.008016013 0.03573788 0.04990893 -0.8353232 -0.03433088 0.5486863 150 150 150 255 0.650524 0.561958
-0.08041488 0.1776589 -0.07183661 -0.6891841 0.4793955 -0.543328 150 150 150 255 0.844806 0.182125
-0.09530793 0.1242138 -0.08232971 -0.8366617 -0.07650164 -0.5423512 150 150 150 255 0.845030 0.143969
-0.100473 0.1319349 -0.06306174 -0.9541518 0.1216112 0.2735051 150 150 150 255 0.855823 0.148548
-0.02235089 -0.003082151 -0.01802935 0.2278054 -0.7397164 -0.6331859 150 150 150 255 0.854399 0.032053
-0.04654799 0.01706292 -0.03315569 -0.6192393 -0.7347904 -0.2768138 150 150 150 255 0.860907 0.061549
-0.03295289 0.01844586 -0.04383988 -0.09489012 -0.6928087 -0.714851 150 150 150 255 0.846716 0.059845
-0.04180203 0.1341599 -0.08000771 0.4953549 0.4030907 -0.7695073 150 150 150 255 0.799315 0.140274
-0.05874501 0.1241759 -0.09258401 0.2389559 -0.03767922 -0.9702991 150 150 150 255 0.819515 0.142324
-0.06041394 0.03762091 -0.02367922 -0.883111 -0.4309511 0.1854619 150 150 150 255 0.871219 0.079715
-0.05499182 0.03140093 -0.04715354 -0.5133464 -0.6109689 -0.6026546 150 150 150 255 0.854098 0.077372
-0.07011519 0.1374339 -0.03477263 -0.6821844 0.161254 0.7131772 150 150 150 255 0.886294 0.153782
-0.03741084 0.01743485 -0.005075345 -0.7507862 -0.3339432 0.569914 150 150 150 255 0.886294 0.055583
-0.04497824 0.1527709 -0.05137347 0.597873 0.725744 0.340358 150 150 150 255 0.761493 0.130620
-0.01341401 0.03597189 -0.01339133 0.6476168 0.1208322 0.7523245 150 150 150 255 0.799178 0.043689
-0.03908597 0.1432079 -0.06672344 0.6271985 0.7459505 -0.2240089 150 150 150 255 0.775456 0.134973
-0.006013013 0.04019584 -0.04133896 0.9562942 -0.1237106 -0.2649472 150 150 150 255 0.818132 0.055946
-0.02129279 0.02555789 -0.04635911 0.4421084 -0.5538202 -0.705566 150 150 150 255 0.835980 0.059017
-0.03161011 0.0380279 -0.05901067 0.1520165 -0.4692809 -0.8698658 150 150 150 255 0.835021 0.074290
-0.02773724 0.1317419 -0.07392731 0.7808694 0.3775727 -0.4976764 150 150 150 255 0.789451 0.131286
-0.05598984 0.1157019 -0.0897309 0.2231249 -0.2333814 -0.9464399 150 150 150 255 0.819379 0.134550
-0.07306014 0.1210929 -0.09338651 -0.198099 -0.02099429 -0.9799572 150 150 150 255 0.830645 0.141589
-0.08627902 0.1044489 -0.08408871 -0.5449461 -0.4936684 -0.6777354 150 150 150 255 0.841628 0.132068
-0.09526597 0.1181089 -0.05697535 -0.8984728 -0.2063116 0.3875333 150 150 150 255 0.859708 0.139308
-0.04155121 0.1427618 -0.04751108 0.7135708 0.4047517 0.5718329 150 150 150 255 0.765273 0.123220
0.007306002 0.3434008 -0.1384359 -0.6520783 0.6686278 -0.3573945 150 150 150 255 0.440201 0.812982
-0.03828393 0.2727978 -0.1506558 -0.7056036 0.1324683 -0.6961147 150 150 150 255 0.428628 0.752334
-0.043995 0.2911598 -0.1242169 -0.88026 0.4419721 0.1726356 150 150 150 255 0.447140 0.758399
0.01027098 0.2955097 -0.1587688 0.6758841 0.1737243 -0.7162405 150 150 150 255 0.381891 0.788969
0.04275885 0.2564138 -0.1375939 0.6939375 0.08117411 -0.715445 150 150 150 255 0.356887 0.748532
0.01503982 0.2480088 -0.1578552 0.2849255 -0.278423 -0.917223 150 150 150 255 0.387427 0.747952
-0.03785382 0.05341591 -0.00770426 -0.9924849 0.0242082 0.1199488 150 150 150 255 0.464495 0.576706
-0.03056298 0.03608085 -0.04156933 -0.6475351 -0.3863281 -0.6568478 150 150 150 255 0.436371 0.574686
-0.02675305 -0.004135126 -0.01736339 -0.7007625 -0.5949997 -0.3935828 150 150 150 255 0.440490 0.538567
-0.03442202 0.01066793 -0.008620152 -0.8900152 -0.3958711 0.2261838 150 150 150 255 0.451139 0.549830
-0.001103975 0.2786399 -0.07301781 -0.6306801 0.4324722 0.6443682 150 150 150 255 0.497688 0.753485
0.001656912 -0.01050814 0.01151474 -0.492804 -0.5212587 0.6967307 150 150 150 255 0.468166 0.515842
-0.004901983 0.04482485 0.02637838 -0.5567961 0.183091 0.8102196 150 150 150 255 0.496031 0.554354
-0.02519379 0.02426292 0.01787115 -0.6645451 -0.1714897 0.727304 150 150 150 255 0.472351 0.548979
0.04422417 0.2960568 -0.1003519 0.794214 0.4929956 0.3552176 150 150 150 255 0.297258 0.747664
0.02727499 0.01553584 0.02180528 0.5928069 -0.053339 0.8035764 150 150 150 255 0.348222 0.529119
0.04962292 0.2727478 -0.1194244 0.8930092 0.3902445 -0.2241511 150 150 150 255 0.318916 0.747778
0.04305687 0.02252091 -0.02349365 0.8515727 -0.5020843 -0.1507826 150 150 150 255 0.377795 0.544464
-0.005879022 -0.008022184 -0.02470892 0.1102015 -0.8671131 -0.485768 150 150 150 255 0.423158 0.539320
0.007419966 0.03527583 -0.05775283 0.07817238 -0.516755 -0.8525569 150 150 150 255 0.406152 0.575247
0.06096211 0.2405659 -0.1230323 0.9092594 -0.005191795 -0.4161976 150 150 150 255 0.340427 0.730729
0.01446524 0.2273188 -0.1487154 0.204702 -0.3904595 -0.8975736 150 150 150 255 0.385579 0.729319
-0.006828882 0.2514928 -0.1614541 -0.1223917 -0.1680454 -0.9781519 150 150 150 255 0.404889 0.747051
-0.03497277 0.2236068 -0.142306 -0.6215829 -0.3464139 -0.7025896 150 150 150 255 0.421511 0.722289
-0.04408083 0.2567439 -0.1068004 -0.9465777 0.1286196 0.2957156 150 150 150 255 0.453083 0.734550
0.04373493 0.2714408 -0.08871251 0.7635706 0.2325445 0.6023978 150 150 150 255 0.302333 0.730270
-0.01021586 0.07373586 0.06673278 0.3487857 0.9370421 -0.01734311 150 150 150 255 0.652376 0.967385
0.01076593 0.06098689 0.05124274 0.8048599 0.5934487 0.00439385 150 150 150 255 0.649453 0.946158
0.002372168 0.06523886 0.04555093 0.1303438 0.7732519 -0.6205578 150 150 150 255 0.655786 0.948199
-9.30801e-05 -0.008555168 0.01719312 0.6063758 -0.7951714 0.003306781 150 150 150 255 0.650460 0.890442
0.008879088 0.004111891 0.0190119 0.7285579 -0.1400755 -0.670509 150 150 150 255 0.655468 0.903067
0.009414099 -0.0001500789 0.02600643 0.8701516 -0.4924842 -0.01719329 150 150 150 255 0.648854 0.902711
0.001645945 0.05744089 0.06533036 0.2463194 0.08018153 0.9658663 150 150 150 255 0.632915 0.954278
-0.004182912 0.04417087 0.06791848 0.187991 -0.03851814 0.9814152 150 150 150 255 0.625701 0.943928
0.006926917 0.0473559 0.06468214 0.6605075 -0.1752347 0.730084 150 150 150 255 0.635952 0.944980
0.00252714 0.01649786 0.01709572 0.3710903 0.2950368 -0.8804801 150 150 150 255 0.661611 0.912148
0.01212587 0.01275492 0.02467988 0.9771318 -0.01169 -0.2123129 150 150 150 255 0.652948 0.911294
-0.01660977 0.05510689 0.04597366 -0.3371257 0.5832027 -0.7390676 150 150 150 255 0.672242 0.949343
-0.01081906 0.00897182 0.01843653 -0.1569037 0.2312833 -0.9601507 150 150 150 255 0.672242 0.906658
-0.0194522 0.05127086 0.0626847 -0.8698668 0.03808346 0.4918144 150 150 150 255 0.606716 0.939460
-0.01116715 -0.002051109 0.02609523 -0.9006662 -0.4305738 -0.05836723 150 150 150 255 0.624993 0.894645
-0.01227198 0.04602493 0.06675464 -0.4633323 0.05220014 0.8846459 150 150 150 255 0.613648 0.941431
-0.002921201 -0.002820129 0.03862783 -0.1414248 -0.8016719 0.5807936 150 150 150 255 0.634583 0.900608
0.006070994 -0.002034182 0.03202875 0.5794401 -0.743049 0.3348543 150 150 150 255 0.643596 0.902352
0.01003685 0.00645793 0.03689784 0.8295835 -0.394406 0.3952659 150 150 150 255 0.643188 0.910011
-0.008959867 0.03788985 0.06907332 -0.1361612 -0.2993498 0.944378 150 150 150 255 0.620647 0.939403
0.007389925 0.04330887 0.06212281 0.7421373 -0.2850471 0.6066139 150 150 150 255 0.635936 0.940987
0.01110496 0.05171086 0.06016378 0.8324761 0.1681995 0.5279134 150 150 150 255 0.641799 0.944769
0.01457395 0.05073286 0.04879356 0.9885452 0.09317254 -0.1187321 150 150 150 255 0.647516 0.939724
0.002416037 0.0583389 0.04109251 0.1953631 0.5049421 -0.8407537 150 150 150 255 0.657440 0.943040
-0.0191351 0.04641594 0.05954453 -0.9342555 -0.2731971 0.2291944 150 150 150 255 0.608416 0.935773
0.09275714 0.1353578 0.03726917 -0.2234354 0.4836283 0.8462744 150 150 150 255 0.350046 0.956173
0.06309691 0.1152608 0.03454761 -0.715681 0.4097072 0.5656331 150 150 150 255 0.333815 0.931288
0.07329503 0.1100519 0.04190606 -0.09219243 -0.1505188 0.9842991 150 150 150 255 0.342964 0.930097
0.06073323 0.03580691 -0.02065149 -0.701293 -0.2810448 -0.6551351 150 150 150 255 0.302096 0.860830
0.05206385 0.04691388 -0.007397974 -0.8064105 -0.5350791 0.2517787 150 150 150 255 0.315849 0.873696
0.05162516 0.05201293 -0.01617353 -0.9239869 -0.1144465 -0.3648977 150 150 150 255 0.307345 0.877163
0.07546893 0.1265448 0.02149635 -0.1318865 0.9129888 -0.3860796 150 150 150 255 0.317884 0.951260
0.08077279 0.1204098 0.005177161 -0.08825381 0.8611102 -0.5007 150 150 150 255 0.302712 0.942552
0.06731215 0.1209319 0.01143899 -0.5981346 0.6513209 -0.4669219 150 150 150 255 0.316188 0.937802
0.06156912 0.05092384 0.006603291 -0.4190226 -0.5656161 0.7102806 150 150 150 255 0.328927 0.881446
0.05022803 0.05869092 -0.00125576 -0.9870452 -0.03875927 0.1556908 150 150 150 255 0.317559 0.885503
0.09487811 0.1009269 0.02924052 0.3315817 -0.4155485 0.8469788 150 150 150 255 0.364275 0.921792
0.07681409 0.04539086 -0.003365854 0.08496039 -0.7463775 0.6600776 150 150 150 255 0.339007 0.868269
0.09987918 0.1160529 0.01478606 0.9138191 0.3100449 -0.2623104 150 150 150 255 0.276264 0.948187
0.07644501 0.04706086 -0.01989684 0.8257779 -0.3939446 -0.403607 150 150 150 255 0.272651 0.881176
0.090794 0.1187059 0.007240577 0.5557066 0.7198558 -0.4159301 150 150 150 255 0.286121 0.946555
0.067871 0.0616249 -0.02764826 0.09528149 0.1008587 -0.9903277 150 150 150 255 0.288206 0.882976
0.05617514 0.05672684 -0.02210558 -0.633432 0.02679364 -0.7733344 150 150 150 255 0.300540 0.879827
0.05333319 0.06769587 -0.0155869 -0.828278 0.2832352 -0.4834598 150 150 150 255 0.304562 0.889673
0.08573809 0.1170459 -0.00266354 0.1934768 0.6551897 -0.7302693 150 150 150 255 0.293697 0.939870
0.06576386 0.1158979 0.008662825 -0.7057962 0.5047891 -0.497031 150 150 150 255 0.313806 0.932805
0.06233492 0.1194428 0.01919074 -0.7439153 0.6657231 -0.05833402 150 150 150 255 0.323396 0.934077
0.05647793 0.1073359 0.02528104 -0.9748823 0.09385322 0.2019804 150 150 150 255 0.327578 0.924367
0.07155314 0.1012238 0.0371701 -0.2142281 -0.4586619 0.8624011 150 150 150 255 0.341984 0.922650
0.09830323 0.1098928 0.01147806 0.9093647 -0.07522795 -0.4091414 150 150 150 255 0.276212 0.942558
0.05959883 0.1005169 -0.07504371 0.1705006 0.5933753 -0.7866609 150 150 150 255 0.452807 0.967932
0.03140201 0.07673587 -0.0811566 -0.6446368 0.4198921 -0.6388537 150 150 150 255 0.449121 0.941186
0.03218498 0.0845349 -0.0710061 -0.7011371 0.6873724 0.1895417 150 150 150 255 0.456308 0.944159
0.005444907 -0.02018305 -0.04068777 -0.2121617 -0.8359481 -0.5061406 150 150 150 255 0.425304 0.866445
-0.005435087 -0.004429097 -0.04820788 -0.9462361 -0.2918352 -0.1395334 150 150 150 255 0.441433 0.876868
0.007257842 -0.01026615 -0.0555088 -0.4110319 -0.5648528 -0.7155377 150 150 150 255 0.428713 0.881176
0.05969897 0.06193389 -0.06951328 0.8486604 0.02141453 -0.5285044 150 150 150 255 0.424951 0.952144
0.05524817 0.05739392 -0.07684501 0.6661633 -0.01127901 -0.7457207 150 150 150 255 0.426870 0.944559
-0.002313234 0.01450885 -0.04331271 -0.9016045 0.3188502 0.2923078 150 150 150 255 0.450878 0.889174
-0.002210237 0.007215859 -0.05575955 -0.7165649 -0.05540756 -0.6953163 150 150 150 255 0.441161 0.888750
0.04473009 0.0748979 -0.05382669 -0.4834282 0.5559097 0.6762113 150 150 150 255 0.474371 0.942533
0.01450004 0.007211931 -0.03481399 -0.4861845 0.2030224 0.8499451 150 150 150 255 0.464888 0.881270
0.06114521 0.07090987 -0.06156216 0.9094454 0.04692771 0.413167 150 150 150 255 0.403960 0.955427
0.0209569 -0.007918114 -0.03789438 0.5291964 -0.2816203 0.8004007 150 150 150 255 0.400866 0.885405
0.02645292 -0.01047012 -0.05276429 0.6747429 -0.7193394 -0.1651452 150 150 150 255 0.412816 0.885764
0.01469412 -0.01184508 -0.05626715 0.0227293 -0.7447608 -0.6669443 150 150 150 255 0.423074 0.882903
0.01673021 -0.0006231014 -0.06389625 -0.09179233 -0.4282818 -0.898971 150 150 150 255 0.425841 0.892797
0.05915394 0.04975189 -0.07267771 0.8554683 -0.2947838 -0.4257657 150 150 150 255 0.418877 0.942781
0.04239979 0.05310084 -0.08281741 0.09138037 -0.3228437 -0.9420306 150 150 150 255 0.432794 0.934988
0.0385932 0.06395891 -0.08586371 0.09446219 0.1271997 -0.9873688 150 150 150 255 0.439691 0.939340
0.0262331 0.06123687 -0.08140681 -0.6544843 0.03153051 -0.7554179 150 150 150 255 0.444676 0.932051
0.0451478 0.05903186 -0.08461501 0.2023171 -0.1708602 -0.9643001 150 150 150 255 0.434358 0.939289
0.02791204 0.07459785 -0.06724972 -0.8167023 0.4776734 0.3237677 150 150 150 255 0.457620 0.936389
0.05794611 0.06384684 -0.05915978 0.749194 -0.1683904 0.640588 150 150 150 255 0.403899 0.949433
0.06276599 0.1022129 -0.01622745 -0.907884 -0.4101031 0.08696064 150 150 150 255 0.588362 0.546131
0.06976977 0.1271869 0.01113891 -0.7257932 -0.3375207 0.5994198 150 150 150 255 0.618580 0.565629
0.05626478 0.1331879 -0.008027861 -0.9720352 0.0385472 0.2316501 150 150 150 255 0.595186 0.577305
0.08342686 0.07366289 -0.02181204 -0.1640271 -0.6065586 -0.7779343 150 150 150 255 0.553157 0.536174
0.0670599 0.1239378 -0.04602071 -0.604493 -0.1471765 -0.7828967 150 150 150 255 0.563703 0.574445
0.087634 0.1160549 -0.04997963 0.3196589 -0.2439574 -0.9155889 150 150 150 255 0.563703 0.574445
0.1306271 0.2883558 -0.01329934 0.2441362 0.2763509 -0.9295309 150 150 150 255 0.578436 0.698090
0.1055378 0.2927088 -0.009145992 -0.6817226 0.354431 -0.6400258 150 150 150 255 0.596439 0.693972
0.1156892 0.3221468 -0.0007703025 -0.2458702 0.6669331 -0.7033834 150 150 150 255 0.606309 0.717577
0.1180762 0.1263429 -0.01632898 0.7612822 -0.1831676 -0.622012 150 150 150 255 0.523687 0.587924
0.150658 0.2948658 0.01209049 0.7236799 0.2292188 -0.6509579 150 150 150 255 0.561374 0.717832
0.1308421 0.3358388 0.02433399 0.6082237 0.4824947 -0.6302879 150 150 150 255 0.590816 0.744651
0.14191 0.3098898 0.03648654 0.7323363 0.05102472 0.6790287 150 150 150 255 0.662817 0.709519
0.100325 0.1058769 0.01053776 0.3989373 -0.5393392 0.7415944 150 150 150 255 0.650524 0.561958
0.08396617 0.1180679 0.01529843 -0.1942422 -0.5718893 0.7970023 150 150 150 255 0.650524 0.561958
0.1119741 0.2972888 0.04332227 -0.3559217 0.2553273 0.8989593 150 150 150 255 0.640594 0.703346
0.1092848 0.3213068 0.01319255 -0.7804525 0.6165537 0.1037084 150 150 150 255 0.606309 0.717577
0.09291402 0.2866538 0.01542054 -0.9460015 0.3182075 0.06184715 150 150 150 255 0.616434 0.687976
0.07637587 0.1375419 0.02602685 -0.4690928 -0.2299694 0.8526817 150 150 150 255 0.632349 0.574541
0.05938807 0.1481749 -0.00565126 -0.970826 0.1666733 0.1723861 150 150 150 255 0.595186 0.577305
0.05534687 0.1329199 -0.02336025 -0.9813891 -0.0114201 -0.19169 150 150 150 255 0.595186 0.577305
0.06534424 0.1572089 -0.03812387 -0.7182369 0.3009402 -0.6273522 150 150 150 255 0.580405 0.594433
0.09426823 0.1411849 -0.04528841 0.3775576 0.09420244 -0.9211819 150 150 150 255 0.557061 0.592309
0.1045441 0.1237888 0.01354938 0.586731 -0.2336167 0.7753515 150 150 150 255 0.650524 0.561958
-0.02006922 0.2159408 0.09093398 -0.1890067 0.7319297 -0.6546414 150 150 150 255 0.920225 0.522566
-0.006877996 0.2020758 0.07162271 -0.1976934 0.6648416 -0.7203492 150 150 150 255 0.932100 0.542567
-0.02325402 0.1979549 0.07602976 -0.6558827 0.3093524 -0.688563 150 150 150 255 0.917152 0.542580
-0.007773973 0.2296358 0.1089149 -0.5047025 0.4401745 0.7426452 150 150 150 255 0.891535 0.509950
-0.03193007 0.1957339 0.1038753 -0.9209287 0.1463182 0.361222 150 150 150 255 0.896854 0.540112
-0.02088604 0.1958879 0.115646 -0.2392968 -0.07271413 0.9682199 150 150 150 255 0.887706 0.536977
0.003754996 0.07715584 0.06673862 -0.3737862 -0.5354013 0.7573833 150 150 150 255 0.878196 0.625944
-0.009515859 0.08037783 0.05410485 -0.9640021 -0.2638659 0.03278391 150 150 150 255 0.891515 0.626691
-0.002795793 0.05981685 0.04557864 -0.6880547 -0.6994314 0.1933302 150 150 150 255 0.889235 0.644846
0.009892844 0.1877319 0.1050729 0.2788364 -0.1977718 0.9397535 150 150 150 255 0.862462 0.539103
0.02538099 0.07247986 0.05800584 0.1798855 -0.5751771 0.7980054 150 150 150 255 0.862462 0.636198
0.01522102 0.05135692 0.03339822 0.06673574 -0.7705443 0.6338831 150 150 150 255 0.877478 0.660674
0.02907219 0.06822886 0.03715162 0.9763198 -0.1187706 -0.1808123 150 150 150 255 0.934364 0.650645
0.01259079 0.2095649 0.08855237 0.8175831 0.5432777 -0.1908069 150 150 150 255 0.961195 0.543493
0.003941916 0.2057398 0.07677172 0.3748324 0.7650686 -0.5236133 150 150 150 255 0.950624 0.543264
0.01563301 0.08426989 0.02553661 0.1990036 0.06946196 -0.9775339 150 150 150 255 0.920237 0.641992
-0.0006400123 0.06399883 0.03553256 -0.6477518 -0.3127678 -0.6946898 150 150 150 255 0.898037 0.645181
-0.00609789 0.0910919 0.03709803 -0.7679865 0.004675698 -0.640449 150 150 150 255 0.906584 0.626534
0.002219103 0.1960828 0.06296016 0.1420339 0.5434443 -0.827342 150 150 150 255 0.939989 0.551412
-0.02180586 0.1876318 0.07201216 -0.7051976 0.1770914 -0.6865385 150 150 150 255 0.917906 0.551736
-0.03013907 0.1958918 0.0844581 -0.9012898 0.2650129 -0.3427022 150 150 150 255 0.908549 0.542885
-0.03266392 0.1751208 0.09030765 -0.9794337 -0.2004329 0.02315935 150 150 150 255 0.900235 0.555003
-0.01735411 0.1783868 0.1090193 -0.2383452 -0.405012 0.8826987 150 150 150 255 0.884607 0.548784
0.01467314 0.1971489 0.08383076 0.9501604 0.2104724 -0.2299924 150 150 150 255 0.958578 0.551944
0.03562298 0.1079448 0.03944453 0.6255218 -0.6705635 -0.3988321 150 150 150 255 0.558302 0.967385
0.05313816 0.1310899 0.03893115 0.7360997 -0.1717417 -0.6547229 150 150 150 255 0.555379 0.946158
0.05377283 0.1246638 0.04783355 0.8300846 -0.5159178 0.2116327 150 150 150 255 0.561712 0.948199
0.03953114 0.1936318 0.08383769 0.01815072 0.9660489 -0.2577211 150 150 150 255 0.556386 0.890442
0.04915705 0.1860709 0.07412168 0.8281774 0.5601079 0.02003559 150 150 150 255 0.561394 0.903067
0.04292622 0.1888358 0.06954986 0.3208742 0.8182213 -0.477026 150 150 150 255 0.554780 0.902710
0.03664722 0.1277518 0.03559703 -0.4681895 -0.1323346 -0.8736625 150 150 150 255 0.538841 0.954278
0.02567711 0.1364479 0.04015863 -0.5649226 -0.05591441 -0.8232473 150 150 150 255 0.531627 0.943928
0.03589716 0.1390709 0.03443795 -0.1712217 0.3155855 -0.9333215 150 150 150 255 0.541877 0.944980
0.05198612 0.1727048 0.07740234 0.9430776 0.0567726 0.3276914 150 150 150 255 0.567536 0.912148
0.0510191 0.1788769 0.06623857 0.7241095 0.4753017 -0.4997536 150 150 150 255 0.558874 0.911294
0.03772679 0.1252148 0.06216387 0.5474223 -0.5321814 0.645842 150 150 150 255 0.578167 0.949343
0.03982678 0.1732628 0.08680515 0.6524885 -0.1041739 0.7506042 150 150 150 255 0.578167 0.906658
0.02310982 0.1244209 0.05279619 -0.8366069 -0.5006959 0.2222443 150 150 150 255 0.512642 0.939460
0.02970018 0.1814879 0.08362974 -0.6868738 -0.004356181 0.7267637 150 150 150 255 0.530919 0.894645
0.02240887 0.1314759 0.04606048 -0.8512667 -0.4041055 -0.3347293 150 150 150 255 0.519574 0.941431
0.02587309 0.1835768 0.06925434 -0.8222175 0.5431103 -0.1702633 150 150 150 255 0.540510 0.900608
0.03605118 0.1879779 0.06782125 -0.1988199 0.8501365 -0.4875844 150 150 150 255 0.549523 0.902352
0.03881684 0.1813718 0.06005879 0.0610895 0.6416125 -0.7645924 150 150 150 255 0.549114 0.910011
0.01932087 0.1396918 0.04372043 -0.8470587 0.03864919 -0.5300924 150 150 150 255 0.526573 0.939404
0.03615084 0.1432909 0.03673277 -0.08650076 0.4698246 -0.8785115 150 150 150 255 0.541862 0.940987
0.04332724 0.1378518 0.03405797 0.2164121 0.1234775 -0.9684623 150 150 150 255 0.547726 0.944769
0.05264511 0.1422279 0.0400836 0.713197 0.3714179 -0.5944736 150 150 150 255 0.553442 0.939724
0.05382195 0.1315498 0.05231382 0.9015453 -0.2122262 0.3770625 150 150 150 255 0.563366 0.943041
0.02331915 0.1293929 0.05575891 -0.83276 -0.2083188 0.5129465 150 150 150 255 0.514342 0.935772
0.001877211 0.00478793 -0.009362319 -0.665486 -0.7032607 0.2501056 150 150 150 255 0.267368 0.039718
0.01572313 0.5689478 0.02996648 0.5841899 0.648394 0.4881674 150 150 150 255 0.032857 0.451919
0.00446596 0.4573938 0.07155657 0.347734 0.1334339 0.9280498 150 150 150 255 0.012525 0.364980
0.01999082 0.0006629303 0.00710321 0.3843305 -0.8469524 0.3673715 150 150 150 255 0.118985 0.028503
0.008283995 0.06825687 0.0627712 0.1873705 -0.3620626 0.9131281 150 150 150 255 0.069891 0.072945
0.02096119 0.5666637 -0.00229604 0.5988216 0.7935348 -0.1082378 150 150 150 255 0.054435 0.464813
0.00606098 0.5788077 0.004306702 0.5664377 0.8240576 0.008803438 150 150 150 255 0.041028 0.472551
0.01999082 0.0006629303 0.00710321 0.4761258 -0.7385386 -0.4773521 150 150 150 255 0.214012 0.030876
0.02096119 0.5666637 -0.00229604 0.7434661 0.4947284 -0.4500022 150 150 150 255 0.156509 0.483754
0.03168287 0.5610708 0.01602154 0.7894635 0.5364193 -0.2983319 150 150 150 255 0.139304 0.482096
0.08160821 0.4803708 0.003031513 0.695935 0.5288086 -0.4858354 150 150 150 255 0.119327 0.409369
0.00606098 0.5788077 0.004306702 -0.2546603 0.967017 -0.005119206 150 150 150 255 0.329823 0.482067
-0.05352412 0.4968058 -0.04048909 -0.9135479 0.3333174 -0.2330875 150 150 150 255 0.274081 0.419595
0.1674 0.3567638 -0.07054721 0.06743783 0.6855775 0.7248694 150 150 150 255 0.031264 0.808097
0.1089548 0.2886958 -0.04829317 -0.5644135 0.3990414 0.7226364 150 150 150 255 0.015806 0.741123
0.0251378 -0.004671091 -0.008090829 -0.2654396 -0.4009686 0.876793 150 150 150 255 0.077840 0.508668
0.0295681 0.04989184 -0.01316891 -0.5956428 0.207685 0.775936 150 150 150 255 0.053821 0.544483
0.0251378 -0.004671091 -0.008090829 0.1316835 -0.9910266 0.0229314 150 150 150 255 0.162297 0.504321
0.1746971 0.2842068 -0.02781378 0.8614115 0.3309502 0.3852822 150 150 150 255 0.090513 0.772930
0.1674 0.3567638 -0.07054721 0.8690971 0.3166868 0.3799734 150 150 150 255 0.119422 0.840495
0.1882111 0.3100148 -0.08040631 0.7723756 0.22921 -0.5923671 150 150 150 255 0.160529 0.790428
-0.013445 -0.009143109 0.00907631 0.1037724 -0.5602709 0.8217833 150 150 150 255 0.895175 0.196249
-0.1040808 0.3270268 0.06004041 0.6058735 0.7713456 -0.1947904 150 150 150 255 0.729962 0.485103
-0.04648505 0.2403929 0.07658415 0.924191 0.3312961 0.1900369 150 150 150 255 0.704295 0.406068
-0.013445 -0.009143109 0.00907631 0.8331307 -0.4816684 -0.2718251 150 150 150 255 0.766807 0.203306
0.003754042 0.05014588 0.0473257 0.9812106 -0.0883401 0.1715281 150 150 150 255 0.727168 0.246893
-0.1040808 0.3270268 0.06004041 -0.3023033 0.5509902 -0.777832 150 150 150 255 0.846930 0.510665
-0.06735383 0.2564379 -0.004236484 -0.3347794 0.662284 -0.6703005 150 150 150 255 0.801571 0.435837
0.082508 0.2204918 0.1279468 -0.3728227 0.5759031 0.7275568 150 150 150 255 0.662618 0.730910
0.075982 0.1745999 0.1364753 -0.2742159 -0.03390863 0.9610702 150 150 150 255 0.682280 0.702165
0.01729479 -0.01761409 0.006111016 -0.8260016 -0.5149382 0.2292595 150 150 150 255 0.661402 0.521722
0.03555622 0.02256585 0.06217362 -0.4889497 -0.3867705 0.7818803 150 150 150 255 0.682280 0.566236
0.082508 0.2204918 0.1279468 0.1791863 0.9008222 -0.3954892 150 150 150 255 0.620151 0.737171
0.005265139 0.03642489 0.02866693 -0.8039786 -0.02962701 -0.5939198 150 150 150 255 0.628835 0.554955
0.01729479 -0.01761409 0.006111016 -0.8605952 0.03587136 -0.5080249 150 150 150 255 0.600718 0.513382
-0.08041488 0.1776589 -0.07183661 0.4692353 0.5467904 -0.6934252 150 150 150 255 0.798954 0.191126
-0.02235089 -0.003082151 -0.01802935 -0.705038 -0.6679457 0.2382646 150 150 150 255 0.873946 0.033594
-0.08041488 0.1776589 -0.07183661 0.4215002 0.8530725 0.3075792 150 150 150 255 0.740665 0.159997
-0.07011519 0.1374339 -0.03477263 0.205813 0.4470963 0.870486 150 150 150 255 0.741009 0.113480
-0.02235089 -0.003082151 -0.01802935 0.7693316 -0.2460564 0.5895635 150 150 150 255 0.810261 0.013989
-0.03741084 0.01743485 -0.005075345 0.3047844 0.03247613 0.9518675 150 150 150 255 0.786402 0.022555
-0.03908597 0.1432079 -0.06672344 0.4792548 0.67673 -0.5588841 150 150 150 255 0.786511 0.146136
0.007306002 0.3434008 -0.1384359 0.6452245 0.716479 0.2652231 150 150 150 255 0.276988 0.791327
-0.001103975 0.2786399 -0.07301781 0.3337317 0.4533016 0.8265234 150 150 150 255 0.266344 0.723503
0.001656912 -0.01050814 0.01151474 0.3631173 -0.6288253 0.6875497 150 150 150 255 0.353149 0.502927
-0.004901983 0.04482485 0.02637838 0.1780411 0.04209452 0.9831223 150 150 150 255 0.318202 0.530448
0.001656912 -0.01050814 0.01151474 0.1792888 -0.9782391 -0.1044217 150 150 150 255 0.420355 0.510520
0.04962292 0.2727478 -0.1194244 0.7568559 0.3174484 -0.5713105 150 150 150 255 0.338455 0.760321
0.007306002 0.3434008 -0.1384359 0.7564367 0.3026786 -0.5798182 150 150 150 255 0.362156 0.829524
0.01027098 0.2955097 -0.1587688 -0.1314778 0.1724803 -0.9761989 150 150 150 255 0.406882 0.783439
-9.30801e-05 -0.008555168 0.01719312 0.05464411 0.103893 -0.9930862 150 150 150 255 0.662772 0.892062
-0.01021586 0.07373586 0.06673278 -0.8346676 0.255208 0.4880563 150 150 150 255 0.597005 0.953995
-0.01660977 0.05510689 0.04597366 -0.9863296 0.08931089 -0.1384829 150 150 150 255 0.596657 0.931629
-9.30801e-05 -0.008555168 0.01719312 -0.6239011 -0.7467191 -0.2305602 150 150 150 255 0.629072 0.883698
-0.01081906 0.00897182 0.01843653 -0.8963744 -0.2335234 -0.3768021 150 150 150 255 0.615139 0.892482
-0.01227198 0.04602493 0.06675464 -0.1126195 0.1272184 0.9854605 150 150 150 255 0.619257 0.947026
-0.01021586 0.07373586 0.06673278 0.04755589 0.04971501 0.9976307 150 150 150 255 0.625604 0.969960
0.001645945 0.05744089 0.06533036 0.6424735 0.4248555 0.6377505 150 150 150 255 0.640376 0.954285
0.06073323 0.03580691 -0.02065149 -0.1436662 -0.8027537 0.5787457 150 150 150 255 0.318493 0.855574
0.09275714 0.1353578 0.03726917 0.9070481 0.415291 -0.06926117 150 150 150 255 0.272689 0.972162
0.09487811 0.1009269 0.02924052 0.9697391 -0.2297558 0.08257338 150 150 150 255 0.259014 0.944324
0.06073323 0.03580691 -0.02065149 0.4936946 -0.6505554 -0.5770991 150 150 150 255 0.271286 0.865034
0.07681409 0.04539086 -0.003365854 0.8141084 -0.5756733 -0.07634012 150 150 150 255 0.259014 0.884297
0.090794 0.1187059 0.007240577 0.2301743 0.89693 -0.3775399 150 150 150 255 0.296466 0.950251
0.09275714 0.1353578 0.03726917 0.06341077 0.8953865 -0.4407517 150 150 150 255 0.318000 0.975250
0.07546893 0.1265448 0.02149635 -0.511662 0.8534254 0.099333 150 150 150 255 0.327244 0.946852
0.005444907 -0.02018305 -0.04068777 -0.5608397 0.007862523 0.8278871 150 150 150 255 0.449142 0.860169
0.05959883 0.1005169 -0.07504371 0.892588 0.2246294 0.3909327 150 150 150 255 0.401942 0.979477
0.04473009 0.0748979 -0.05382669 0.4580357 0.1449105 0.8770429 150 150 150 255 0.390022 0.953014
0.005444907 -0.02018305 -0.04068777 0.3101193 -0.5661381 0.7637498 150 150 150 255 0.399011 0.870842
0.01450004 0.007211931 -0.03481399 0.2453037 -0.09180266 0.9650899 150 150 150 255 0.390022 0.891379
0.05969897 0.06193389 -0.06951328 0.985414 -0.008205575 -0.1699763 150 150 150 255 0.412483 0.951501
0.1308421 0.3358388 0.02433399 0.5850018 0.5349974 0.6095496 150 150 150 255 0.662618 0.730910
0.150658 0.2948658 0.01209049 0.9542188 0.09504741 0.2836061 150 150 150 255 0.682280 0.702165
0.08342686 0.07366289 -0.02181204 0.3683276 -0.7478498 0.5523183 150 150 150 255 0.661402 0.521722
0.1180762 0.1263429 -0.01632898 0.8802047 -0.3297337 0.3413436 150 150 150 255 0.682280 0.566236
0.1308421 0.3358388 0.02433399 -0.6126759 0.7689692 0.1825232 150 150 150 255 0.620151 0.737171
0.08396617 0.1180679 0.01529843 -0.5392585 -0.5476125 0.6397819 150 150 150 255 0.628835 0.554955
0.08342686 0.07366289 -0.02181204 -0.5506654 -0.5349682 0.6407626 150 150 150 255 0.600718 0.513382
0.01522102 0.05135692 0.03339822 0.7564119 -0.5383192 -0.3715556 150 150 150 255 0.930001 0.665377
0.02538099 0.07247986 0.05800584 0.9218368 -0.314038 0.22715 150 150 150 255 0.949257 0.649411
-0.007773973 0.2296358 0.1089149 0.7099611 0.7040572 0.01608954 150 150 150 255 0.971437 0.522337
0.009892844 0.1877319 0.1050729 0.948852 0.1149742 0.2940423 150 150 150 255 0.976097 0.555534
0.01522102 0.05135692 0.03339822 -0.4860646 -0.4874058 -0.7253805 150 150 150 255 0.899327 0.661367
0.003941916 0.2057398 0.07677172 0.002581581 0.8121598 -0.5834293 150 150 150 255 0.941215 0.536964
-0.007773973 0.2296358 0.1089149 -0.007642857 0.8041036 -0.5944401 150 150 150 255 0.930238 0.502907
-0.02006922 0.2159408 0.09093398 -0.8346369 0.5321516 -0.1421127 150 150 150 255 0.907846 0.524876
0.03953114 0.1936318 0.08383769 0.7465647 0.1065454 0.6567262 150 150 150 255 0.568698 0.892062
0.03562298 0.1079448 0.03944453 -0.7192274 -0.6760486 0.1602192 150 150 150 255 0.502929 0.953995
0.03772679 0.1252148 0.06216387 -0.4598073 -0.4862484 0.7430611 150 150 150 255 0.502582 0.931629
0.03953114 0.1936318 0.08383769 -0.5413672 0.4258115 0.7249871 150 150 150 255 0.534998 0.883698
0.03982678 0.1732628 0.08680515 -0.3846909 -0.1203678 0.9151637 150 150 150 255 0.521064 0.892482
0.02240887 0.1314759 0.04606048 -0.6764084 -0.3343957 -0.6562403 150 150 150 255 0.525183 0.947026
0.03562298 0.1079448 0.03944453 -0.621987 -0.1980518 -0.7575669 150 150 150 255 0.531529 0.969959
0.03664722 0.1277518 0.03559703 0.1392719 -0.2052898 -0.9687412 150 150 150 255 0.546302 0.954286
3 0 1 2 
3 0 2 3 
3 4 5 6 
3 7 8 9 
3 7 9 10 
3 299 11 5 
3 12 13 5 
3 12 5 11 
3 14 300 301 
3 14 301 15 
3 16 17 18 
3 12 18 17 
3 19 14 15 
3 19 15 20 
3 302 21 303 
3 304 305 19 
3 22 23 24 
3 25 22 24 
3 25 24 26 
3 302 22 21 
3 306 23 22 
3 24 6 5 
3 24 5 13 
3 10 26 27 
3 10 27 7 
3 23 6 24 
3 307 308 309 
3 307 309 10 
3 11 18 12 
3 1 310 311 
3 1 311 2 
3 4 6 23 
3 4 23 306 
3 16 18 11 
3 16 11 299 
3 27 13 12 
3 27 12 28 
3 26 24 13 
3 26 13 27 
3 15 29 25 
3 15 25 20 
3 15 301 29 
3 301 303 21 
3 301 21 29 
3 29 21 22 
3 29 22 25 
3 28 12 17 
3 28 17 3 
3 311 27 28 
3 311 28 2 
3 2 28 3 
3 30 31 32 
3 33 34 35 
3 36 37 38 
3 39 40 41 
3 42 43 44 
3 42 44 45 
3 30 32 46 
3 47 48 49 
3 42 49 48 
3 312 313 50 
3 314 51 315 
3 312 50 52 
3 53 54 55 
3 56 53 55 
3 56 55 57 
3 314 53 51 
3 316 54 53 
3 55 54 44 
3 55 44 43 
3 37 317 56 
3 58 59 60 
3 31 61 62 
3 45 49 42 
3 318 317 37 
3 318 37 36 
3 44 54 316 
3 31 30 319 
3 31 319 61 
3 47 49 45 
3 47 45 44 
3 319 38 61 
3 62 43 42 
3 62 42 63 
3 57 55 43 
3 57 43 62 
3 38 57 62 
3 38 62 61 
3 37 56 57 
3 37 57 38 
3 50 64 56 
3 50 56 52 
3 50 313 64 
3 313 315 51 
3 313 51 64 
3 64 51 53 
3 64 53 56 
3 63 42 48 
3 63 48 46 
3 31 62 63 
3 31 63 32 
3 32 63 46 
3 65 66 67 
3 68 69 70 
3 65 71 66 
3 39 41 72 
3 73 74 69 
3 65 67 75 
3 76 73 69 
3 76 69 320 
3 321 322 77 
3 323 78 324 
3 321 77 79 
3 80 81 82 
3 83 80 82 
3 83 82 84 
3 323 80 78 
3 68 81 80 
3 82 70 69 
3 82 69 74 
3 71 84 85 
3 71 85 66 
3 81 70 82 
3 325 326 71 
3 86 58 60 
3 86 60 87 
3 68 70 81 
3 327 88 328 
3 85 74 73 
3 85 73 89 
3 84 82 74 
3 84 74 85 
3 77 90 83 
3 77 83 79 
3 77 322 90 
3 322 324 78 
3 322 78 90 
3 90 78 80 
3 90 80 83 
3 89 73 76 
3 89 76 75 
3 66 85 89 
3 66 89 67 
3 67 89 75 
3 329 330 91 
3 329 91 92 
3 93 94 95 
3 96 93 95 
3 96 95 97 
3 327 93 88 
3 331 94 93 
3 95 94 60 
3 95 60 59 
3 34 332 96 
3 40 98 99 
3 333 332 34 
3 333 34 33 
3 60 94 331 
3 40 39 33 
3 40 33 98 
3 33 35 98 
3 99 59 58 
3 99 58 100 
3 97 95 59 
3 97 59 99 
3 35 97 99 
3 35 99 98 
3 34 96 97 
3 34 97 35 
3 91 101 96 
3 91 96 92 
3 91 330 101 
3 330 328 88 
3 330 88 101 
3 101 88 93 
3 101 93 96 
3 100 58 86 
3 100 86 72 
3 40 99 100 
3 40 100 41 
3 41 100 72 
3 102 103 104 
3 105 106 107 
3 334 108 109 
3 110 111 106 
3 102 104 112 
3 113 110 106 
3 113 106 335 
3 336 337 114 
3 338 115 339 
3 336 114 116 
3 117 118 119 
3 120 117 119 
3 120 119 121 
3 338 117 115 
3 105 118 117 
3 119 107 106 
3 119 106 111 
3 108 340 120 
3 118 107 119 
3 103 122 123 
3 334 340 108 
3 105 107 118 
3 103 102 122 
3 102 109 122 
3 123 111 110 
3 123 110 124 
3 121 119 111 
3 121 111 123 
3 109 121 123 
3 109 123 122 
3 108 120 121 
3 108 121 109 
3 114 125 120 
3 114 120 116 
3 114 337 125 
3 337 339 115 
3 337 115 125 
3 125 115 117 
3 125 117 120 
3 124 110 113 
3 124 113 112 
3 103 123 124 
3 103 124 104 
3 104 124 112 
3 126 127 128 
3 129 130 131 
3 132 133 134 
3 132 134 135 
3 126 128 136 
3 137 138 139 
3 132 139 138 
3 341 342 140 
3 343 141 344 
3 341 140 142 
3 143 144 145 
3 146 143 145 
3 146 145 147 
3 343 143 141 
3 345 144 143 
3 145 144 134 
3 145 134 133 
3 130 346 146 
3 127 148 149 
3 135 139 132 
3 347 346 130 
3 347 130 129 
3 134 144 345 
3 127 126 348 
3 127 348 148 
3 137 139 135 
3 137 135 134 
3 348 131 148 
3 149 133 132 
3 149 132 150 
3 147 145 133 
3 147 133 149 
3 131 147 149 
3 131 149 148 
3 130 146 147 
3 130 147 131 
3 140 151 146 
3 140 146 142 
3 140 342 151 
3 342 344 141 
3 342 141 151 
3 151 141 143 
3 151 143 146 
3 150 132 138 
3 150 138 136 
3 127 149 150 
3 127 150 128 
3 128 150 136 
3 152 153 154 
3 155 156 157 
3 158 159 160 
3 161 162 156 
3 152 154 163 
3 164 161 156 
3 164 156 349 
3 350 351 165 
3 352 166 353 
3 350 165 167 
3 168 169 170 
3 171 168 170 
3 171 170 172 
3 352 168 166 
3 155 169 168 
3 170 157 156 
3 170 156 162 
3 159 354 171 
3 169 157 170 
3 153 173 174 
3 355 354 159 
3 355 159 158 
3 155 157 169 
3 153 152 356 
3 153 356 173 
3 356 160 173 
3 174 162 161 
3 174 161 175 
3 172 170 162 
3 172 162 174 
3 160 172 174 
3 160 174 173 
3 159 171 172 
3 159 172 160 
3 165 176 171 
3 165 171 167 
3 165 351 176 
3 351 353 166 
3 351 166 176 
3 176 166 168 
3 176 168 171 
3 175 161 164 
3 175 164 163 
3 153 174 175 
3 153 175 154 
3 154 175 163 
3 177 178 179 
3 180 181 182 
3 183 184 185 
3 186 187 181 
3 177 179 188 
3 189 186 181 
3 189 181 357 
3 358 359 190 
3 360 191 361 
3 358 190 192 
3 193 194 195 
3 196 193 195 
3 196 195 197 
3 360 193 191 
3 180 194 193 
3 195 182 181 
3 195 181 187 
3 184 362 196 
3 194 182 195 
3 178 198 199 
3 363 362 184 
3 363 184 183 
3 180 182 194 
3 178 177 364 
3 178 364 198 
3 364 185 198 
3 199 187 186 
3 199 186 200 
3 197 195 187 
3 197 187 199 
3 185 197 199 
3 185 199 198 
3 184 196 197 
3 184 197 185 
3 190 201 196 
3 190 196 192 
3 190 359 201 
3 359 361 191 
3 359 191 201 
3 201 191 193 
3 201 193 196 
3 200 186 189 
3 200 189 188 
3 178 199 200 
3 178 200 179 
3 179 200 188 
3 202 203 204 
3 205 206 207 
3 202 208 209 
3 210 211 206 
3 202 204 212 
3 213 210 206 
3 213 206 365 
3 366 367 214 
3 368 215 369 
3 366 214 370 
3 216 217 218 
3 219 216 218 
3 219 218 220 
3 368 216 215 
3 205 217 216 
3 218 207 206 
3 218 206 211 
3 209 208 219 
3 217 207 218 
3 203 221 222 
3 221 202 209 
3 221 209 223 
3 205 207 217 
3 203 202 221 
3 222 211 210 
3 222 210 224 
3 220 218 211 
3 220 211 222 
3 223 220 222 
3 223 222 221 
3 209 219 220 
3 209 220 223 
3 214 225 219 
3 214 219 370 
3 214 367 225 
3 367 369 215 
3 367 215 225 
3 225 215 216 
3 225 216 219 
3 224 210 213 
3 224 213 212 
3 203 222 224 
3 203 224 204 
3 204 224 212 
3 300 19 305 
3 310 1 0 
3 300 14 19 
3 83 84 71 
3 83 71 326 
3 25 26 10 
3 25 10 309 
3 226 227 228 
3 229 230 231 
3 232 233 234 
3 229 231 235 
3 236 232 234 
3 236 234 237 
3 371 238 372 
3 373 374 239 
3 373 239 240 
3 241 242 243 
3 244 241 243 
3 244 243 245 
3 371 241 238 
3 375 242 241 
3 243 242 234 
3 243 234 233 
3 227 376 244 
3 230 246 247 
3 377 376 227 
3 377 227 226 
3 234 242 375 
3 230 229 226 
3 230 226 246 
3 226 228 246 
3 247 233 232 
3 247 232 248 
3 245 243 233 
3 245 233 247 
3 228 245 247 
3 228 247 246 
3 227 244 245 
3 227 245 228 
3 239 249 244 
3 239 244 240 
3 239 374 249 
3 374 372 238 
3 374 238 249 
3 249 238 241 
3 249 241 244 
3 248 232 236 
3 248 236 235 
3 230 247 248 
3 230 248 231 
3 231 248 235 
3 250 251 252 
3 253 254 255 
3 256 257 258 
3 253 255 259 
3 260 256 258 
3 260 258 261 
3 378 262 379 
3 380 381 263 
3 380 263 264 
3 265 266 267 
3 268 265 267 
3 268 267 269 
3 378 265 262 
3 382 266 265 
3 267 266 258 
3 267 258 257 
3 251 383 268 
3 254 270 271 
3 384 383 251 
3 384 251 250 
3 258 266 382 
3 254 253 385 
3 254 385 270 
3 385 252 270 
3 271 257 256 
3 271 256 272 
3 269 267 257 
3 269 257 271 
3 252 269 271 
3 252 271 270 
3 251 268 269 
3 251 269 252 
3 263 273 268 
3 263 268 264 
3 263 381 273 
3 381 379 262 
3 381 262 273 
3 273 262 265 
3 273 265 268 
3 272 256 260 
3 272 260 259 
3 254 271 272 
3 254 272 255 
3 255 272 259 
3 274 275 276 
3 277 278 279 
3 280 281 282 
3 283 284 278 
3 274 276 285 
3 286 283 278 
3 286 278 386 
3 387 388 287 
3 389 288 390 
3 387 287 289 
3 290 291 292 
3 293 290 292 
3 293 292 294 
3 389 290 288 
3 277 291 290 
3 292 279 278 
3 292 278 284 
3 281 391 293 
3 291 279 292 
3 275 295 296 
3 392 391 281 
3 392 281 280 
3 277 279 291 
3 275 274 393 
3 275 393 295 
3 393 282 295 
3 296 284 283 
3 296 283 297 
3 294 292 284 
3 294 284 296 
3 282 294 296 
3 282 296 295 
3 281 293 294 
3 281 294 282 
3 287 298 293 
3 287 293 289 
3 287 388 298 
3 388 390 288 
3 388 288 298 
3 298 288 290 
3 298 290 293 
3 297 283 286 
3 297 286 285 
3 275 296 297 
3 275 297 276 
3 276 297 285 
