ply
format ascii 1.0
comment VCGLIB generated
element vertex 283
property float x
property float y
property float z
property float nx
property float ny
property float nz
property uchar red
property uchar green
property uchar blue
property uchar alpha
property float texture_u
property float texture_v
element face 420
property list uchar int vertex_indices
end_header
-0.3946313 0.3374524 -0.08744881 0.6878045 0.7076036 0.1619328 255 255 0 255 0.918061 0.307842
-0.409826 0.3392857 -0.0933919 -0.3313785 0.9412021 -0.06577915 255 255 0 255 0.921059 0.307842
-0.4113919 0.3392857 0.09712683 -0.3027702 0.9390529 0.1628183 255 255 0 255 0.921059 0.345342
-0.3961 0.3374524 0.09126651 0.6336342 0.712891 -0.3004898 255 255 0 255 0.918061 0.345342
-0.3055378 0.3392857 0.2324395 -0.08414228 0.9122376 0.4009275 255 255 0 255 0.921059 0.372113
-0.2968041 0.3374524 0.2181961 0.1896042 0.7577447 -0.6243983 255 255 0 255 0.918061 0.372113
-0.290415 0.3374524 -0.2132611 0.3754479 0.7435695 0.5533023 255 255 0 255 0.918061 0.281071
-0.2987268 0.3392857 -0.2275134 -0.2137289 0.9286591 -0.3031703 255 255 0 255 0.921059 0.281072
-0.3683428 0.02455848 -0.08403431 -0.6682496 -0.6602541 -0.3427931 255 255 0 255 0.983707 0.307842
-0.415076 0.07733086 -0.09457611 -0.8678591 -0.3663388 -0.3355838 255 255 0 255 0.971169 0.307842
-0.3026102 0.07733086 -0.2303475 -0.3761402 -0.323557 -0.8682336 255 255 0 255 0.971169 0.281072
-0.2680419 0.02455848 -0.2051198 -0.2125051 -0.5312597 -0.8201249 255 255 0 255 0.983707 0.281072
-0.2741909 0.02455848 0.2101279 -0.436031 -0.6078602 0.6636136 255 255 0 255 0.983707 0.372113
-0.309505 0.07733086 0.2352633 -0.4179836 -0.2857447 0.8623455 255 255 0 255 0.971169 0.372113
-0.4166611 0.07733086 0.09828614 -0.8869838 -0.3605708 0.2885282 255 255 0 255 0.971169 0.345342
-0.3697565 0.02455848 0.08796692 -0.722239 -0.6730682 0.1592176 255 255 0 255 0.983707 0.345342
0.01697649 0.02455848 0.210508 -2.328308e-10 -0.4306557 0.9025163 255 255 0 255 0.983707 0.423007
0.01697649 0.07733089 0.2356895 -2.182076e-10 -0.1467666 0.9891712 255 255 0 255 0.971169 0.423007
0.01697649 0.3073274 0.2356895 -1.57383e-10 -0.2332176 0.9724246 255 255 0 255 0.928427 0.423007
-0.309505 0.3073274 0.2352633 -0.4038703 -0.2689222 0.8743968 255 255 0 255 0.928427 0.372112
-0.4166611 0.3073274 0.09828614 -0.8977465 -0.3051357 0.317716 255 255 0 255 0.928427 0.345342
-0.415076 0.3073274 -0.09457611 -0.8994679 -0.2976675 -0.3199242 255 255 0 255 0.928427 0.307842
0.01697649 0.3374524 -0.2128661 -0.0008559683 0.7382501 0.6745266 255 255 0 255 0.918061 0.230177
0.01697649 0.3392857 -0.2270924 0.0008824026 0.7498437 -0.6616144 255 255 0 255 0.921059 0.230177
-0.3026102 0.3073274 -0.2303475 -0.4115103 -0.2290964 -0.8821418 255 255 0 255 0.928427 0.281072
0.01697649 0.3224527 0.2412495 2.091602e-11 0.1965744 0.9804889 255 255 0 255 0.925128 0.423007
-0.3173021 0.3224527 0.240813 -0.4010604 0.1124613 0.9091221 255 255 0 255 0.925128 0.372112
0.01697649 0.3392857 0.2328607 5.791596e-12 0.9670136 0.2547249 255 255 0 255 0.921059 0.423007
-0.4270173 0.3224527 0.1005645 -0.9396285 0.08393619 0.3317426 255 255 0 255 0.925127 0.345342
-0.4253944 0.3224527 -0.0969037 -0.937314 0.06966308 -0.3414521 255 255 0 255 0.925128 0.307842
-0.3102426 0.3224527 -0.2359177 -0.4025999 0.02861508 -0.9149287 255 255 0 255 0.925128 0.281072
-0.2680419 0.001676202 -0.2051198 -0.1886586 -0.737487 -0.6484759 255 255 0 255 0.674537 0.323536
-0.3683428 0.001676202 -0.08403431 -0.7302109 -0.5749289 -0.369119 255 255 0 255 0.657152 0.344360
-0.3697565 0.001676202 0.08796692 -0.92254 -0.3309492 0.1984757 255 255 0 255 0.656795 0.374034
-0.2741909 0.001676202 0.2101279 -0.3884898 -0.7392498 0.5500777 255 255 0 255 0.673202 0.395173
0.01697649 0.02455848 -0.2047397 2.910386e-10 0 -1 255 255 0 255 0.723725 0.319719
0.01697649 0.001676202 -0.2047397 2.057953e-10 -0.7071071 -0.7071065 255 255 0 255 0.723709 0.323790
0.01697649 0.3224527 -0.2354813 0.001328526 -0.08767854 -0.9961479 255 255 0 255 0.925127 0.230177
0.01697649 0.3073274 -0.2299213 0.001324415 -0.1166082 -0.9931771 255 255 0 255 0.928427 0.230177
0.01697649 0.07733089 -0.2299213 0.001274873 -0.2935337 -0.9559479 255 255 0 255 0.971169 0.230177
0.01697649 0.001676202 0.210508 -2.057953e-10 -0.7071071 0.7071065 255 255 0 255 0.723435 0.395431
0.01697649 0.3374524 0.218591 0 0.7387265 -0.6740053 255 255 0 255 0.918061 0.423007
-0.2919396 0.3100361 -0.2071761 0.2778239 0.1932335 0.9409967 255 255 0 255 0.913643 0.281603
0.01697649 0.3100361 -0.2067923 -0.00121279 0.2162924 0.9763279 255 255 0 255 0.913838 0.230176
-0.3932124 0.3100361 -0.0849172 0.8892792 0.08747575 0.4489216 255 255 0 255 0.912900 0.308245
-0.3946397 0.3100361 0.08875059 0.9752637 0.07115189 -0.20928 255 255 0 255 0.913058 0.344973
-0.2981483 0.3100361 0.2120953 0.5735119 0.1510475 -0.8051514 255 255 0 255 0.913656 0.371575
0.01697649 0.3100361 0.2124791 -2.910385e-11 0.2173711 -0.9760891 255 255 0 255 0.913929 0.423007
0.4285846 0.3374524 -0.08744881 -0.6878046 0.7076035 0.1619325 255 255 0 255 0.918061 0.538173
0.4300532 0.3374524 0.09126651 -0.633634 0.7128912 -0.3004899 255 255 0 255 0.918061 0.500673
0.4453452 0.3392857 0.09712683 0.3027701 0.939053 0.1628184 255 255 0 255 0.921059 0.500673
0.4437792 0.3392857 -0.0933919 0.3313773 0.9412026 -0.06577878 255 255 0 255 0.921059 0.538173
0.3307571 0.3374524 0.2181961 -0.1896042 0.7577447 -0.6243983 255 255 0 255 0.918061 0.473902
0.3394909 0.3392857 0.2324395 0.08414235 0.9122375 0.4009275 255 255 0 255 0.921059 0.473902
0.3243682 0.3374524 -0.2132611 -0.3754476 0.7435697 0.5533022 255 255 0 255 0.918061 0.564943
0.33268 0.3392857 -0.2275134 0.2137285 0.9286594 -0.3031698 255 255 0 255 0.921059 0.564943
0.4022961 0.02455848 -0.08403431 0.6682503 -0.6602533 -0.3427932 255 255 0 255 0.983707 0.538173
0.301995 0.02455848 -0.2051198 0.2125053 -0.5312594 -0.820125 255 255 0 255 0.983707 0.564943
0.3365633 0.07733086 -0.2303475 0.3761403 -0.3235566 -0.8682336 255 255 0 255 0.971169 0.564943
0.4490292 0.07733086 -0.09457611 0.8678591 -0.3663386 -0.3355839 255 255 0 255 0.971169 0.538173
0.3081441 0.02455848 0.2101279 0.4360308 -0.6078606 0.6636133 255 255 0 255 0.983707 0.473902
0.4037097 0.02455848 0.08796692 0.7222388 -0.6730683 0.1592174 255 255 0 255 0.983707 0.500673
0.4506145 0.07733086 0.09828614 0.8869838 -0.3605712 0.2885278 255 255 0 255 0.971169 0.500673
0.3434582 0.07733086 0.2352633 0.4179836 -0.2857447 0.8623455 255 255 0 255 0.971169 0.473902
0.3434582 0.3073274 0.2352633 0.4038706 -0.2689213 0.8743969 255 255 0 255 0.928427 0.473902
0.4490292 0.3073274 -0.09457611 0.8994672 -0.2976699 -0.3199241 255 255 0 255 0.928427 0.538173
0.4506145 0.3073274 0.09828614 0.8977462 -0.3051366 0.3177159 255 255 0 255 0.928427 0.500673
0.3365633 0.3073274 -0.2303475 0.41151 -0.2290971 -0.8821418 255 255 0 255 0.928427 0.564943
0.3512552 0.3224527 0.240813 0.4010604 0.1124621 0.909122 255 255 0 255 0.925128 0.473902
0.4593477 0.3224527 -0.0969037 0.937314 0.06966259 -0.3414522 255 255 0 255 0.925128 0.538173
0.4609706 0.3224527 0.1005645 0.9396282 0.08393766 0.3317431 255 255 0 255 0.925127 0.500673
0.3441958 0.3224527 -0.2359177 0.4025996 0.02861354 -0.9149289 255 255 0 255 0.925128 0.564943
0.4022961 0.001676202 -0.08403431 0.730211 -0.5749289 -0.3691189 255 255 0 255 0.790107 0.344869
0.301995 0.001676202 -0.2051198 0.1886586 -0.737487 -0.6484759 255 255 0 255 0.772882 0.323913
0.3081441 0.001676202 0.2101279 0.3884899 -0.7392499 0.5500776 255 255 0 255 0.773669 0.395557
0.4037097 0.001676202 0.08796692 0.92254 -0.3309491 0.198476 255 255 0 255 0.790237 0.374545
0.3258927 0.3100361 -0.2071761 -0.2778236 0.1932347 0.9409965 255 255 0 255 0.913643 0.564412
0.4271657 0.3100361 -0.0849172 -0.8892791 0.08747693 0.4489215 255 255 0 255 0.912900 0.537770
0.4285929 0.3100361 0.08875059 -0.9752636 0.07115187 -0.2092805 255 255 0 255 0.913058 0.501042
0.3321013 0.3100361 0.2120953 -0.5735119 0.1510475 -0.8051514 255 255 0 255 0.913656 0.474440
-0.4166611 0.3926636 0.09828614 -0.8785269 0.3582677 0.3159664 255 255 0 255 0.472245 0.603195
-0.3964354 0.4162436 0.09383643 -0.6160152 0.754454 0.226549 255 255 0 255 0.477196 0.603923
-0.3949242 0.4162436 -0.09003041 -0.6199219 0.753253 -0.219788 255 255 0 255 0.477848 0.637641
-0.415076 0.3926637 -0.09457611 -0.8836409 0.3505051 -0.3103625 255 255 0 255 0.473047 0.638542
-0.287704 0.4162438 -0.2194691 -0.2973769 0.6628979 -0.6871197 255 255 0 255 0.498287 0.661014
-0.3026102 0.3926637 -0.2303475 -0.7519951 0.2155988 -0.622913 255 255 0 255 0.492626 0.665141
-0.309505 0.3926636 0.2352633 -0.7090921 0.4352883 0.5547184 255 255 0 255 0.490126 0.576058
-0.2942772 0.4162436 0.2244246 -0.2790506 0.6706192 0.6873141 255 255 0 255 0.495967 0.580020
0.01697649 0.3720506 0.2356895 -2.360744e-10 0.1166079 0.993178 255 255 0 255 0.548634 0.569127
0.01697649 0.3926636 0.2356895 -2.377245e-10 0.2847136 0.9586126 255 255 0 255 0.548693 0.572604
-0.309505 0.3720506 0.2352633 -0.001269665 0.2332165 0.972424 255 255 0 255 0.492880 0.572107
-0.4166611 0.3720507 0.09828614 -0.9059783 0.2991764 0.2994943 255 255 0 255 0.469041 0.602554
-0.415076 0.3720507 -0.09457611 -0.8904719 0.3046645 -0.3379931 255 255 0 255 0.469591 0.639428
0.01697649 0.3347899 -0.2133016 -7.158684e-12 -0.6046063 0.7965245 255 255 0 255 0.550490 0.678926
0.01697649 0.3485435 -0.2112479 0 -0.1476866 0.9890342 255 255 0 255 0.550531 0.681324
-0.2905029 0.3485434 -0.2116399 -0.001266768 -0.1478194 0.9890136 255 255 0 255 0.497437 0.680457
-0.2906502 0.3347892 -0.2136977 -0.0001625599 -0.991042 0.1335512 255 255 0 255 0.497451 0.678055
-0.396549 0.3347892 0.09144592 0.4447746 -0.8512412 -0.2785032 255 255 0 255 0.457577 0.600164
-0.3953929 0.3485433 0.09059691 0.9732971 -0.09471836 -0.209096 255 255 0 255 0.454639 0.599624
-0.2968439 0.3485433 0.2165717 0.7833814 -0.1036768 -0.6128333 255 255 0 255 0.471321 0.567352
-0.2970523 0.3347892 0.2186322 0.1307892 -0.9861165 -0.1023154 255 255 0 255 0.474028 0.568402
-0.3939352 0.3485435 -0.0867741 0.8879619 -0.101679 0.4485366 255 255 0 255 0.456103 0.642927
-0.3950773 0.3347892 -0.08763101 0.5237662 -0.8496489 0.06136524 255 255 0 255 0.459130 0.642230
0.01697649 0.4645616 0.1858815 1.965493e-11 0.7870044 0.6169474 255 255 0 255 0.548948 0.587698
0.01697649 0.494143 0.1378331 -7.775998e-11 0.8942532 0.4475614 255 255 0 255 0.549111 0.597332
-0.1722732 0.494143 0.137586 -0.1549056 0.9164832 0.3688668 255 255 0 255 0.518443 0.597954
-0.2396553 0.4645616 0.1855465 -0.1752608 0.8460175 0.5035256 255 255 0 255 0.506901 0.589588
-0.3238857 0.4645616 0.07787512 -0.403686 0.9014178 0.1564722 255 255 0 255 0.492478 0.607583
-0.2343879 0.4941431 0.05818532 -0.333179 0.9363669 0.110494 255 255 0 255 0.508348 0.611148
-0.2334692 0.4941431 -0.05361012 -0.3240507 0.9376772 -0.12551 255 255 0 255 0.508842 0.629549
-0.3226398 0.4645616 -0.0737249 -0.409055 0.9016895 -0.1401078 255 255 0 255 0.493224 0.633568
0.01697649 0.4162436 0.224831 -5.860398e-11 0.561617 0.8273974 255 255 0 255 0.548767 0.576949
-0.1682765 0.4941431 -0.1323119 -0.1420797 0.9277136 -0.3451967 255 255 0 255 0.519843 0.642245
-0.2342357 0.4645617 -0.1804483 -0.203403 0.8496127 -0.4866062 255 255 0 255 0.508769 0.651031
-0.1549679 0.4941431 -0.1039576 0.1073509 0.9814637 0.1587604 255 255 0 255 0.522100 0.637217
-0.2052162 0.4941431 -0.04329684 0.2886032 0.9550185 0.06817528 255 255 0 255 0.513847 0.627589
-0.2059708 0.4941431 0.04852104 0.2152715 0.9711785 -0.1023257 255 255 0 255 0.513475 0.612812
-0.1584492 0.494143 0.1092675 0.05513684 0.9816521 -0.1825351 255 255 0 255 0.520959 0.602904
-0.3026102 0.3720507 -0.2303475 -0.7169027 0.3652387 -0.5938445 255 255 0 255 0.488564 0.667921
-0.2201794 0.5004731 0.05335318 0.01579249 0.9987965 0.04643641 255 255 0 255 0.510916 0.611981
-0.1653612 0.500473 0.1234268 0.05842694 0.9978842 0.02852333 255 255 0 255 0.519705 0.600441
-0.2193426 0.5004731 -0.04845347 -0.01709344 0.9987566 0.04683062 255 255 0 255 0.511352 0.628568
-0.1616222 0.5004731 -0.1181347 -0.05732669 0.9979928 0.02690891 255 255 0 255 0.520975 0.639720
0.01697649 0.5004731 -0.1178966 -4.203829e-11 0.9890919 -0.1472996 255 255 0 255 0.549820 0.639253
0.01697649 0.4941431 -0.1320649 -1.2636e-10 0.8737258 -0.4864188 255 255 0 255 0.549862 0.641769
0.01697649 0.4941431 -0.1037284 5.045426e-12 0.9780133 0.2085425 255 255 0 255 0.549777 0.636712
-0.4253944 0.3569254 -0.0969037 -0.9315925 -0.08507731 -0.3534082 255 255 0 255 0.466571 0.639921
-0.4270173 0.3569254 0.1005645 -0.9448612 -0.07081673 0.3197224 255 255 0 255 0.465678 0.602118
-0.409826 0.3400924 -0.0933919 -0.4982044 -0.8412128 -0.2101274 255 255 0 255 0.462642 0.641454
-0.4113919 0.3400923 0.09712683 -0.5109532 -0.846374 0.1502591 255 255 0 255 0.461288 0.600746
0.01697649 0.3720507 -0.2299213 7.869147e-11 0.2332143 -0.9724253 255 255 0 255 0.550340 0.670038
0.01697649 0.3569255 -0.2354811 8.366393e-11 -0.1965738 -0.980489 255 255 0 255 0.550387 0.672792
-0.3102426 0.3569255 -0.2359176 0.001328526 0.08767654 -0.9961481 255 255 0 255 0.494160 0.671815
0.01697649 0.3400924 -0.2270924 -1.187062e-10 -0.8203201 -0.5719047 255 255 0 255 0.550441 0.676003
-0.2987268 0.3400924 -0.2275134 0.001016385 -0.6474874 -0.7620755 255 255 0 255 0.496102 0.675104
-0.3173021 0.3569252 0.240813 -0.7764114 0.1681482 0.607381 255 255 0 255 0.482892 0.571774
-0.3055378 0.3400923 0.2324395 -0.500534 -0.7721033 0.3915639 255 255 0 255 0.478332 0.569230
0.01697649 0.4645617 -0.1801133 5.896478e-11 0.7113791 -0.7028085 255 255 0 255 0.550025 0.651410
0.01697649 0.4162438 -0.2190628 1.562773e-10 0.4913716 -0.87095 255 255 0 255 0.550207 0.662176
0.01697649 0.3926637 -0.2299213 -1.981037e-11 0.1423563 -0.9898155 255 255 0 255 0.550281 0.666538
0.01697649 0.3400923 0.2328607 -2.064724e-11 -0.6476372 0.7619489 255 255 0 255 0.548534 0.563181
0.01697649 0.3569252 0.2412495 -2.091601e-11 0.08767853 0.9961488 255 255 0 255 0.548588 0.566381
0.01697649 0.500473 0.123665 4.203831e-11 0.9890921 -0.1472985 255 255 0 255 0.549154 0.599848
0.01697649 0.494143 0.1094967 9.337551e-11 0.9780135 -0.2085419 255 255 0 255 0.549197 0.602390
0.01697649 0.3485433 0.2169638 -2.910385e-11 -0.1483023 -0.9889421 255 255 0 255 0.548444 0.557868
0.01697649 0.3347884 0.2190283 -7.153997e-12 -0.9909793 -0.1340154 255 255 0 255 0.548484 0.560260
0.3310053 0.3347892 0.2186322 -0.0009973191 -0.6048738 -0.7963207 255 255 0 255 0.602479 0.561233
0.3394909 0.3400923 0.2324395 0.0007414408 -0.8205652 0.5715526 255 255 0 255 0.603885 0.564181
0.4506145 0.3926636 0.09828614 0.8785263 0.3582695 0.3159662 255 255 0 255 0.626131 0.600594
0.4490292 0.3926637 -0.09457611 0.8836409 0.3505047 -0.3103629 255 255 0 255 0.626525 0.635948
0.4288774 0.4162436 -0.09003041 0.6199211 0.7532538 -0.2197878 255 255 0 255 0.621696 0.635209
0.4303885 0.4162436 0.09383643 0.6160142 0.754455 0.2265485 255 255 0 255 0.621208 0.601488
0.3365633 0.3926637 -0.2303475 0.7519952 0.215598 -0.6229131 255 255 0 255 0.607857 0.663194
0.3216572 0.4162438 -0.2194691 0.2973771 0.6628977 -0.6871197 255 255 0 255 0.602059 0.659260
0.3434582 0.3926636 0.2352633 0.7090918 0.4352898 0.5547177 255 255 0 255 0.607344 0.574077
0.3282304 0.4162436 0.2244246 0.2790506 0.6706194 0.687314 255 255 0 255 0.601640 0.578234
0.3434582 0.3720506 0.2352633 0.001269665 0.2332165 0.972424 255 255 0 255 0.604458 0.570221
0.4506145 0.3720507 0.09828614 0.9059796 0.2991724 0.2994944 255 255 0 255 0.629312 0.599844
0.4490292 0.3720507 -0.09457611 0.8904721 0.3046642 -0.3379928 255 255 0 255 0.630009 0.636716
0.3246033 0.3347892 -0.2136977 0.0001625598 -0.991042 0.1335512 255 255 0 255 0.603471 0.676262
0.324456 0.3485434 -0.2116399 0.001266768 -0.1478194 0.9890136 255 255 0 255 0.603566 0.678662
0.4305022 0.3347892 0.09144592 -0.4447745 -0.8512414 -0.2785028 255 255 0 255 0.640689 0.597068
0.330797 0.3485433 0.2165717 -0.7833814 -0.1036768 -0.6128333 255 255 0 255 0.625844 0.564740
0.4293461 0.3485433 0.09059691 -0.9732975 -0.09471536 -0.2090958 255 255 0 255 0.643607 0.596430
0.4290304 0.3347892 -0.08763101 -0.5237687 -0.8496474 0.06136553 255 255 0 255 0.640559 0.639163
0.4278884 0.3485435 -0.0867741 -0.8879625 -0.1016738 0.4485366 255 255 0 255 0.643607 0.639758
0.2736082 0.4645616 0.1855465 0.1752607 0.8460175 0.5035257 255 255 0 255 0.591036 0.588166
0.2062263 0.494143 0.137586 0.1549045 0.9164839 0.3688658 255 255 0 255 0.579783 0.596917
0.3578389 0.4645616 0.07787512 0.4036862 0.9014178 0.1564721 255 255 0 255 0.606059 0.605663
0.3565929 0.4645616 -0.0737249 0.4090551 0.9016894 -0.1401078 255 255 0 255 0.606191 0.631658
0.2674222 0.4941431 -0.05361012 0.3240509 0.937677 -0.1255104 255 255 0 255 0.590447 0.628169
0.2683411 0.4941431 0.05818532 0.3331775 0.9363674 0.1104936 255 255 0 255 0.590318 0.609762
0.2681887 0.4645617 -0.1804483 0.2034029 0.8496128 -0.486606 255 255 0 255 0.591245 0.649637
0.2022294 0.4941431 -0.1323119 0.1420799 0.9277135 -0.345197 255 255 0 255 0.579881 0.641230
0.1889209 0.4941431 -0.1039576 -0.1073506 0.9814637 0.1587601 255 255 0 255 0.577455 0.636281
0.1924023 0.494143 0.1092675 -0.05513746 0.981652 -0.1825356 255 255 0 255 0.577435 0.601949
0.2399239 0.4941431 0.04852104 -0.2152743 0.9711778 -0.1023266 255 255 0 255 0.585250 0.611598
0.2391691 0.4941431 -0.04329684 -0.2886037 0.9550184 0.06817498 255 255 0 255 0.585378 0.626380
0.3365633 0.3720507 -0.2303475 0.7169019 0.3652413 -0.5938438 255 255 0 255 0.612010 0.665834
0.2541323 0.5004731 0.05335318 -0.01579607 0.9987965 0.04643507 255 255 0 255 0.587780 0.610681
0.199314 0.500473 0.1234268 -0.05842888 0.9978841 0.02852178 255 255 0 255 0.578605 0.599445
0.2532957 0.5004731 -0.04845347 0.0170931 0.9987566 0.04683018 255 255 0 255 0.587904 0.627274
0.1955751 0.5004731 -0.1181347 0.05732695 0.9979928 0.02690864 255 255 0 255 0.578664 0.638744
0.4609704 0.3569254 0.1005645 0.9448609 -0.07081928 0.3197224 255 255 0 255 0.632659 0.599295
0.4593477 0.3569254 -0.0969037 0.9315928 -0.08507616 -0.3534077 255 255 0 255 0.633043 0.637107
0.4453449 0.3400923 0.09712683 0.5109533 -0.846374 0.1502594 255 255 0 255 0.636999 0.597776
0.4437792 0.3400924 -0.0933919 0.4982025 -0.8412142 -0.2101264 255 255 0 255 0.637022 0.638506
0.3441958 0.3569255 -0.2359176 -0.001328526 0.08767653 -0.9961481 255 255 0 255 0.606548 0.669915
0.3326797 0.3400924 -0.2275134 -0.001016385 -0.6474874 -0.7620755 255 255 0 255 0.604719 0.673268
0.3512552 0.3569252 0.240813 0.7764122 0.1681433 0.6073812 255 255 0 255 0.614429 0.569551
-0.1787454 0.3446788 -0.2285289 -0.3787183 0.5056781 -0.775153 255 255 0 255 0.501540 0.263312
-0.09849797 0.3446788 -0.2285289 0.3787265 0.5056777 -0.7751493 255 255 0 255 0.453453 0.263386
-0.09849797 0.3348648 -0.2349311 0.4283521 0.2068648 -0.8796144 255 255 0 255 0.455541 0.255998
-0.1787454 0.3348648 -0.2349311 -0.4313643 -0.1552277 -0.8887234 255 255 0 255 0.499101 0.256449
-0.1812437 0.3348648 -0.223599 -1 0 0 255 255 0 255 0.506806 0.256537
-0.1812437 0.3348648 -0.2319989 -0.9118787 0.09498702 -0.3993178 255 255 0 255 0.501361 0.256430
-0.1812437 0.3275902 -0.2277989 -0.8656905 -0.25029 -0.4335147 255 255 0 255 0.503385 0.251235
-0.09599982 0.3348648 -0.223599 1 0 0 255 255 0 255 0.447843 0.256493
-0.09599982 0.3348648 -0.2319989 0.9134451 -0.06898851 -0.4010719 255 255 0 255 0.453319 0.256166
-0.09599982 0.3421394 -0.2272533 0.8598511 0.2789488 -0.4276022 255 255 0 255 0.451339 0.261561
-0.09849797 0.3250508 -0.229265 0.4291393 -0.6827846 -0.5913076 255 255 0 255 0.453308 0.249332
-0.1787454 0.3250508 -0.229265 -0.4291275 -0.8534853 -0.2956559 255 255 0 255 0.501260 0.249311
-0.1812437 0.3275902 -0.2193988 -0.9148818 -0.3743267 0.1512313 255 255 0 255 0.500966 0.242518
-0.09599982 0.3275902 -0.2277989 0.9254344 -0.189453 -0.3281443 255 255 0 255 0.451169 0.251198
-0.09849797 0.3250508 -0.2179328 0.4346226 -0.8375306 0.3311282 255 255 0 255 0.455637 0.242172
-0.1787454 0.3250508 -0.2179328 -0.4261167 -0.6191657 0.6595896 255 255 0 255 0.498715 0.242690
-0.09599982 0.3275902 -0.219399 0.9105559 -0.2807395 0.3034359 255 255 0 255 0.453385 0.242134
-0.09849797 0.3352219 -0.2137778 0.3653015 -0.3520433 0.8617542 255 255 0 255 0.453166 0.235761
-0.1787454 0.3352219 -0.2137778 -0.3652874 -0.3520438 0.86176 255 255 0 255 0.500972 0.235761
-0.1812437 0.3421394 -0.2272533 -0.9222284 0.211252 -0.3238323 255 255 0 255 0.503479 0.261521
-0.09599982 0.3351295 -0.216319 0.9165436 -0.1512497 0.3702316 255 255 0 255 0.451196 0.237382
-0.1812437 0.3351295 -0.216319 -0.8494248 -0.1995669 0.4885188 255 255 0 255 0.503106 0.237460
0.2126984 0.3446788 -0.2285289 0.3787293 0.5056757 -0.7751492 255 255 0 255 0.453109 0.263311
0.2126984 0.3348648 -0.2349311 0.4313762 -0.1552267 -0.8887178 255 255 0 255 0.455548 0.256448
0.1324509 0.3348648 -0.2349311 -0.4283521 0.2068648 -0.8796144 255 255 0 255 0.499107 0.255998
0.1324509 0.3446788 -0.2285289 -0.3787265 0.5056777 -0.7751493 255 255 0 255 0.501196 0.263386
0.2151965 0.3348648 -0.223599 1 0 0 255 255 0 255 0.447843 0.256537
0.2151965 0.3275902 -0.2277989 0.8656986 -0.2502829 -0.4335024 255 255 0 255 0.451264 0.251235
0.2151965 0.3348648 -0.2319989 0.9118843 0.09498425 -0.3993058 255 255 0 255 0.453288 0.256429
0.1299527 0.3348648 -0.223599 -1 0 0 255 255 0 255 0.506806 0.256493
0.1299527 0.3421394 -0.2272533 -0.8598511 0.2789488 -0.4276023 255 255 0 255 0.503309 0.261561
0.1299527 0.3348648 -0.2319989 -0.9134451 -0.06898851 -0.4010719 255 255 0 255 0.501329 0.256166
0.2126984 0.3250508 -0.229265 0.4291392 -0.85348 -0.2956541 255 255 0 255 0.453389 0.249311
0.1324509 0.3250508 -0.229265 -0.4291393 -0.6827846 -0.5913076 255 255 0 255 0.501341 0.249332
0.2151965 0.3275902 -0.2193988 0.9148871 -0.3743154 0.151227 255 255 0 255 0.453683 0.242518
0.1299527 0.3275902 -0.2277989 -0.9254344 -0.189453 -0.3281443 255 255 0 255 0.503480 0.251198
0.2126984 0.3250508 -0.2179328 0.4261287 -0.6191618 0.6595855 255 255 0 255 0.455933 0.242690
0.1324509 0.3250508 -0.2179328 -0.4346226 -0.8375306 0.3311282 255 255 0 255 0.499012 0.242172
0.1299527 0.3275902 -0.219399 -0.9105559 -0.2807395 0.3034359 255 255 0 255 0.501264 0.242134
0.2126984 0.3352219 -0.2137778 0.3652984 -0.3520422 0.861756 255 255 0 255 0.453677 0.235761
0.1324509 0.3352219 -0.2137778 -0.3653015 -0.3520433 0.8617542 255 255 0 255 0.501483 0.235761
0.2151965 0.3421394 -0.2272533 0.9222331 0.2112459 -0.323823 255 255 0 255 0.451170 0.261521
0.1299527 0.3351295 -0.216319 -0.9165436 -0.1512497 0.3702316 255 255 0 255 0.503452 0.237382
0.2151965 0.3351295 -0.216319 0.8494335 -0.1995617 0.4885058 255 255 0 255 0.451542 0.237460
-0.2680419 0.02455848 -0.2051198 -0.5601457 0 -0.8283941 255 255 0 255 0.672806 0.319719
-0.3683428 0.02455848 -0.08403431 -0.9732147 0 -0.2298982 255 255 0 255 0.652749 0.342441
-0.3697565 0.02455848 0.08796692 -0.9031604 0 0.4293033 255 255 0 255 0.652248 0.375423
-0.2741909 0.02455848 0.2101279 -0.2891571 0 0.9572817 255 255 0 255 0.671050 0.399253
0.01697649 0.02455848 -0.2047397 0.001203778 -0.4306572 -0.9025148 255 255 0 255 0.983707 0.230177
0.01697649 0.02455848 0.210508 -2.910386e-10 0 1 255 255 0 255 0.723417 0.400192
0.01697649 0.3374524 -0.2128661 0.0008559681 0.7382501 0.6745266 255 255 0 255 0.918061 0.615838
0.01697649 0.3392857 -0.2270924 -0.0008824024 0.7498437 -0.6616144 255 255 0 255 0.921059 0.615838
0.301995 0.02455848 -0.2051198 0.5601457 0 -0.8283941 255 255 0 255 0.774642 0.320108
0.4022961 0.02455848 -0.08403431 0.9732148 0 -0.2298977 255 255 0 255 0.794525 0.342984
0.4037097 0.02455848 0.08796692 0.9031605 0 0.4293031 255 255 0 255 0.794773 0.375968
0.3081441 0.02455848 0.2101279 0.2891573 0 0.9572816 255 255 0 255 0.775790 0.399654
0.01697649 0.3224527 -0.2354813 -0.001328526 -0.08767851 -0.9961479 255 255 0 255 0.925127 0.615838
0.01697649 0.3073274 -0.2299213 -0.001324415 -0.1166082 -0.9931771 255 255 0 255 0.928427 0.615838
0.01697649 0.07733089 -0.2299213 -0.001274873 -0.2935337 -0.9559479 255 255 0 255 0.971169 0.615838
0.01697649 0.02455848 -0.2047397 -0.001203777 -0.4306571 -0.9025148 255 255 0 255 0.983707 0.615838
0.01697649 0.3100361 -0.2067923 0.00121279 0.2162924 0.9763279 255 255 0 255 0.913838 0.615839
-0.309505 0.3926636 0.2352633 -0.001292418 0.1423566 0.9898146 255 255 0 255 0.493074 0.575665
-0.2906502 0.3347892 -0.2136977 0.6327462 -0.5700135 0.5241345 255 255 0 255 0.476693 0.673596
-0.2905029 0.3485434 -0.2116399 0.7659989 -0.1031372 0.6345144 255 255 0 255 0.474053 0.674732
-0.309505 0.3720506 0.2352633 -0.774095 0.1845605 0.6055695 255 255 0 255 0.486291 0.573690
-0.3026102 0.3720507 -0.2303475 0.001324415 0.1166078 -0.9931772 255 255 0 255 0.495531 0.669054
-0.3102426 0.3569255 -0.2359176 -0.7333105 -0.3054124 -0.6074365 255 255 0 255 0.485255 0.669897
-0.2987268 0.3400924 -0.2275134 -0.3785548 -0.8708425 -0.3135755 255 255 0 255 0.480901 0.672615
-0.3026102 0.3926637 -0.2303475 0.001278292 0.2847128 -0.958612 255 255 0 255 0.495596 0.665480
-0.3173021 0.3569252 0.240813 -0.001280199 -0.1965749 0.980488 255 255 0 255 0.491389 0.569403
-0.3055378 0.3400923 0.2324395 -0.0007414408 -0.8205652 0.5715526 255 255 0 255 0.493248 0.566052
-0.2970523 0.3347892 0.2186322 0.000997319 -0.6048738 -0.7963207 255 255 0 255 0.494553 0.563057
-0.2968439 0.3485433 0.2165717 0.001235582 -0.1481767 -0.9889601 255 255 0 255 0.494465 0.560665
0.3434582 0.3926636 0.2352633 0.001292417 0.1423565 0.9898146 255 255 0 255 0.604384 0.573783
0.3310053 0.3347892 0.2186322 -0.1307885 -0.9861166 -0.102315 255 255 0 255 0.623174 0.565880
0.3246033 0.3347892 -0.2136977 -0.6327474 -0.5700114 0.5241352 255 255 0 255 0.624066 0.671104
0.324456 0.3485434 -0.2116399 -0.7659989 -0.1031372 0.6345144 255 255 0 255 0.626743 0.672151
0.3434582 0.3720506 0.2352633 0.7740952 0.184559 0.6055697 255 255 0 255 0.611096 0.571580
0.3365633 0.3720507 -0.2303475 -0.001324415 0.1166078 -0.9931772 255 255 0 255 0.605085 0.667202
0.3394909 0.3400923 0.2324395 0.5005342 -0.7721033 0.3915636 255 255 0 255 0.618900 0.566854
0.3441958 0.3569255 -0.2359176 0.7333098 -0.3054146 -0.6074361 255 255 0 255 0.615383 0.667697
0.3326797 0.3400924 -0.2275134 0.3785534 -0.8708435 -0.3135745 255 255 0 255 0.619827 0.670267
0.3365633 0.3926637 -0.2303475 -0.001278292 0.2847128 -0.958612 255 255 0 255 0.604899 0.663633
0.3512552 0.3569252 0.240813 0.001280199 -0.1965748 0.980488 255 255 0 255 0.605856 0.567468
0.330797 0.3485433 0.2165717 -0.001235582 -0.1481767 -0.9889601 255 255 0 255 0.602487 0.558839
-0.1812437 0.3348648 -0.223599 -1 0 0 255 255 0 255 0.506476 0.241996
-0.1812437 0.3275902 -0.2277989 -0.9254317 -0.3789145 0 255 255 0 255 0.503203 0.247398
-0.09599982 0.3348648 -0.223599 1 0 0 255 255 0 255 0.447894 0.241784
-0.09599982 0.3275902 -0.2277989 0.8656993 -0.5005645 0 255 255 0 255 0.451194 0.247319
0.2151965 0.3348648 -0.223599 1 0 0 255 255 0 255 0.448173 0.241996
0.2151965 0.3275902 -0.2277989 0.9254362 -0.3789034 0 255 255 0 255 0.451445 0.247398
0.1299527 0.3348648 -0.223599 -1 0 0 255 255 0 255 0.506755 0.241784
0.1299527 0.3275902 -0.2277989 -0.8656993 -0.5005645 0 255 255 0 255 0.503455 0.247319
3 0 1 2 
3 0 2 3 
3 3 2 4 
3 3 4 5 
3 6 7 1 
3 6 1 0 
3 8 9 10 
3 8 10 11 
3 12 13 14 
3 12 14 15 
3 15 14 9 
3 15 9 8 
3 16 17 13 
3 16 13 12 
3 17 18 19 
3 17 19 13 
3 14 20 21 
3 14 21 9 
3 22 23 7 
3 22 7 6 
3 13 19 20 
3 13 20 14 
3 9 21 24 
3 9 24 10 
3 18 25 26 
3 18 26 19 
3 25 27 4 
3 25 4 26 
3 20 28 29 
3 20 29 21 
3 28 2 1 
3 28 1 29 
3 19 26 28 
3 19 28 20 
3 26 4 2 
3 26 2 28 
3 21 29 30 
3 21 30 24 
3 29 1 7 
3 29 7 30 
3 234 31 32 
3 234 32 235 
3 236 33 34 
3 236 34 237 
3 35 36 31 
3 35 31 234 
3 235 32 33 
3 235 33 236 
3 34 33 32 
3 34 32 31 
3 30 7 23 
3 30 23 37 
3 24 30 37 
3 24 37 38 
3 10 24 38 
3 10 38 39 
3 11 10 39 
3 11 39 238 
3 237 34 40 
3 237 40 239 
3 5 4 27 
3 5 27 41 
3 22 6 42 
3 22 42 43 
3 6 0 44 
3 6 44 42 
3 0 3 45 
3 0 45 44 
3 3 5 46 
3 3 46 45 
3 5 41 47 
3 5 47 46 
3 40 34 31 
3 40 31 36 
3 48 49 50 
3 48 50 51 
3 49 52 53 
3 49 53 50 
3 54 48 51 
3 54 51 55 
3 56 57 58 
3 56 58 59 
3 60 61 62 
3 60 62 63 
3 61 56 59 
3 61 59 62 
3 16 60 63 
3 16 63 17 
3 17 63 64 
3 17 64 18 
3 62 59 65 
3 62 65 66 
3 240 54 55 
3 240 55 241 
3 63 62 66 
3 63 66 64 
3 59 58 67 
3 59 67 65 
3 18 64 68 
3 18 68 25 
3 25 68 53 
3 25 53 27 
3 66 65 69 
3 66 69 70 
3 70 69 51 
3 70 51 50 
3 64 66 70 
3 64 70 68 
3 68 70 50 
3 68 50 53 
3 65 67 71 
3 65 71 69 
3 69 71 55 
3 69 55 51 
3 242 243 72 
3 242 72 73 
3 244 245 74 
3 244 74 75 
3 35 242 73 
3 35 73 36 
3 243 244 75 
3 243 75 72 
3 74 73 72 
3 74 72 75 
3 71 246 241 
3 71 241 55 
3 67 247 246 
3 67 246 71 
3 58 248 247 
3 58 247 67 
3 57 249 248 
3 57 248 58 
3 245 239 40 
3 245 40 74 
3 52 41 27 
3 52 27 53 
3 240 250 76 
3 240 76 54 
3 54 76 77 
3 54 77 48 
3 48 77 78 
3 48 78 49 
3 49 78 79 
3 49 79 52 
3 52 79 47 
3 52 47 41 
3 40 36 73 
3 40 73 74 
3 80 81 82 
3 80 82 83 
3 83 82 84 
3 83 84 85 
3 86 87 81 
3 86 81 80 
3 88 89 251 
3 88 251 90 
3 91 80 83 
3 91 83 92 
3 93 94 95 
3 93 95 96 
3 97 98 99 
3 97 99 100 
3 252 253 101 
3 252 101 102 
3 103 104 105 
3 103 105 106 
3 107 108 109 
3 107 109 110 
3 89 111 87 
3 89 87 251 
3 106 105 108 
3 106 108 107 
3 110 109 112 
3 110 112 113 
3 114 115 116 
3 114 116 117 
3 254 86 80 
3 254 80 91 
3 92 83 85 
3 92 85 118 
3 102 101 98 
3 102 98 97 
3 119 108 105 
3 119 105 120 
3 121 109 108 
3 121 108 119 
3 122 112 109 
3 122 109 121 
3 123 124 112 
3 123 112 122 
3 125 123 122 
3 125 122 114 
3 114 122 121 
3 114 121 115 
3 115 121 119 
3 115 119 116 
3 116 119 120 
3 116 120 117 
3 92 126 127 
3 92 127 91 
3 126 128 129 
3 126 129 127 
3 130 131 132 
3 130 132 255 
3 131 133 134 
3 131 134 132 
3 91 127 135 
3 91 135 254 
3 127 129 136 
3 127 136 135 
3 118 256 126 
3 118 126 92 
3 256 257 128 
3 256 128 126 
3 110 82 81 
3 110 81 107 
3 137 138 84 
3 137 84 113 
3 107 81 87 
3 107 87 106 
3 113 84 82 
3 113 82 110 
3 113 112 124 
3 113 124 137 
3 255 258 139 
3 255 139 130 
3 258 84 138 
3 258 138 139 
3 106 87 111 
3 106 111 103 
3 259 260 140 
3 259 140 141 
3 90 259 141 
3 90 141 88 
3 117 120 142 
3 117 142 143 
3 120 105 104 
3 120 104 142 
3 261 262 144 
3 261 144 145 
3 128 102 97 
3 128 97 129 
3 100 136 129 
3 100 129 97 
3 145 146 147 
3 145 147 140 
3 96 134 133 
3 96 133 93 
3 102 128 257 
3 102 257 252 
3 125 114 117 
3 125 117 143 
3 148 149 150 
3 148 150 151 
3 149 152 153 
3 149 153 150 
3 154 148 151 
3 154 151 155 
3 88 156 263 
3 88 263 89 
3 157 158 149 
3 157 149 148 
3 93 159 160 
3 93 160 94 
3 161 264 162 
3 161 162 163 
3 265 164 165 
3 265 165 266 
3 103 166 167 
3 103 167 104 
3 168 169 170 
3 168 170 171 
3 89 263 155 
3 89 155 111 
3 166 168 171 
3 166 171 167 
3 169 172 173 
3 169 173 170 
3 174 175 176 
3 174 176 177 
3 267 157 148 
3 267 148 154 
3 158 178 152 
3 158 152 149 
3 164 161 163 
3 164 163 165 
3 179 180 167 
3 179 167 171 
3 181 179 171 
3 181 171 170 
3 182 181 170 
3 182 170 173 
3 123 182 173 
3 123 173 124 
3 125 174 182 
3 125 182 123 
3 174 177 181 
3 174 181 182 
3 177 176 179 
3 177 179 181 
3 176 175 180 
3 176 180 179 
3 158 157 183 
3 158 183 184 
3 184 183 185 
3 184 185 186 
3 130 268 187 
3 130 187 131 
3 131 187 188 
3 131 188 133 
3 157 267 189 
3 157 189 183 
3 183 189 269 
3 183 269 185 
3 178 158 184 
3 178 184 270 
3 270 184 186 
3 270 186 271 
3 169 168 151 
3 169 151 150 
3 137 172 153 
3 137 153 138 
3 168 166 155 
3 168 155 151 
3 172 169 150 
3 172 150 153 
3 172 137 124 
3 172 124 173 
3 268 130 139 
3 268 139 272 
3 272 139 138 
3 272 138 153 
3 166 103 111 
3 166 111 155 
3 273 141 140 
3 273 140 147 
3 156 88 141 
3 156 141 273 
3 175 143 142 
3 175 142 180 
3 180 142 104 
3 180 104 167 
3 146 145 144 
3 146 144 274 
3 186 185 161 
3 186 161 164 
3 264 161 185 
3 264 185 269 
3 159 93 133 
3 159 133 188 
3 164 265 271 
3 164 271 186 
3 125 143 175 
3 125 175 174 
3 190 191 192 
3 190 192 193 
3 194 195 196 
3 197 198 199 
3 193 192 200 
3 193 200 201 
3 275 276 202 
3 197 203 198 
3 201 200 204 
3 201 204 205 
3 277 206 278 
3 205 204 207 
3 205 207 208 
3 194 209 195 
3 277 210 206 
3 190 193 195 
3 190 195 209 
3 192 191 199 
3 192 199 198 
3 193 201 196 
3 193 196 195 
3 200 192 198 
3 200 198 203 
3 201 205 202 
3 201 202 276 
3 204 200 278 
3 204 278 206 
3 205 208 211 
3 205 211 202 
3 207 204 206 
3 207 206 210 
3 275 202 211 
3 212 213 214 
3 212 214 215 
3 216 217 218 
3 219 220 221 
3 213 222 223 
3 213 223 214 
3 279 224 280 
3 219 221 225 
3 222 226 227 
3 222 227 223 
3 281 282 228 
3 226 229 230 
3 226 230 227 
3 216 218 231 
3 281 228 232 
3 212 231 218 
3 212 218 213 
3 214 221 220 
3 214 220 215 
3 213 218 217 
3 213 217 222 
3 223 225 221 
3 223 221 214 
3 222 280 224 
3 222 224 226 
3 227 228 282 
3 227 282 223 
3 226 224 233 
3 226 233 229 
3 230 232 228 
3 230 228 227 
3 279 233 224 
3 145 140 260 
3 145 260 261 
