ply
format ascii 1.0
comment VCGLIB generated
element vertex 26
property float x
property float y
property float z
property float nx
property float ny
property float nz
property uchar red
property uchar green
property uchar blue
property uchar alpha
property float texture_u
property float texture_v
element face 24
property list uchar int vertex_indices
end_header
-1.16676 4.768372e-07 0.04136801 -0.505448 0 0.8628571 255 255 0 255 0.000000 0.000000
-1.16676 3 0.04136801 -0.1655541 0.4682589 0.8679433 255 255 0 255 0.000000 1.000000
-1.266761 3 -0.0586319 -0.7071051 0 0.7071085 255 255 0 255 -0.047140 1.000000
-1.266761 4.768372e-07 -0.0586319 -0.7071051 0 0.7071085 255 255 0 255 -0.047140 0.000000
1.233239 4.768372e-07 -0.0586319 0.7071051 0 0.7071085 255 255 0 255 0.795242 0.000000
1.233239 3 -0.0586319 0.7071051 0 0.7071085 255 255 0 255 0.795240 1.000000
1.133239 3 0.04136801 0.2982391 0.2108874 0.9309028 255 255 0 255 0.748099 1.000000
1.133239 4.768372e-07 0.04136801 0.252724 0 0.9675384 255 255 0 255 0.748099 0.000000
-0.7667606 4.768372e-07 0.04136801 0.7071068 0 0.7071068 255 255 0 255 0.154811 0.000000
-0.7667606 2.5 0.04136801 0.3015114 -0.3015114 0.904534 255 255 0 255 0.156047 0.833333
-0.7667606 2.5 -0.0586319 0 0 -1 255 255 0 255 0.983872 0.015380
-0.7667606 4.768372e-07 -0.0586319 0 0 -1 255 255 0 255 0.983872 0.015380
0.7332394 2.5 -0.0586319 0 0 -1 255 255 0 255 0.983872 0.015380
0.7332394 4.768372e-07 -0.0586319 0 0 -1 255 255 0 255 0.983872 0.015380
0.7332394 2.5 0.04136801 -0.4850713 -0.4850713 0.7276069 255 255 0 255 0.601941 0.833333
0.7332394 4.768372e-07 0.04136801 -0.7071068 0 0.7071068 255 255 0 255 0.601941 0.000000
1.233239 3 -0.0586319 0 1 0 255 255 0 255 0.780627 1.032527
-1.266761 3 -0.0586319 0 1 0 255 255 0 255 -0.032526 1.032526
-1.266761 4.768372e-07 -0.0586319 0 0 -1 255 255 0 255 0.983872 0.015380
-1.266761 3 -0.0586319 0 0 -1 255 255 0 255 0.983872 0.015380
1.233239 3 -0.0586319 0 0 -1 255 255 0 255 0.983872 0.015380
1.233239 4.768372e-07 -0.0586319 0 0 -1 255 255 0 255 0.983872 0.015380
-0.7667606 4.768372e-07 -0.0586319 1 0 0 255 255 0 255 0.187550 0.000575
-0.7667606 2.5 -0.0586319 0.7071068 -0.7071068 0 255 255 0 255 0.187550 0.797064
0.7332394 4.768372e-07 -0.0586319 -1 0 0 255 255 0 255 0.569203 0.000625
0.7332394 2.5 -0.0586319 -0.7071068 -0.7071068 0 255 255 0 255 0.569203 0.797088
3 0 1 2 
3 0 2 3 
3 4 5 6 
3 4 6 7 
3 16 17 1 
3 16 1 6 
3 8 9 1 
3 8 1 0 
3 10 11 18 
3 10 18 19 
3 12 10 19 
3 12 19 20 
3 13 12 20 
3 13 20 21 
3 14 15 7 
3 14 7 6 
3 9 14 6 
3 9 6 1 
3 8 22 23 
3 8 23 9 
3 24 15 14 
3 24 14 25 
3 23 25 14 
3 23 14 9 
