ply
format ascii 1.0
comment VCGLIB generated
element vertex 244
property float x
property float y
property float z
property float nx
property float ny
property float nz
property uchar red
property uchar green
property uchar blue
property uchar alpha
property float texture_u
property float texture_v
element face 238
property list uchar int vertex_indices
end_header
-0.4894521 0.126337 0.223373 -0.2816316 -1.3909e-07 0.9595226 150 150 150 255 0.408108 0.608983
-0.4374717 0.126337 0.223373 0.2816318 -1.2871e-07 0.9595225 150 150 150 255 0.408108 0.594911
-0.4374717 2.126336 0.2233733 0.2816313 -1.342118e-07 0.9595227 150 150 150 255 0.949575 0.594903
-0.4894521 2.126337 0.2233733 -0.2816315 -1.4298e-07 0.9595227 150 150 150 255 0.949575 0.608976
-0.4980761 2.128837 -0.1880071 -0.8259836 -0.3017668 -0.4761176 150 150 150 255 0.014511 0.738604
-0.4980761 2.128836 0.2209065 -0.7421427 -0.5637231 0.3625472 150 150 150 255 0.014482 0.628532
-0.4980761 2.143661 0.2209065 -0.8709198 -0.1323487 0.473268 150 150 150 255 0.018415 0.628389
-0.4980761 2.143661 -0.1880071 -0.8535985 -0.2215356 -0.4714782 150 150 150 255 0.018448 0.738737
0.4894521 2.126337 0.2233733 0.2816316 -1.3909e-07 0.9595226 150 150 150 255 0.951971 0.679672
0.4374717 2.126336 0.2233733 -0.2816308 -1.286581e-07 0.9595228 150 150 150 255 0.951971 0.693744
0.4374717 0.126337 0.223373 -0.2816314 -1.341858e-07 0.9595227 150 150 150 255 0.410503 0.693750
0.4894521 0.126337 0.223373 0.2816318 -1.4298e-07 0.9595225 150 150 150 255 0.410503 0.679677
-0.4980761 -0.001807334 0.2346976 -0.9492927 0 0.3143938 150 150 150 255 0.013382 0.837331
-0.4980761 0.1258267 0.2346976 -0.7408011 0.3595905 0.5673698 150 150 150 255 0.047797 0.837342
-0.4980761 0.1258268 -0.191213 -0.8269328 0.4729367 -0.3041594 150 150 150 255 0.047793 0.952191
-0.4980761 -0.001807259 -0.191213 -0.7775771 0 -0.6287876 150 150 150 255 0.013374 0.952199
0.48 2.126337 -0.182533 0.8776283 6.963355e-08 -0.4793418 150 150 150 255 0.112886 0.554884
0.48 2.126337 0.185 1 0 0 150 150 150 255 0.013374 0.554884
0.48 0.126337 0.1849997 1 0 0 150 150 150 255 0.013374 0.013374
0.48 0.126337 -0.1825333 0.877628 7.141106e-08 -0.4793423 150 150 150 255 0.112885 0.013374
0.4942361 0.1283268 -0.191213 0.2784582 0.9270323 -0.2511419 150 150 150 255 0.316823 0.952482
-0.4942361 0.1283268 -0.191213 -0.2134984 0.8619247 -0.4598959 150 150 150 255 0.048914 0.952482
-0.4942361 0.1283267 0.2346976 -0.2784581 0.9270322 0.2511421 150 150 150 255 0.048916 0.837052
0.4942361 0.1283267 0.2346976 0.2134984 0.8619246 0.4598961 150 150 150 255 0.316821 0.837052
-0.4336317 0.126337 0.2209064 0.8776283 -6.608573e-08 0.4793418 150 150 150 255 0.408108 0.593670
-0.4336317 0.126337 0.1874665 1 0 0 150 150 150 255 0.408108 0.584617
-0.4336317 2.126336 0.1874668 1 0 0 150 150 150 255 0.949575 0.584615
-0.4336317 2.126336 0.2209066 0.877628 -6.785622e-08 0.4793424 150 150 150 255 0.949575 0.593667
0.4942361 -0.001807334 0.2371643 0 0 1 150 150 150 255 0.316821 0.801507
0.4942361 0.1258267 0.2371643 0 0.3795824 0.925158 150 150 150 255 0.316821 0.836100
-0.4942361 0.1258267 0.2371643 0 0.3795824 0.925158 150 150 150 255 0.048916 0.836100
-0.4942361 -0.001807334 0.2371643 0 0 1 150 150 150 255 0.048916 0.801507
-0.47616 2.126337 -0.1849997 -0.2816312 1.374567e-07 -0.9595227 150 150 150 255 0.371967 0.554887
0.47616 2.126337 -0.1849997 0.2816318 1.35831e-07 -0.9595225 150 150 150 255 0.114121 0.554884
0.47616 0.126337 -0.185 0.2816312 1.374568e-07 -0.9595227 150 150 150 255 0.114126 0.013374
-0.47616 0.126337 -0.185 -0.2816305 1.358311e-07 -0.959523 150 150 150 255 0.371971 0.013376
0.4955455 2.148546 -0.191213 0 -0.2478326 -0.9688029 150 150 150 255 0.324514 0.768446
-0.4955455 2.148546 -0.191213 0 -0.1989059 -0.9800186 150 150 150 255 0.055827 0.768442
-0.5249742 2.191133 -0.2044109 0 -0.2478349 -0.9688023 150 150 150 255 0.047849 0.756355
0.5249742 2.191133 -0.2044109 0 -0.1989106 -0.9800177 150 150 150 255 0.332493 0.756359
0.5308012 2.196018 0.2624185 0.870282 -0.1670958 0.4633448 150 150 150 255 0.345192 0.617216
0.5308012 2.196018 -0.2026834 0.9024231 -0.2124104 -0.3748526 150 150 150 255 0.345168 0.742673
0.5308012 2.236908 -0.2026834 0.8259889 0.3017524 -0.4761174 150 150 150 255 0.334156 0.742676
0.5308012 2.236907 0.2624185 0.7421386 0.5637317 0.3625422 150 150 150 255 0.334171 0.617207
0.4942361 2.128837 -0.1904738 0 -0.2507308 -0.9680569 150 150 150 255 0.324159 0.773806
-0.4942361 2.128837 -0.1904738 0 -0.5014616 -0.8651799 150 150 150 255 0.056183 0.773804
-0.4942361 2.143661 -0.1904738 0 -0.04999276 -0.9987496 150 150 150 255 0.056183 0.769785
0.4942361 2.143661 -0.1904738 0 -0.09998553 -0.9949889 150 150 150 255 0.324159 0.769786
-0.5269611 2.196018 0.2648852 0 -0.1187234 0.9929274 150 150 150 255 0.047305 0.604865
0.5269611 2.196018 0.2648852 8.97895e-09 -0.2374488 0.9714001 150 150 150 255 0.333039 0.604864
0.5269611 2.236907 0.2648852 0 0.2507318 0.9680566 150 150 150 255 0.333039 0.615950
-0.5269611 2.236907 0.2648852 0 0.5014635 0.8651788 150 150 150 255 0.047305 0.615950
-0.4953162 2.148029 0.2250115 1.569403e-08 -0.5646315 0.8253432 150 150 150 255 0.055884 0.587873
0.4953162 2.148029 0.2250115 8.589181e-09 -0.4604444 0.8876886 150 150 150 255 0.324460 0.587873
0.5254583 2.191649 0.2632469 1.991112e-08 -0.5646258 0.825347 150 150 150 255 0.332632 0.603599
-0.5254583 2.191649 0.2632469 1.608542e-08 -0.4604311 0.8876955 150 150 150 255 0.047712 0.603599
-0.4469239 0.126337 -0.1722519 1 0 0 150 150 150 255 0.864958 0.013374
-0.4469239 2.126337 -0.1722516 1 0 0 150 150 150 255 0.864958 0.554887
-0.4469239 2.126336 0.185 1 0 0 150 150 150 255 0.768230 0.554887
-0.4469239 0.126337 0.1849997 1 0 0 150 150 150 255 0.768230 0.013374
0.4469239 2.126337 -0.1722516 -1 0 0 150 150 150 255 0.891706 0.554887
0.4469239 0.126337 -0.1722519 -1 0 0 150 150 150 255 0.891706 0.013374
0.4469239 0.126337 0.1849997 -1 0 0 150 150 150 255 0.988435 0.013374
0.4469239 2.126336 0.185 -1 0 0 150 150 150 255 0.988435 0.554887
0.4932921 0.126337 0.2209064 0.8776287 -7.141916e-08 0.4793412 150 150 150 255 0.410503 0.678441
0.4932921 0.126337 0.1874665 0.8776287 7.142742e-08 -0.4793412 150 150 150 255 0.410503 0.669388
0.4932921 2.126337 0.1874668 0.8776287 7.141916e-08 -0.4793412 150 150 150 255 0.951971 0.669379
0.4932921 2.126337 0.2209067 0.8776287 -7.141089e-08 0.4793412 150 150 150 255 0.951971 0.678431
0.5269611 2.196018 -0.20515 0 -0.04999517 -0.9987495 150 150 150 255 0.333033 0.755016
-0.5269611 2.196018 -0.20515 0 -0.09999032 -0.9949884 150 150 150 255 0.047310 0.755016
-0.5269611 2.236908 -0.20515 0 0.2507175 -0.9680603 150 150 150 255 0.047310 0.743930
0.5269611 2.236908 -0.20515 0 0.5014349 -0.8651953 150 150 150 255 0.333033 0.743931
-0.4932921 2.126337 0.2209067 -0.8776287 -7.141916e-08 0.4793412 150 150 150 255 0.949575 0.610212
-0.4932921 2.126337 0.1874668 -0.8776287 7.142742e-08 -0.4793412 150 150 150 255 0.949576 0.619265
-0.4932921 0.126337 0.1874665 -0.8776287 7.141916e-08 -0.4793412 150 150 150 255 0.408108 0.619276
-0.4932921 0.126337 0.2209064 -0.8776287 -7.141089e-08 0.4793412 150 150 150 255 0.408108 0.610224
-0.4942361 2.126337 -0.1880071 0 -1 -1.749161e-06 150 150 150 255 0.375051 0.874051
0.4942361 2.126337 -0.1880071 0 -1 -1.749161e-06 150 150 150 255 0.642687 0.874051
0.4942361 2.126336 0.2209065 0 -1 -1.749161e-06 150 150 150 255 0.642687 0.984767
-0.4942361 2.126336 0.2209065 0 -1 -1.749161e-06 150 150 150 255 0.375051 0.984767
0.4980761 -0.001807259 -0.191213 0.9492927 0 -0.3143938 150 150 150 255 0.352363 0.952200
0.4980761 0.1258268 -0.191213 0.7408011 0.3595906 -0.5673697 150 150 150 255 0.317944 0.952192
0.4980761 0.1258267 0.2346976 0.8269328 0.4729367 0.3041595 150 150 150 255 0.317940 0.837342
0.4980761 -0.001807334 0.2346976 0.7775771 0 0.6287876 150 150 150 255 0.352356 0.837331
-0.4942361 2.128836 0.2233732 0 -0.2507175 0.9680603 150 150 150 255 0.056177 0.582587
0.4942361 2.128836 0.2233732 0 -0.5014349 0.8651953 150 150 150 255 0.324166 0.582587
0.4942361 2.143661 0.2233732 0 -0.1187312 0.9929265 150 150 150 255 0.324166 0.586606
-0.4942361 2.143661 0.2233732 4.762651e-09 -0.2374634 0.9713965 150 150 150 255 0.056177 0.586608
-0.5269611 2.239408 -0.2026834 -0.1784079 0.9058034 -0.3843058 150 150 150 255 0.047310 0.742978
-0.5269611 2.239407 0.2624185 -0.3348361 0.8925744 0.3019864 150 150 150 255 0.047305 0.616902
0.5269611 2.239407 0.2624185 0.1783956 0.9058146 0.384285 150 150 150 255 0.333039 0.616902
0.5269611 2.239408 -0.2026834 0.3348427 0.8925671 -0.3020006 150 150 150 255 0.333033 0.742979
0.4894521 2.126337 0.1850001 0.1868624 1.438009e-07 -0.9823861 150 150 150 255 0.951971 0.668139
0.4894521 0.126337 0.1849998 0.3737247 1.382042e-07 -0.9275397 150 150 150 255 0.410503 0.668152
0.4374717 0.126337 0.1849998 -0.1868623 1.416437e-07 -0.9823862 150 150 150 255 0.410503 0.654079
0.4374717 2.126336 0.1850001 -0.3737237 1.291203e-07 -0.9275401 150 150 150 255 0.951971 0.654066
0.4980761 2.128836 0.2209065 0.8259889 -0.3017524 0.4761174 150 150 150 255 0.365874 0.628534
0.4980761 2.128837 -0.1880071 0.7421381 -0.5637317 -0.3625434 150 150 150 255 0.365835 0.738609
0.4980761 2.143661 -0.1880071 0.8715333 -0.1124583 -0.477266 150 150 150 255 0.361897 0.738741
0.4980761 2.143661 0.2209065 0.8505531 -0.2697535 0.451434 150 150 150 255 0.361941 0.628390
-0.4894521 0.126337 0.1849998 -0.1868624 1.438009e-07 -0.9823861 150 150 150 255 0.408108 0.620516
-0.4894521 2.126337 0.1850001 -0.3737247 1.382042e-07 -0.9275397 150 150 150 255 0.949576 0.620501
-0.4374717 2.126336 0.1850001 0.1868614 1.416437e-07 -0.9823863 150 150 150 255 0.949576 0.634574
-0.4374717 0.126337 0.1849998 0.3737238 1.291548e-07 -0.9275401 150 150 150 255 0.408108 0.634589
-0.48 0.126337 -0.1825333 -0.8776283 6.963354e-08 -0.4793417 150 150 150 255 0.373207 0.013376
-0.48 0.126337 0.1849997 -1 0 0 150 150 150 255 0.472719 0.013376
-0.48 2.126337 0.185 -1 0 0 150 150 150 255 0.472718 0.554887
-0.48 2.126337 -0.182533 -0.8776287 7.141087e-08 -0.4793411 150 150 150 255 0.373207 0.554887
0.4996516 2.14844 0.222197 0.7222116 -0.6072655 0.3311178 150 150 150 255 0.360537 0.627988
0.4996516 2.148441 -0.1886145 0.7896827 -0.4252461 -0.4422296 150 150 150 255 0.360489 0.738944
0.5292257 2.191239 -0.2018776 0.715632 -0.5003636 -0.487347 150 150 150 255 0.346438 0.742490
0.5292256 2.191238 0.259712 0.7656466 -0.5400046 0.3495432 150 150 150 255 0.346478 0.617879
-0.5308012 2.196018 -0.2026834 -0.8713334 -0.1184246 -0.4761867 150 150 150 255 0.035175 0.742670
-0.5308012 2.196018 0.2624185 -0.8949346 -0.2698808 0.3553258 150 150 150 255 0.035165 0.617216
-0.5308012 2.236907 0.2624185 -0.8259844 0.301767 0.4761162 150 150 150 255 0.046174 0.617207
-0.5308012 2.236908 -0.2026834 -0.7421427 0.5637231 -0.3625473 150 150 150 255 0.046187 0.742674
-0.4996516 2.148441 -0.1886145 -0.7439641 -0.5185772 -0.4214202 150 150 150 255 0.019855 0.738939
-0.4996515 2.14844 0.222197 -0.7731839 -0.5065857 0.3815202 150 150 150 255 0.019819 0.627987
-0.5292257 2.191238 0.259712 -0.6933316 -0.6134757 0.3780725 150 150 150 255 0.033879 0.617879
-0.5292258 2.191239 -0.2018776 -0.7830378 -0.4415053 -0.4380924 150 150 150 255 0.033906 0.742487
0.4336317 2.126336 0.2209066 -0.8776283 -6.605734e-08 0.4793418 150 150 150 255 0.951971 0.694985
0.4336317 2.126336 0.1874668 -1 0 0 150 150 150 255 0.951971 0.704038
0.4336317 0.126337 0.1874665 -1 0 0 150 150 150 255 0.410503 0.704038
0.4336317 0.126337 0.2209064 -0.8776287 -6.785605e-08 0.4793411 150 150 150 255 0.410503 0.694986
-0.4942361 0.1258268 -0.1936797 -0.5266355 0.2247402 -0.8198457 150 150 150 255 0.048085 0.953305
0.4942361 0.1258268 -0.1936797 0.5083529 0.339542 -0.7913839 150 150 150 255 0.317652 0.953305
-0.4942361 -0.001807259 -0.1936797 -0.5404612 0 -0.841369 150 150 150 255 0.013379 0.953440
0.4942361 -0.001807259 -0.1936797 0.5404612 0 -0.841369 150 150 150 255 0.352358 0.953441
-0.4296232 2.128836 0.2211307 -0.1868613 -3.442158e-07 0.9823864 150 150 150 255 0.656291 0.987783
-0.4296232 2.001202 0.2211307 -0.331583 -0.2971095 0.895421 150 150 150 255 0.656305 0.953139
0.4295003 2.001202 0.2211307 0.1769067 -0.3780151 0.9087402 150 150 150 255 0.889499 0.953140
0.4295003 2.128836 0.2211307 0.3737225 -3.250062e-07 0.9275405 150 150 150 255 0.889510 0.987784
-0.4334632 2.001202 0.218664 -0.5822703 -0.5725657 0.5771739 150 150 150 255 0.655130 0.952814
-0.4296232 1.998703 0.218664 -0.2806389 -0.8789175 0.385676 150 150 150 255 0.656281 0.952347
0.4295003 1.998702 0.218664 0.213726 -0.9289934 0.3021465 150 150 150 255 0.889525 0.952348
0.4333403 2.001202 0.218664 0.6189041 -0.5535764 0.5572351 150 150 150 255 0.890676 0.952816
0.4333403 2.128836 0.218664 0.5404612 -2.946873e-07 0.841369 150 150 150 255 0.890761 0.987781
-0.4334632 2.128836 0.218664 -0.5404612 -2.948862e-07 0.841369 150 150 150 255 0.655038 0.987780
-0.4334632 2.001202 0.2098546 -0.5455713 -0.8380645 0 150 150 150 255 0.654754 0.950181
-0.4296232 1.998703 0.2098546 -0.1887774 -0.98202 0 150 150 150 255 0.656124 0.949986
0.4295003 1.998702 0.2098546 0.3775817 -0.9259763 0 150 150 150 255 0.889684 0.949986
0.4333403 2.001202 0.2098546 0.5456077 -0.8380407 0 150 150 150 255 0.891056 0.950182
-0.4334632 2.128836 0.2098546 0 3.502473e-07 -1 150 150 150 255 0.654181 0.898309
0.4333403 2.128836 0.2098546 0 3.502473e-07 -1 150 150 150 255 0.888869 0.898309
-0.4473912 0.5223878 -0.1750112 0 1 1.385433e-06 150 150 150 255 0.385020 0.858155
-0.4473912 0.5223873 0.169168 0 0.8442731 0.5359131 150 150 150 255 0.385020 0.764966
0.4472682 0.5223873 0.169168 -7.140622e-08 0.8442782 0.5359053 150 150 150 255 0.627254 0.764966
0.4472682 0.5223878 -0.1750112 0 1 1.385433e-06 150 150 150 255 0.627254 0.858155
-0.4473912 0.5170721 0.1716678 -1.72906e-07 0.2899346 0.9570465 150 150 150 255 0.385020 0.764016
0.4472682 0.5170721 0.1716681 -2.636756e-07 0.1449732 0.9894356 150 150 150 255 0.627254 0.764015
-0.4473912 0.4980901 0.1716678 -2.664909e-07 0 1 150 150 150 255 0.385020 0.761631
0.4472682 0.4980901 0.1716681 -2.664909e-07 0 1 150 150 150 255 0.627254 0.761627
-0.4473912 0.8923878 -0.1750112 0 1 1.385433e-06 150 150 150 255 0.385020 0.858155
-0.4473912 0.8923873 0.169168 0 0.8442731 0.5359131 150 150 150 255 0.385020 0.764966
0.4472682 0.8923873 0.169168 -7.140622e-08 0.8442782 0.5359053 150 150 150 255 0.627254 0.764966
0.4472682 0.8923878 -0.1750112 0 1 1.385433e-06 150 150 150 255 0.627254 0.858155
-0.4473912 0.8870721 0.1716678 -1.72906e-07 0.2899346 0.9570465 150 150 150 255 0.385020 0.764016
0.4472682 0.8870721 0.1716681 -2.636756e-07 0.1449732 0.9894356 150 150 150 255 0.627254 0.764015
-0.4473912 0.8680901 0.1716678 -2.664909e-07 0 1 150 150 150 255 0.385020 0.761631
0.4472682 0.8680901 0.1716681 -2.664909e-07 0 1 150 150 150 255 0.627254 0.761627
-0.4473912 1.262388 -0.1750112 0 1 1.385433e-06 150 150 150 255 0.385020 0.858155
-0.4473912 1.262387 0.169168 0 0.8442755 0.5359094 150 150 150 255 0.385020 0.764966
0.4472682 1.262387 0.169168 -7.140574e-08 0.8442804 0.5359017 150 150 150 255 0.627254 0.764966
0.4472682 1.262388 -0.1750112 0 1 1.385433e-06 150 150 150 255 0.627254 0.858155
-0.4473912 1.257072 0.1716678 -1.729058e-07 0.2899401 0.9570448 150 150 150 255 0.385020 0.764016
0.4472682 1.257072 0.1716681 -2.636755e-07 0.144976 0.9894352 150 150 150 255 0.627254 0.764015
-0.4473912 1.23809 0.1716678 -2.664909e-07 0 1 150 150 150 255 0.385020 0.761631
0.4472682 1.23809 0.1716681 -2.664909e-07 0 1 150 150 150 255 0.627254 0.761627
-0.4473912 1.632388 -0.1750112 0 1 1.385433e-06 150 150 150 255 0.385020 0.858155
-0.4473912 1.632387 0.169168 0 0.8442709 0.5359167 150 150 150 255 0.385020 0.764966
0.4472682 1.632387 0.169168 -7.14067e-08 0.8442758 0.5359089 150 150 150 255 0.627254 0.764966
0.4472682 1.632388 -0.1750112 0 1 1.385433e-06 150 150 150 255 0.627254 0.858155
-0.4473912 1.627072 0.1716678 -1.729062e-07 0.289929 0.9570482 150 150 150 255 0.385020 0.764016
0.4472682 1.627072 0.1716681 -2.636757e-07 0.1449704 0.989436 150 150 150 255 0.627254 0.764015
-0.4473912 1.60809 0.1716678 -2.664909e-07 0 1 150 150 150 255 0.385020 0.761631
0.4472682 1.60809 0.1716681 -2.664909e-07 0 1 150 150 150 255 0.627254 0.761627
-0.4473912 0.4980906 -0.1725114 0 -1 -1.385433e-06 150 150 150 255 0.385020 0.858155
0.4472682 0.4980906 -0.1725114 0 -1 -1.385433e-06 150 150 150 255 0.627254 0.858155
0.4472682 0.4980901 0.1716678 0 -1 -1.385433e-06 150 150 150 255 0.627254 0.764966
-0.4473912 0.8680906 -0.1725114 0 -1 -1.385433e-06 150 150 150 255 0.385020 0.858155
0.4472682 0.8680906 -0.1725114 0 -1 -1.385433e-06 150 150 150 255 0.627254 0.858155
0.4472682 0.8680901 0.1716678 0 -1 -1.385433e-06 150 150 150 255 0.627254 0.764966
-0.4473912 1.238091 -0.1725114 0 -1 -1.385433e-06 150 150 150 255 0.385020 0.858155
0.4472682 1.238091 -0.1725114 0 -1 -1.385433e-06 150 150 150 255 0.627254 0.858155
0.4472682 1.23809 0.1716678 0 -1 -1.385433e-06 150 150 150 255 0.627254 0.764966
-0.4473912 1.608091 -0.1725114 0 -1 -1.385433e-06 150 150 150 255 0.385020 0.858155
0.4472682 1.608091 -0.1725114 0 -1 -1.385433e-06 150 150 150 255 0.627254 0.858155
0.4472682 1.60809 0.1716678 0 -1 -1.385433e-06 150 150 150 255 0.627254 0.764966
-0.4469239 2.126337 -0.1722516 0 -1.341105e-07 1 150 150 150 255 0.499467 0.554887
-0.4469239 0.126337 -0.1722519 0 -1.341105e-07 1 150 150 150 255 0.499467 0.013374
0.4469239 0.126337 -0.1722519 0 -1.341105e-07 1 150 150 150 255 0.741482 0.013374
0.4469239 2.126337 -0.1722516 0 -1.341105e-07 1 150 150 150 255 0.741482 0.554887
-0.4942361 2.128837 -0.1904738 -0.5083477 -0.3395576 -0.7913806 150 150 150 255 0.014186 0.739662
-0.4942361 2.126337 -0.1880071 -0.5311914 -0.8159471 -0.2281797 150 150 150 255 0.013401 0.738861
-0.4942361 2.128836 0.2233732 -0.5266359 -0.2247366 0.8198464 150 150 150 255 0.014157 0.627482
-0.4942361 2.126336 0.2209065 -0.5121413 -0.786637 0.3448383 150 150 150 255 0.013374 0.628278
0.4942361 2.128837 -0.1904738 0.5266321 -0.2247503 -0.8198451 150 150 150 255 0.366160 0.739667
0.4942361 2.126337 -0.1880071 0.5121096 -0.7866634 -0.3448256 150 150 150 255 0.366945 0.738866
0.4942361 2.128836 0.2233732 0.5083539 -0.3395365 0.7913857 150 150 150 255 0.366199 0.627484
0.4942361 2.126336 0.2209065 0.5312002 -0.8159392 0.2281873 150 150 150 255 0.366982 0.628280
0.5269611 2.196018 -0.20515 0.5282759 -0.1587187 -0.834106 150 150 150 255 0.345396 0.743895
0.5249742 2.191133 -0.2044109 0.4701657 -0.4290816 -0.7712544 150 150 150 255 0.347052 0.743683
-0.5269611 2.196018 -0.20515 -0.5211465 -0.2113231 -0.8268911 150 150 150 255 0.034947 0.743892
-0.5249742 2.191133 -0.2044109 -0.4619464 -0.4636959 -0.7560368 150 150 150 255 0.033291 0.743680
-0.5269611 2.196018 0.2648852 -0.5491756 -0.2597682 0.7943088 150 150 150 255 0.034909 0.616023
-0.5254583 2.191649 0.2632469 -0.5060632 -0.6095728 0.6101812 150 150 150 255 0.033387 0.616557
0.5269611 2.196018 0.2648852 0.5433322 -0.3451548 0.7652832 150 150 150 255 0.345448 0.616021
0.5254583 2.191649 0.2632469 0.4760408 -0.6577107 0.5837824 150 150 150 255 0.346969 0.616557
0.4942361 0.1258267 0.2371643 0.5266355 0.2247402 0.8198457 150 150 150 255 0.317649 0.836230
-0.4942361 0.1258267 0.2371643 -0.5083529 0.339542 0.7913839 150 150 150 255 0.048088 0.836230
0.4942361 2.143661 -0.1904738 0.5281962 -0.1798308 -0.8298613 150 150 150 255 0.362150 0.739927
0.4955455 2.148546 -0.191213 0.4707403 -0.4448858 -0.7618925 150 150 150 255 0.361021 0.740106
0.4953162 2.148029 0.2250115 0.4882954 -0.5224763 0.6989894 150 150 150 255 0.361295 0.626866
0.4942361 2.143661 0.2233732 0.5351909 -0.1393118 0.8331644 150 150 150 255 0.362226 0.627227
-0.4955455 2.148546 -0.191213 -0.4961703 -0.3582303 -0.7908768 150 150 150 255 0.019324 0.740101
-0.4942361 2.143661 -0.1904738 -0.5383514 -0.0882283 -0.8380893 150 150 150 255 0.018195 0.739922
-0.4942361 2.143661 0.2233732 -0.531418 -0.2666075 0.8040618 150 150 150 255 0.018130 0.627226
-0.4953162 2.148029 0.2250115 -0.4579249 -0.6456819 0.6110643 150 150 150 255 0.019062 0.626865
0.5269611 2.236908 -0.20515 0.5083539 0.3395365 -0.7913857 150 150 150 255 0.333871 0.743806
-0.5269611 2.236908 -0.20515 -0.5266359 0.2247366 -0.8198464 150 150 150 255 0.046472 0.743805
-0.5269611 2.236907 0.2648852 -0.5083497 0.3395585 0.791379 150 150 150 255 0.046459 0.616073
0.5269611 2.236907 0.2648852 0.5266342 0.2247509 0.8198436 150 150 150 255 0.333885 0.616071
0.4942361 2.126337 -0.1880071 0 -0.7023706 -0.7118114 150 150 150 255 0.324159 0.774759
-0.4942361 2.126337 -0.1880071 0 -0.7023706 -0.7118114 150 150 150 255 0.056183 0.774756
-0.4942361 2.126336 0.2209065 0 -0.7023389 0.7118427 150 150 150 255 0.056177 0.581635
0.4942361 2.126336 0.2209065 0 -0.7023389 0.7118427 150 150 150 255 0.324166 0.581635
0.4942361 0.1258268 -0.1936797 0 0.3795824 -0.925158 150 150 150 255 0.316823 0.953434
-0.4942361 0.1258268 -0.1936797 0 0.3795824 -0.925158 150 150 150 255 0.048914 0.953434
-0.4942361 -0.001807334 0.2371643 -0.5404612 0 0.841369 150 150 150 255 0.013387 0.836090
0.4942361 -0.001807334 0.2371643 0.5404612 0 0.841369 150 150 150 255 0.352351 0.836090
-0.4336317 2.126336 0.1874668 0.540463 1.159974e-07 -0.8413678 150 150 150 255 0.949576 0.635810
-0.4336317 0.126337 0.1874665 0.5404642 1.128898e-07 -0.8413671 150 150 150 255 0.408108 0.635829
0.4336317 0.126337 0.1874665 -0.540463 1.159476e-07 -0.8413678 150 150 150 255 0.410502 0.652843
0.4336317 2.126336 0.1874668 -0.5404618 1.127903e-07 -0.8413686 150 150 150 255 0.951971 0.652826
-0.4942361 -0.001807259 -0.1936797 0 0 -1 150 150 150 255 0.048914 0.988027
0.4942361 -0.001807259 -0.1936797 0 0 -1 150 150 150 255 0.316823 0.988027
-0.4334632 2.001202 0.2098546 0 2.334982e-07 -1 150 150 150 255 0.654181 0.932866
0.4333403 2.001202 0.2098546 0 1.167491e-07 -1 150 150 150 255 0.888869 0.932866
-0.4296232 1.998703 0.2098546 0 0 -1 150 150 150 255 0.655220 0.933543
0.4295003 1.998702 0.2098546 0 0 -1 150 150 150 255 0.887825 0.933546
-0.4473912 0.4980901 0.1716678 0 -1 -1.385433e-06 150 150 150 255 0.385020 0.764966
-0.4473912 0.8680901 0.1716678 0 -1 -1.385433e-06 150 150 150 255 0.385020 0.764966
-0.4473912 1.23809 0.1716678 0 -1 -1.385433e-06 150 150 150 255 0.385020 0.764966
-0.4473912 1.60809 0.1716678 0 -1 -1.385433e-06 150 150 150 255 0.385020 0.764966
3 0 1 2 
3 0 2 3 
3 4 5 6 
3 4 6 7 
3 8 9 10 
3 8 10 11 
3 12 13 14 
3 12 14 15 
3 16 17 18 
3 16 18 19 
3 20 21 22 
3 20 22 23 
3 24 25 26 
3 24 26 27 
3 28 29 30 
3 28 30 31 
3 32 33 34 
3 32 34 35 
3 36 37 38 
3 36 38 39 
3 40 41 42 
3 40 42 43 
3 44 45 46 
3 44 46 47 
3 48 49 50 
3 48 50 51 
3 52 53 54 
3 52 54 55 
3 56 57 58 
3 56 58 59 
3 60 61 62 
3 60 62 63 
3 188 189 190 
3 188 190 191 
3 64 65 66 
3 64 66 67 
3 68 69 70 
3 68 70 71 
3 72 73 74 
3 72 74 75 
3 76 77 78 
3 76 78 79 
3 80 81 82 
3 80 82 83 
3 84 85 86 
3 84 86 87 
3 88 89 90 
3 88 90 91 
3 92 93 94 
3 92 94 95 
3 96 97 98 
3 96 98 99 
3 100 101 102 
3 100 102 103 
3 104 105 106 
3 104 106 107 
3 108 109 110 
3 108 110 111 
3 112 113 114 
3 112 114 115 
3 116 117 118 
3 116 118 119 
3 120 121 122 
3 120 122 123 
3 192 193 4 
3 194 5 195 
3 196 97 197 
3 198 199 96 
3 200 41 110 
3 200 110 201 
3 202 203 119 
3 202 119 112 
3 204 113 118 
3 204 118 205 
3 206 207 111 
3 206 111 40 
3 124 14 21 
3 125 20 81 
3 208 82 23 
3 209 22 13 
3 109 98 210 
3 109 210 211 
3 99 108 212 
3 99 212 213 
3 214 215 7 
3 214 7 116 
3 216 217 117 
3 216 117 6 
3 218 91 42 
3 219 115 88 
3 220 89 114 
3 221 43 90 
3 32 35 104 
3 32 104 107 
3 222 223 45 
3 222 45 44 
3 224 225 85 
3 224 85 84 
3 199 197 97 
3 199 97 96 
3 34 33 16 
3 34 16 19 
3 5 4 193 
3 5 193 195 
3 39 38 69 
3 39 69 68 
3 55 54 49 
3 55 49 48 
3 111 110 41 
3 111 41 40 
3 21 20 226 
3 21 226 227 
3 23 22 30 
3 23 30 29 
3 14 13 22 
3 14 22 21 
3 113 112 119 
3 113 119 118 
3 82 81 20 
3 82 20 23 
3 15 14 124 
3 15 124 126 
3 13 12 228 
3 13 228 209 
3 127 125 81 
3 127 81 80 
3 83 82 208 
3 83 208 229 
3 211 201 110 
3 211 110 109 
3 213 198 96 
3 213 96 99 
3 116 119 203 
3 116 203 214 
3 6 5 194 
3 6 194 216 
3 118 117 217 
3 118 217 205 
3 4 7 215 
3 4 215 192 
3 207 212 108 
3 207 108 111 
3 196 210 98 
3 196 98 97 
3 117 116 7 
3 117 7 6 
3 53 52 87 
3 53 87 86 
3 37 36 47 
3 37 47 46 
3 109 108 99 
3 109 99 98 
3 0 3 72 
3 0 72 75 
3 8 11 64 
3 8 64 67 
3 24 27 2 
3 24 2 1 
3 120 123 10 
3 120 10 9 
3 74 73 101 
3 74 101 100 
3 66 65 93 
3 66 93 92 
3 103 102 230 
3 103 230 231 
3 95 94 232 
3 95 232 233 
3 71 70 88 
3 71 88 91 
3 51 50 90 
3 51 90 89 
3 43 42 91 
3 43 91 90 
3 89 88 115 
3 89 115 114 
3 40 43 221 
3 40 221 206 
3 114 113 204 
3 114 204 220 
3 219 202 112 
3 219 112 115 
3 200 218 42 
3 200 42 41 
3 234 227 226 
3 234 226 235 
3 128 129 130 
3 128 130 131 
3 129 132 133 
3 130 134 135 
3 133 134 130 
3 133 130 129 
3 135 136 131 
3 135 131 130 
3 137 132 129 
3 137 129 128 
3 133 132 138 
3 133 138 139 
3 134 133 139 
3 134 139 140 
3 135 134 140 
3 135 140 141 
3 236 142 143 
3 236 143 237 
3 238 236 237 
3 238 237 239 
3 144 145 146 
3 144 146 147 
3 148 149 146 
3 148 146 145 
3 149 148 150 
3 149 150 151 
3 152 153 154 
3 152 154 155 
3 156 157 154 
3 156 154 153 
3 157 156 158 
3 157 158 159 
3 160 161 162 
3 160 162 163 
3 164 165 162 
3 164 162 161 
3 165 164 166 
3 165 166 167 
3 168 169 170 
3 168 170 171 
3 172 173 170 
3 172 170 169 
3 173 172 174 
3 173 174 175 
3 176 177 178 
3 176 178 240 
3 179 180 181 
3 179 181 241 
3 182 183 184 
3 182 184 242 
3 185 186 187 
3 185 187 243 
