ply
format ascii 1.0
comment VCGLIB generated
element vertex 158
property float x
property float y
property float z
property float nx
property float ny
property float nz
property uchar red
property uchar green
property uchar blue
property uchar alpha
property float texture_u
property float texture_v
element face 256
property list uchar int vertex_indices
end_header
0.2017221 0.09950431 0.006830105 -0.0007962301 -0.9918963 0.1270472 255 255 0 255 0.739305 0.319799
0.1979684 0.1007277 0.01077828 -0.1714704 -0.9361313 0.3070117 255 255 0 255 0.736420 0.322101
0.1945004 0.09915253 0.004038339 -0.3102762 -0.9506465 5.821564e-07 255 255 0 255 0.735072 0.317467
0.2947609 0.3830611 -0.01366494 0.4928239 0.2901016 -0.8203449 255 255 0 255 0.515237 0.364856
0.3528008 0.5573426 -0.01650937 0.02955215 -0.7666611 -0.6413716 255 255 0 255 0.372946 0.376151
0.364245 0.5536128 -0.004472836 0.5338182 -0.7669349 -0.3561586 255 255 0 255 0.372683 0.363123
0.3046208 0.3798476 -0.003294636 0.951856 0.2144653 -0.2190317 255 255 0 255 0.514016 0.354718
0.2344456 0.2436657 -0.01242383 -0.1264749 0.3831985 -0.9149662 255 255 0 255 0.629808 0.364513
0.247412 0.2394397 -0.01242382 0.555212 0.1610272 -0.8159718 255 255 0 255 0.628156 0.355490
0.2472019 0.2297053 -0.0192237 0.3691096 -0.1059987 -0.9233214 255 255 0 255 0.635028 0.354578
0.2288796 0.2356768 -0.01922372 -0.3585171 0.1311454 -0.9242653 255 255 0 255 0.636517 0.363709
0.2709571 0.3908191 -0.003294641 -0.445779 0.6427582 -0.6230112 255 255 0 255 0.515049 0.385860
0.3251724 0.5663472 -0.00447284 -0.6998504 -0.4994606 -0.5106355 255 255 0 255 0.375847 0.399267
0.3366165 0.5626174 -0.0165094 -0.4542896 -0.2515146 -0.8546119 255 255 0 255 0.373646 0.388189
0.2808169 0.3876056 -0.01366494 -0.06271289 0.6487093 -0.758448 255 255 0 255 0.515202 0.375209
0.2709571 0.3908191 0.01137124 -0.6426893 0.7341494 0.2190323 255 255 0 255 0.511733 0.313043
0.3251724 0.5663472 0.01254946 -0.8832098 -0.3051118 0.3561563 255 255 0 255 0.370269 0.315058
0.2808169 0.3876056 0.02174158 -0.2619176 0.6100522 0.7478206 255 255 0 255 0.512580 0.323452
0.3366165 0.5626174 0.02458603 -0.4362459 -0.4507813 0.7787719 255 255 0 255 0.369028 0.326679
0.2947609 0.3830611 0.02174155 0.3628357 0.4064346 0.8385471 255 255 0 255 0.513402 0.333714
0.3528008 0.5573426 0.02458604 0.1639321 -0.6463803 0.7451971 255 255 0 255 0.369745 0.338409
0.3046207 0.3798476 0.01137124 0.8655954 0.2425784 0.4380643 255 255 0 255 0.512827 0.344283
0.364245 0.5536128 0.01254947 0.5657464 -0.7773384 0.275093 255 255 0 255 0.370618 0.350614
0.2398196 0.2187773 -0.01045376 0.2050891 -0.3936914 -0.8960723 255 255 0 255 0.645143 0.353014
0.2478909 0.2161467 -0.001964486 0.6501975 -0.6375682 -0.4132191 255 255 0 255 0.643566 0.344493
0.2017221 0.09950431 0.001246543 0.8557205 -0.349218 -0.3818236 255 255 0 255 0.730758 0.333506
0.1979684 0.1007277 -0.002701661 0.3423159 -0.1818924 -0.9218107 255 255 0 255 0.731330 0.337148
0.2478909 0.2161467 0.01004114 0.7544373 -0.6121269 0.2369072 255 255 0 255 0.642393 0.336145
0.2398196 0.2187773 0.01853038 0.342593 -0.4779007 0.8088516 255 255 0 255 0.642774 0.327744
0.2284048 0.2224975 0.01853042 -0.3331492 -0.2576664 0.9069838 255 255 0 255 0.642298 0.319407
0.1926596 0.1024579 0.01077828 -0.5000401 0.09330072 0.8609616 255 255 0 255 0.730231 0.322480
0.2203335 0.2251281 0.01004115 -0.8769431 -0.0804361 0.4738152 255 255 0 255 0.642421 0.311215
0.1889057 0.1036813 0.006830093 -0.9432444 -0.230785 0.2388062 255 255 0 255 0.730449 0.318806
0.2203335 0.2251281 -0.001964501 -0.9998299 -0.01844547 0 255 255 0 255 0.643637 0.303087
0.1889057 0.1036813 0.001246531 -0.8424416 -0.5294209 -0.1000287 255 255 0 255 0.730859 0.315136
0.2284049 0.2224975 -0.01045377 -0.5583943 -0.1842559 -0.8088545 255 255 0 255 0.646059 0.361625
0.1926596 0.1024579 -0.002701635 -0.2602823 0.01516053 -0.9654136 255 255 0 255 0.732105 0.340771
0.2935865 0.3719212 -0.01930295 0.002122344 -0.772109 -0.6354865 255 255 0 255 0.523796 0.364226
0.2752017 0.377913 -0.01930297 -0.492306 -0.6109673 -0.6199626 255 255 0 255 0.524583 0.374587
0.2754119 0.3817135 -0.0216637 -0.3631998 0.1201529 -0.9239314 255 255 0 255 0.522047 0.374806
0.2956561 0.3751157 -0.02166368 0.3644928 -0.1170146 -0.923825 255 255 0 255 0.521397 0.364433
0.3001921 0.3659956 -0.00332844 0.5487073 -0.7138228 -0.4351751 255 255 0 255 0.526670 0.353812
0.2565807 0.2364515 -0.002780518 0.9706836 0.02561953 -0.2389916 255 255 0 255 0.626611 0.346200
0.2902868 0.3692239 -0.01374656 0.04925885 -0.5510461 -0.8330197 255 255 0 255 0.528261 0.363854
0.2762784 0.3737894 -0.01374653 -0.5713745 -0.3487722 -0.7428924 255 255 0 255 0.528537 0.374129
0.2252769 0.2466539 -0.002780528 -0.5455706 0.4989706 -0.6733358 255 255 0 255 0.630283 0.374189
0.2663731 0.3770177 -0.003328418 -0.7383735 -0.2669314 -0.6193159 255 255 0 255 0.530637 0.384263
0.2252769 0.2466539 0.01085716 -0.7691767 0.592663 0.2389931 255 255 0 255 0.626410 0.310292
0.2663732 0.3770177 0.01140504 -0.8639442 -0.2534197 0.4351768 255 255 0 255 0.525943 0.312775
0.2344456 0.2436657 0.02050047 -0.3537044 0.4572558 0.815972 255 255 0 255 0.626935 0.319184
0.2762785 0.3737894 0.02182316 -0.3644964 -0.4161966 0.8330203 255 255 0 255 0.525480 0.323124
0.247412 0.2394397 0.02050044 0.3279829 0.2350852 0.9149657 255 255 0 255 0.626530 0.327940
0.2902867 0.3692239 0.02182318 0.2561366 -0.6184698 0.7428924 255 255 0 255 0.526632 0.333320
0.2565807 0.2364515 0.01085717 0.8765623 0.05629541 0.4779848 255 255 0 255 0.626605 0.336908
0.3001921 0.3659956 0.01140504 0.6343981 -0.7417508 0.2175886 255 255 0 255 0.526533 0.343664
0.3088532 0.3746751 -0.005625355 0.8301129 0.5031537 -0.2403102 255 255 0 255 0.518216 0.354558
0.2958594 0.37891 -0.01929189 0.4921818 0.6132889 -0.6177651 255 255 0 255 0.519006 0.364628
0.3594417 0.5641225 -0.02668064 0.03408137 -0.7247888 -0.6881277 255 255 0 255 0.363266 0.377215
0.335246 0.5720083 -0.02668069 -0.5001141 -0.5506858 -0.6683046 255 255 0 255 0.365087 0.389886
0.3359037 0.5768859 -0.02881972 -0.3631981 0.120267 -0.9239172 255 255 0 255 0.362336 0.390359
0.3617844 0.568451 -0.0288197 0.3644934 -0.1169001 -0.9238392 255 255 0 255 0.360555 0.377489
0.2622017 0.3821499 -0.00562996 -0.6746346 -0.5745836 -0.463381 255 255 0 255 0.526242 0.386760
0.2774834 0.384899 -0.01929188 -0.0005349409 0.7738721 -0.6333417 255 255 0 255 0.519658 0.374950
0.2644896 0.3891338 -0.005625361 -0.3044338 0.7888486 -0.5338896 255 255 0 255 0.519961 0.387347
0.2622018 0.3821499 0.01370658 -0.8167202 -0.5052387 0.2787509 255 255 0 255 0.521410 0.312684
0.2644896 0.3891338 0.01370202 -0.3742234 0.8956604 0.240311 255 255 0 255 0.516389 0.312805
0.2752017 0.377913 0.02737957 -0.4566703 -0.622586 0.6354834 255 255 0 255 0.521694 0.323260
0.2774834 0.384899 0.02736849 -0.03628952 0.7855253 0.6177645 255 255 0 255 0.516818 0.323429
0.2935866 0.3719212 0.02737956 0.03775613 -0.7837239 0.6199608 255 255 0 255 0.522101 0.333528
0.2958594 0.37891 0.0273685 0.4564288 0.6249412 0.6333414 255 255 0 255 0.517225 0.333647
0.3065864 0.3676843 0.01370657 0.3769298 -0.8942664 0.2412708 255 255 0 255 0.522410 0.343979
0.3088532 0.3746751 0.01370199 0.8153024 0.5079822 0.2779141 255 255 0 255 0.517521 0.344142
0.3065864 0.3676843 -0.005629935 0.3621708 -0.889455 -0.2787511 255 255 0 255 0.522983 0.354125
0.2601577 0.2254828 -0.005597119 0.8829839 -0.2734782 -0.3815091 255 255 0 255 0.634271 0.345467
0.2601577 0.2254828 0.01367374 0.8820876 -0.2731857 0.3837852 255 255 0 255 0.633610 0.336535
0.2472019 0.2297053 0.02730032 0.3669456 -0.1052926 0.9242643 255 255 0 255 0.632988 0.327791
0.2288795 0.2356768 0.02730035 -0.3606827 0.131852 0.9233217 255 255 0 255 0.632930 0.319192
0.2159237 0.2398993 0.01367377 -0.8745585 0.2993296 0.3815091 255 255 0 255 0.633510 0.310329
0.2159237 0.2398993 -0.005597139 -0.8471671 0.5313265 0 255 255 0 255 0.634308 0.299064
0.2610971 0.3863789 -0.006607814 -0.7221084 0.01621867 -0.6915898 255 255 0 255 0.523013 0.387849
0.2610971 0.3863789 0.01468442 -0.8779298 0.2879106 0.3825531 255 255 0 255 0.518782 0.312715
0.2754118 0.3817135 0.02974033 -0.3634453 0.1202299 0.9238248 255 255 0 255 0.519251 0.323335
0.2956561 0.3751157 0.0297403 0.3642498 -0.1169326 0.9239312 255 255 0 255 0.519667 0.333592
0.3099709 0.3704503 0.01468445 0.8788782 -0.2846557 0.382811 255 255 0 255 0.520138 0.344053
0.3099709 0.3704503 -0.006607807 0.8789785 -0.2846906 -0.3825547 255 255 0 255 0.520615 0.354339
0.3609874 0.5787835 -0.01926059 0.4055959 0.9048265 -0.1295419 255 255 0 255 0.351710 0.378364
0.3739638 0.5745543 -0.0056124 0.7379583 0.6622722 -0.1296656 255 255 0 255 0.351386 0.364840
0.379534 0.5677469 -0.008679858 0.8633168 0.4348867 -0.2560425 255 255 0 255 0.356506 0.364505
0.3624331 0.5733204 -0.0266661 0.5001262 0.5532544 -0.6661707 255 255 0 255 0.357720 0.377753
0.335698 0.5649063 -0.02033004 -0.4023046 -0.3682059 -0.8381978 255 255 0 255 0.370999 0.388622
0.336663 0.5665813 -0.01936799 -0.5477558 -0.1137654 -0.8288673 255 255 0 255 0.369784 0.388823
0.355099 0.5605728 -0.01936799 0.1447083 -0.3394445 -0.9294283 255 255 0 255 0.368250 0.376501
0.3548918 0.5586508 -0.02033005 0.4085106 -0.2694425 -0.8720779 255 255 0 255 0.369882 0.376387
0.3181369 0.5775843 -0.008685914 -0.6890174 -0.5344717 -0.4894845 255 255 0 255 0.368035 0.403712
0.3236268 0.57083 -0.005656888 -0.7298124 -0.03613194 -0.682692 255 255 0 255 0.372409 0.400727
0.3296596 0.5889937 -0.005612424 -0.1018813 0.918716 -0.3815511 255 255 0 255 0.355481 0.403524
0.342636 0.5847645 -0.01926063 0.290522 0.942822 -0.1633514 255 255 0 255 0.354281 0.391251
0.3382488 0.5812024 -0.0266661 -0.03241875 0.7268171 -0.6860656 255 255 0 255 0.359545 0.390722
0.3211479 0.5867758 -0.008679858 -0.373091 0.7247196 -0.5792967 255 255 0 255 0.361266 0.404927
0.3181369 0.5775843 0.01676255 -0.8456746 -0.4380603 0.3048569 255 255 0 255 0.361052 0.313926
0.3236268 0.57083 0.01373352 -0.8741843 -0.007380262 0.4855382 255 255 0 255 0.365659 0.314628
0.3296596 0.5889937 0.01368906 -0.2059975 0.9699238 0.1296649 255 255 0 255 0.350630 0.313781
0.3211479 0.5867758 0.0167565 -0.4412762 0.8600677 0.2560445 255 255 0 255 0.355525 0.313725
0.3352459 0.5720083 0.03475731 -0.4546117 -0.5655114 0.6881316 255 255 0 255 0.360558 0.326156
0.336663 0.5665813 0.02744463 -0.3169351 -0.1889988 0.9294254 255 255 0 255 0.365429 0.326597
0.342636 0.5847645 0.02733722 0.01941446 0.8964579 0.4427034 255 255 0 255 0.349904 0.325969
0.3382488 0.5812024 0.03474273 -0.07808324 0.7416986 0.6661729 255 255 0 255 0.355197 0.326000
0.3594418 0.5641225 0.03475729 0.07958666 -0.7396186 0.6683041 255 255 0 255 0.360389 0.338474
0.355099 0.5605728 0.02744463 0.3755245 -0.4146814 0.8288671 255 255 0 255 0.365258 0.338592
0.3609874 0.5787835 0.02733722 0.3892602 0.7759198 0.4964121 255 255 0 255 0.349033 0.338731
0.3624331 0.5733204 0.03474271 0.4544628 0.5681353 0.6860656 255 255 0 255 0.354983 0.338636
0.3765508 0.5585464 0.01676253 0.4439936 -0.8583835 0.2569972 255 255 0 255 0.361196 0.351102
0.3681352 0.5563241 0.01373353 0.797568 -0.5522206 0.2427709 255 255 0 255 0.366365 0.350995
0.3739638 0.5745543 0.01368906 0.6868921 0.6789163 0.2593299 255 255 0 255 0.350116 0.351807
0.379534 0.5677469 0.0167565 0.8444033 0.441049 0.3040704 255 255 0 255 0.355628 0.351588
0.3765508 0.5585464 -0.008685916 0.4251443 -0.8522413 -0.3048559 255 255 0 255 0.362103 0.364051
0.3681352 0.5563241 -0.005656874 0.7019604 -0.521059 -0.48554 255 255 0 255 0.367691 0.363525
0.3176033 0.5828502 -0.009571927 -0.7100661 0.07922488 -0.6996638 255 255 0 255 0.364760 0.404954
0.3176033 0.5828502 0.01764857 -0.8778827 0.2880062 0.3825891 255 255 0 255 0.358280 0.313770
0.3359038 0.5768859 0.03689632 -0.3633766 0.1203286 0.923839 255 255 0 255 0.357883 0.326056
0.3617844 0.568451 0.03689633 0.3643162 -0.1168358 0.9239173 255 255 0 255 0.357762 0.338545
0.3800848 0.5624866 0.01764856 0.8789259 -0.284554 0.3827773 255 255 0 255 0.358413 0.351345
0.3800848 0.5624866 -0.009571935 0.8790002 -0.2845787 -0.3825881 255 255 0 255 0.359195 0.364293
0.3684638 0.5542275 -0.006055376 0.7371793 -0.595326 -0.3196151 255 255 0 255 0.369086 0.363405
0.3684638 0.5542275 0.01413201 0.7054979 -0.5850078 0.4000482 255 255 0 255 0.367523 0.350884
0.3548917 0.5586508 0.02840664 0.1992699 -0.420022 0.8853661 255 255 0 255 0.366821 0.338519
0.335698 0.5649063 0.02840665 -0.4849684 -0.1970186 0.8520501 255 255 0 255 0.366545 0.326617
0.322126 0.5693296 0.01413202 -0.9464005 -0.04664561 0.3196097 255 255 0 255 0.367136 0.314753
0.322126 0.5693296 -0.006055385 -0.9459664 -0.3242646 -7.669024e-07 255 255 0 255 0.368635 0.301458
0.3476478 0.5713643 0.004038288 0.3157059 0.9488571 -1.901129e-07 255 255 0 255 0.336334 0.388609
0.3251724 0.5663472 -0.00447284 -0.9988676 -0.04757712 2.190804e-06 255 255 0 255 0.371277 0.302717
0.2709571 0.3908191 -0.003294641 -0.691138 0.7227229 0 255 255 0 255 0.511198 0.302522
0.2017221 0.09950431 0.006830105 0.7980589 -0.3297673 0.5043367 255 255 0 255 0.730386 0.329840
0.1979684 0.1007277 0.01077828 0.2192347 -0.1411207 0.9654124 255 255 0 255 0.730213 0.326153
0.1889057 0.1036813 0.001246531 -0.6901628 0.1599384 -0.7057585 255 255 0 255 0.733126 0.344572
0.2203335 0.2251281 -0.001964501 -0.7366969 -0.1042045 -0.668146 255 255 0 255 0.648294 0.369740
0.2663731 0.3770177 -0.003328418 -0.9822761 -0.1874396 2.665194e-06 255 255 0 255 0.526099 0.302130
0.2252769 0.2466539 -0.002780528 -0.8107483 0.585395 0 255 255 0 255 0.625932 0.300962
0.2622017 0.3821499 -0.00562996 -0.9222837 -0.3865137 1.828334e-06 255 255 0 255 0.521782 0.300456
0.2644896 0.3891338 -0.005625361 -0.3860182 0.9224911 0 255 255 0 255 0.515498 0.300592
0.2159237 0.2398993 -0.005597139 -0.7237179 0.006356582 -0.6900667 255 255 0 255 0.638967 0.375077
0.2610971 0.3863789 -0.006607814 -0.8637824 0.5038651 0 255 255 0 255 0.518765 0.299741
0.3181369 0.5775843 -0.008685914 -0.9575771 -0.2881773 0 255 255 0 255 0.362541 0.299162
0.3236268 0.57083 -0.005656888 -0.9986733 0.05149414 -7.022914e-07 255 255 0 255 0.367347 0.301560
0.3296596 0.5889937 -0.005612424 -0.252143 0.96769 0 255 255 0 255 0.349474 0.301175
0.3211479 0.5867758 -0.008679858 -0.4315639 0.9020824 8.069949e-07 255 255 0 255 0.355466 0.298811
0.3176033 0.5828502 -0.009571927 -0.8944517 0.4471646 6.26783e-07 255 255 0 255 0.359114 0.298314
0.322126 0.5693296 -0.006055385 -0.6708405 0.2235746 -0.7070979 255 255 0 255 0.373585 0.400694
0.1926596 0.1024579 0.01077828 -0.41339 -0.8570867 0.3074268 255 255 0 255 0.732751 0.321688
0.2017221 0.09950431 0.001246543 -0.0007963692 -0.9918965 -0.1270462 255 255 0 255 0.739716 0.316127
0.1979684 0.1007277 -0.002701661 -0.1714715 -0.9361318 -0.3070097 255 255 0 255 0.737410 0.313244
0.1926596 0.1024579 -0.002701635 -0.4133901 -0.857087 -0.3074255 255 255 0 255 0.733747 0.312834
0.3739638 0.5745543 -0.0056124 -0.06369191 0.9862753 0.1523299 255 255 0 255 0.339819 0.370005
0.3739638 0.5745543 0.01368906 -0.06369147 0.9862754 -0.1523298 255 255 0 255 0.325917 0.372801
0.3609874 0.5787835 0.02733722 0.1388746 0.9178697 -0.3717917 255 255 0 255 0.318084 0.384613
0.342636 0.5847645 0.02733722 0.4330155 0.8184849 -0.3775977 255 255 0 255 0.320898 0.398486
0.3296596 0.5889937 0.01368906 0.6465605 0.7462926 -0.1581359 255 255 0 255 0.332681 0.406301
0.3296596 0.5889937 -0.005612424 0.6465611 0.7462922 0.1581349 255 255 0 255 0.346537 0.403515
3 0 1 2 
3 3 4 5 
3 3 5 6 
3 7 8 9 
3 7 9 10 
3 11 12 13 
3 11 13 14 
3 15 16 130 
3 15 130 131 
3 17 18 16 
3 17 16 15 
3 19 20 18 
3 19 18 17 
3 21 22 20 
3 21 20 19 
3 6 5 22 
3 6 22 21 
3 23 24 25 
3 23 25 26 
3 25 24 27 
3 25 27 132 
3 132 27 28 
3 132 28 133 
3 133 28 29 
3 133 29 30 
3 30 29 31 
3 30 31 32 
3 32 31 33 
3 32 33 34 
3 134 135 35 
3 134 35 36 
3 37 38 39 
3 37 39 40 
3 41 42 8 
3 41 8 43 
3 7 44 43 
3 7 43 8 
3 44 7 45 
3 44 45 46 
3 136 137 47 
3 136 47 48 
3 48 47 49 
3 48 49 50 
3 50 49 51 
3 50 51 52 
3 52 51 53 
3 52 53 54 
3 54 53 42 
3 54 42 41 
3 3 6 55 
3 3 55 56 
3 57 58 59 
3 57 59 60 
3 61 38 44 
3 61 44 46 
3 11 14 62 
3 11 62 63 
3 64 138 136 
3 64 136 48 
3 15 131 139 
3 15 139 65 
3 66 64 48 
3 66 48 50 
3 17 15 65 
3 17 65 67 
3 68 66 50 
3 68 50 52 
3 19 17 67 
3 19 67 69 
3 70 68 52 
3 70 52 54 
3 21 19 69 
3 21 69 71 
3 72 70 54 
3 72 54 41 
3 6 21 71 
3 6 71 55 
3 37 72 41 
3 37 41 43 
3 38 37 43 
3 38 43 44 
3 10 9 23 
3 10 23 35 
3 8 42 73 
3 8 73 9 
3 9 73 24 
3 9 24 23 
3 42 53 74 
3 42 74 73 
3 73 74 27 
3 73 27 24 
3 53 51 75 
3 53 75 74 
3 74 75 28 
3 74 28 27 
3 51 49 76 
3 51 76 75 
3 75 76 29 
3 75 29 28 
3 49 47 77 
3 49 77 76 
3 76 77 31 
3 76 31 29 
3 47 137 78 
3 47 78 77 
3 77 78 33 
3 77 33 31 
3 45 7 10 
3 45 10 140 
3 140 10 35 
3 140 35 135 
3 23 26 36 
3 23 36 35 
3 40 39 62 
3 40 62 56 
3 38 61 79 
3 38 79 39 
3 39 79 63 
3 39 63 62 
3 138 64 80 
3 138 80 141 
3 141 80 65 
3 141 65 139 
3 64 66 81 
3 64 81 80 
3 80 81 67 
3 80 67 65 
3 66 68 82 
3 66 82 81 
3 81 82 69 
3 81 69 67 
3 68 70 83 
3 68 83 82 
3 82 83 71 
3 82 71 69 
3 70 72 84 
3 70 84 83 
3 83 84 55 
3 83 55 71 
3 72 37 40 
3 72 40 84 
3 84 40 56 
3 84 56 55 
3 14 3 56 
3 14 56 62 
3 85 86 87 
3 85 87 88 
3 89 90 91 
3 89 91 92 
3 93 58 90 
3 93 90 94 
3 95 96 97 
3 95 97 98 
3 99 142 143 
3 99 143 100 
3 101 144 145 
3 101 145 102 
3 103 99 100 
3 103 100 104 
3 105 101 102 
3 105 102 106 
3 107 103 104 
3 107 104 108 
3 109 105 106 
3 109 106 110 
3 111 107 108 
3 111 108 112 
3 113 109 110 
3 113 110 114 
3 115 111 112 
3 115 112 116 
3 86 113 114 
3 86 114 87 
3 57 115 116 
3 57 116 91 
3 58 57 91 
3 58 91 90 
3 60 59 97 
3 60 97 88 
3 58 93 117 
3 58 117 59 
3 59 117 98 
3 59 98 97 
3 142 99 118 
3 142 118 146 
3 146 118 102 
3 146 102 145 
3 99 103 119 
3 99 119 118 
3 118 119 106 
3 118 106 102 
3 103 107 120 
3 103 120 119 
3 119 120 110 
3 119 110 106 
3 107 111 121 
3 107 121 120 
3 120 121 114 
3 120 114 110 
3 111 115 122 
3 111 122 121 
3 121 122 87 
3 121 87 114 
3 115 57 60 
3 115 60 122 
3 122 60 88 
3 122 88 87 
3 96 85 88 
3 96 88 97 
3 4 92 123 
3 4 123 5 
3 112 124 123 
3 112 123 116 
3 108 125 124 
3 108 124 112 
3 104 126 125 
3 104 125 108 
3 100 127 126 
3 100 126 104 
3 143 128 127 
3 143 127 100 
3 90 89 147 
3 90 147 94 
3 1 148 2 
3 116 123 92 
3 116 92 91 
3 89 92 4 
3 89 4 13 
3 12 147 89 
3 12 89 13 
3 16 127 128 
3 16 128 130 
3 18 126 127 
3 18 127 16 
3 20 125 126 
3 20 126 18 
3 22 124 125 
3 22 125 20 
3 5 123 124 
3 5 124 22 
3 149 0 2 
3 150 149 2 
3 32 34 2 
3 13 4 3 
3 13 3 14 
3 34 151 2 
3 150 2 151 
3 148 32 2 
3 152 85 129 
3 85 96 129 
3 153 152 129 
3 154 153 129 
3 155 154 129 
3 156 155 129 
3 157 156 129 
3 96 157 129 
