ply
format ascii 1.0
comment VCGLIB generated
element vertex 12
property float x
property float y
property float z
property float nx
property float ny
property float nz
property uchar red
property uchar green
property uchar blue
property uchar alpha
property float texture_u
property float texture_v
element face 12
property list uchar int vertex_indices
end_header
-1.249583 0.01 -1.244278 -0.6666667 0.6666667 -0.3333333 255 255 0 255 0.000000 0.500000
-1.249583 0.01 1.255722 -0.4082483 0.4082483 0.8164966 255 255 0 255 0.000000 0.500000
1.250417 0.01 1.255722 0.6666667 0.6666667 0.3333333 255 255 0 255 0.000000 0.500000
1.250417 0.01 -1.244278 0.4082483 0.4082483 -0.8164966 255 255 0 255 0.000000 0.500000
-1.249583 -5.010888e-05 1.255722 -0.6666667 -0.6666667 0.3333333 255 255 0 255 0.000000 0.000000
-1.249583 -4.989095e-05 -1.244278 -0.4082483 -0.4082483 -0.8164966 255 255 0 255 1.000000 0.000000
1.250417 -4.989095e-05 -1.244278 0.6666667 -0.6666667 -0.3333334 255 255 0 255 1.000000 1.000000
1.250417 -5.010888e-05 1.255722 0.4082483 -0.4082483 0.8164966 255 255 0 255 0.000000 1.000000
-1.249583 -5.010888e-05 1.255722 -0.6666667 -0.6666667 0.3333333 255 255 0 255 0.000000 0.500000
1.250417 -5.010888e-05 1.255722 0.4082483 -0.4082483 0.8164966 255 255 0 255 0.000000 0.500000
1.250417 -4.989095e-05 -1.244278 0.6666667 -0.6666667 -0.3333334 255 255 0 255 0.000000 0.500000
-1.249583 -4.989095e-05 -1.244278 -0.4082483 -0.4082483 -0.8164966 255 255 0 255 0.000000 0.500000
3 0 1 2 
3 0 2 3 
3 4 5 6 
3 4 6 7 
3 1 8 9 
3 1 9 2 
3 2 9 10 
3 2 10 3 
3 3 10 11 
3 3 11 0 
3 0 11 8 
3 0 8 1 
