ply
format ascii 1.0
comment VCGLIB generated
element vertex 342
property float x
property float y
property float z
property float nx
property float ny
property float nz
property uchar red
property uchar green
property uchar blue
property uchar alpha
property float texture_u
property float texture_v
element face 252
property list uchar int vertex_indices
end_header
0.5 0.1685923 -0.15 0 1 0 255 255 0 255 0.970048 0.208219
-0.5 0.1685923 -0.15 0 1 0 255 255 0 255 0.634792 0.208219
-0.5 0.1685923 0.1701425 0 0.9675382 0.2527251 255 255 0 255 0.634792 0.100889
0.5 0.1685923 0.1701425 0 0.8628558 0.5054501 255 255 0 255 0.970048 0.100889
-0.5 0.1517584 -0.15 0 0 -1 255 255 0 255 0.751381 0.254324
0.5 0.1517584 -0.15 0 0 -1 255 255 0 255 0.973050 0.254324
-0.5 0.1517584 0.1359138 -1 0 0 255 255 0 255 0.616805 0.248052
-0.5 0.002847478 -0.15 -1 0 0 255 255 0 255 0.714559 0.298965
-0.5 0.002847478 0.1359138 -1 0 0 255 255 0 255 0.616805 0.298964
0.5 0.1517584 0.1359138 0 0 1 255 255 0 255 0.976478 0.075294
0.5 0.002847478 0.1359138 0 0 1 255 255 0 255 0.976478 0.024407
0.5 0.1617587 0.176976 1 0 0 255 255 0 255 0.602766 0.361109
0.5 0.1517584 0.176976 1 0 0 255 255 0 255 0.602766 0.357689
-0.5 0.1617587 0.176976 0 0.3826829 0.9238797 255 255 0 255 0.634756 0.095038
-0.5 0.1517584 0.176976 0 -0.7071068 0.7071068 255 255 0 255 0.634800 0.089187
0.5 0.002847478 -0.15 1 0 0 255 255 0 255 0.714559 0.306777
0.5 0.3340923 -0.436 0 1 0 255 255 0 255 0.636062 0.208219
-0.5 0.3340923 -0.436 0 1 0 255 255 0 255 0.971318 0.208219
-0.5 0.3340923 -0.1158575 0 0.9675384 0.2527241 255 255 0 255 0.971318 0.100889
0.5 0.3340923 -0.1158575 0 0.862857 0.5054482 255 255 0 255 0.636062 0.100889
-0.5 0.3172584 -0.436 0 0 -1 255 255 0 255 0.751381 0.254324
0.5 0.3172584 -0.436 0 0 -1 255 255 0 255 0.973050 0.254324
-0.5 0.3172584 -0.1500862 -1 0 0 255 255 0 255 0.616805 0.248052
-0.5 0.1683475 -0.436 -1 0 0 255 255 0 255 0.714559 0.298965
0.5 0.3172584 -0.1500862 0 0.0005797439 0.9999998 255 255 0 255 0.629632 0.075294
0.5 0.3272588 -0.109024 1 0 0 255 255 0 255 0.602766 0.361109
0.5 0.3172584 -0.109024 1 0 0 255 255 0 255 0.602766 0.357689
-0.5 0.3272588 -0.109024 0 0.3826845 0.9238791 255 255 0 255 0.971353 0.095038
-0.5 0.3172584 -0.109024 0 -0.7071068 0.7071068 255 255 0 255 0.971309 0.089187
0.5 0.1683475 -0.436 1 0 0 255 255 0 255 0.714559 0.306777
0.5 0.4995923 -0.7220001 0 1 0 255 255 0 255 0.970048 0.208219
-0.5 0.4995923 -0.7220001 0 1 0 255 255 0 255 0.634792 0.208219
-0.5 0.4995923 -0.4018575 0 0.9675381 0.2527254 255 255 0 255 0.634792 0.100889
0.5 0.4995923 -0.4018575 0 0.8628554 0.5054508 255 255 0 255 0.970048 0.100889
-0.5 0.4827584 -0.7220001 0 0 -1 255 255 0 255 0.751381 0.254324
0.5 0.4827584 -0.7220001 0 0 -1 255 255 0 255 0.973050 0.254324
-0.5 0.4827584 -0.4360862 -1 0 0 255 255 0 255 0.616805 0.248052
-0.5 0.3338475 -0.7220001 -1 0 0 255 255 0 255 0.714559 0.298965
0.5 0.4827584 -0.4360862 0 0.0005797439 0.9999998 255 255 0 255 0.976478 0.075294
0.5 0.4927588 -0.395024 1 0 0 255 255 0 255 0.602766 0.361109
0.5 0.4827584 -0.395024 1 0 0 255 255 0 255 0.602766 0.357689
-0.5 0.4927588 -0.395024 0 0.3826824 0.9238799 255 255 0 255 0.634756 0.095038
-0.5 0.4827584 -0.395024 0 -0.7071068 0.7071068 255 255 0 255 0.634800 0.089187
0.5 0.3338475 -0.7220001 1 0 0 255 255 0 255 0.714559 0.306777
0.5 0.6650923 -1.008 0 1 0 255 255 0 255 0.636062 0.208219
-0.5 0.6650923 -1.008 0 1 0 255 255 0 255 0.971318 0.208219
-0.5 0.6650923 -0.6878576 0 0.9675379 0.252726 255 255 0 255 0.971318 0.100889
0.5 0.6650923 -0.6878576 0 0.8628547 0.505452 255 255 0 255 0.636062 0.100889
-0.5 0.6482584 -1.008 0 0 -1 255 255 0 255 0.751381 0.254324
0.5 0.6482584 -1.008 0 0 -1 255 255 0 255 0.973050 0.254324
-0.5 0.6482584 -0.7220863 -1 0 0 255 255 0 255 0.616805 0.248052
-0.5 0.4993475 -1.008 -1 0 0 255 255 0 255 0.714559 0.298965
0.5 0.6482584 -0.7220863 0 0.0005797439 0.9999998 255 255 0 255 0.629632 0.075294
0.5 0.6582587 -0.6810241 1 0 0 255 255 0 255 0.602766 0.361109
0.5 0.6482584 -0.6810241 1 0 0 255 255 0 255 0.602766 0.357689
-0.5 0.6582587 -0.6810241 0 0.3826814 0.9238804 255 255 0 255 0.971353 0.095038
-0.5 0.6482584 -0.6810241 0 -0.7071068 0.7071068 255 255 0 255 0.971309 0.089187
0.5 0.4993475 -1.008 1 0 0 255 255 0 255 0.714559 0.306777
0.5 0.8305923 -1.294 0 1 0 255 255 0 255 0.636062 0.208219
-0.5 0.8305923 -1.294 0 1 0 255 255 0 255 0.971318 0.208219
-0.5 0.8305923 -0.9738576 0 0.9675382 0.2527248 255 255 0 255 0.971318 0.100889
0.5 0.8305923 -0.9738576 0 0.8628562 0.5054495 255 255 0 255 0.636062 0.100889
-0.5 0.8137584 -1.294 0 0 -1 255 255 0 255 0.751381 0.254324
0.5 0.8137584 -1.294 0 0 -1 255 255 0 255 0.973050 0.254324
-0.5 0.8137584 -1.008086 -1 0 0 255 255 0 255 0.616805 0.248052
-0.5 0.6648475 -1.294 -1 0 0 255 255 0 255 0.714559 0.298965
0.5 0.8137584 -1.008086 0 0.0005789421 0.9999998 255 255 0 255 0.629632 0.075294
0.5 0.8237588 -0.9670241 1 0 0 255 255 0 255 0.602766 0.361109
0.5 0.8137584 -0.9670241 1 0 0 255 255 0 255 0.602766 0.357689
-0.5 0.8237588 -0.9670241 0 0.3826835 0.9238795 255 255 0 255 0.971353 0.095038
-0.5 0.8137584 -0.9670241 0 -0.7071068 0.7071068 255 255 0 255 0.971309 0.089187
0.5 0.6648475 -1.294 1 0 0 255 255 0 255 0.714559 0.306777
0.5 0.9960923 -1.58 0 1 0 255 255 0 255 0.970048 0.208219
-0.5 0.9960923 -1.58 0 1 0 255 255 0 255 0.634792 0.208219
-0.5 0.9960923 -1.259858 0 0.9675382 0.2527248 255 255 0 255 0.634792 0.100889
0.5 0.9960923 -1.259858 0 0.8628562 0.5054495 255 255 0 255 0.970048 0.100889
-0.5 0.9792584 -1.58 0 0 -1 255 255 0 255 0.751381 0.254324
0.5 0.9792584 -1.58 0 0 -1 255 255 0 255 0.973050 0.254324
-0.5 0.9792584 -1.294086 -1 0 0 255 255 0 255 0.616805 0.248052
-0.5 0.8303475 -1.58 -1 0 0 255 255 0 255 0.714559 0.298965
0.5 0.9792584 -1.294086 0 0.0005789421 0.9999998 255 255 0 255 0.976478 0.075294
0.5 0.9892587 -1.253024 1 0 0 255 255 0 255 0.602766 0.361109
0.5 0.9792584 -1.253024 1 0 0 255 255 0 255 0.602766 0.357689
-0.5 0.9892587 -1.253024 0 0.3826835 0.9238795 255 255 0 255 0.634756 0.095038
-0.5 0.9792584 -1.253024 0 -0.7071068 0.7071068 255 255 0 255 0.634800 0.089187
0.5 0.8303475 -1.58 1 0 0 255 255 0 255 0.714559 0.306777
0.5 1.161592 -1.866 0 1 0 255 255 0 255 0.636062 0.208219
-0.5 1.161592 -1.866 0 1 0 255 255 0 255 0.971318 0.208219
-0.5 1.161592 -1.545858 0 0.9675382 0.2527248 255 255 0 255 0.971318 0.100889
0.5 1.161592 -1.545858 0 0.8628562 0.5054495 255 255 0 255 0.636062 0.100889
-0.5 1.144758 -1.866 0 0 -1 255 255 0 255 0.751381 0.254324
0.5 1.144758 -1.866 0 0 -1 255 255 0 255 0.973050 0.254324
-0.5 1.144758 -1.580086 -1 0 0 255 255 0 255 0.616805 0.248052
-0.5 0.9958475 -1.866 -1 0 0 255 255 0 255 0.714559 0.298965
0.5 1.144758 -1.580086 0 0.0005789424 0.9999998 255 255 0 255 0.629632 0.075294
0.5 1.154759 -1.539024 1 0 0 255 255 0 255 0.602766 0.361109
0.5 1.144758 -1.539024 1 0 0 255 255 0 255 0.602766 0.357689
-0.5 1.154759 -1.539024 0 0.3826835 0.9238795 255 255 0 255 0.971353 0.095038
-0.5 1.144758 -1.539024 0 -0.7071068 0.7071068 255 255 0 255 0.971309 0.089187
0.5 0.9958475 -1.866 1 0 0 255 255 0 255 0.714559 0.306777
0.5 1.327092 -2.152 0 1 0 255 255 0 255 0.970048 0.208219
-0.5 1.327092 -2.152 0 1 0 255 255 0 255 0.634792 0.208219
-0.5 1.327092 -1.831858 0 0.9675382 0.2527248 255 255 0 255 0.634792 0.100889
0.5 1.327092 -1.831858 0 0.8628562 0.5054495 255 255 0 255 0.970048 0.100889
-0.5 1.310258 -2.152 0 0 -1 255 255 0 255 0.751381 0.254324
0.5 1.310258 -2.152 0 0 -1 255 255 0 255 0.973050 0.254324
-0.5 1.310258 -1.866086 -1 0 0 255 255 0 255 0.616805 0.248052
-0.5 1.161347 -2.152 -1 0 0 255 255 0 255 0.714559 0.298965
0.5 1.310258 -1.866086 0 0.0005789421 0.9999998 255 255 0 255 0.976478 0.075294
0.5 1.320259 -1.825024 1 0 0 255 255 0 255 0.602766 0.361109
0.5 1.310258 -1.825024 1 0 0 255 255 0 255 0.602766 0.357689
-0.5 1.320259 -1.825024 0 0.3826835 0.9238795 255 255 0 255 0.634756 0.095038
-0.5 1.310258 -1.825024 0 -0.7071068 0.7071068 255 255 0 255 0.634800 0.089187
0.5 1.161347 -2.152 1 0 0 255 255 0 255 0.714559 0.306777
0.5 1.492592 -2.438 0 1 0 255 255 0 255 0.970048 0.208219
-0.5 1.492592 -2.438 0 1 0 255 255 0 255 0.634792 0.208219
-0.5 1.492592 -2.117858 0 0.9675382 0.2527248 255 255 0 255 0.634792 0.100889
0.5 1.492592 -2.117858 0 0.8628562 0.5054495 255 255 0 255 0.970048 0.100889
-0.5 1.475758 -2.438 0 0 -1 255 255 0 255 0.751381 0.254324
0.5 1.475758 -2.438 0 0 -1 255 255 0 255 0.973050 0.254324
-0.5 1.475758 -2.152086 -1 0 0 255 255 0 255 0.616805 0.248052
-0.5 1.326847 -2.438 -1 0 0 255 255 0 255 0.714559 0.298965
0.5 1.475758 -2.152086 0 0.0005789421 0.9999998 255 255 0 255 0.976478 0.075294
0.5 1.485759 -2.111024 1 0 0 255 255 0 255 0.602766 0.361109
0.5 1.475758 -2.111024 1 0 0 255 255 0 255 0.602766 0.357689
-0.5 1.485759 -2.111024 0 0.3826835 0.9238795 255 255 0 255 0.634756 0.095038
-0.5 1.475758 -2.111024 0 -0.7071068 0.7071068 255 255 0 255 0.634800 0.089187
0.5 1.326847 -2.438 1 0 0 255 255 0 255 0.714559 0.306777
-0.5 0.1685923 -0.15 0 0 -1 255 255 0 255 0.751383 0.250455
0.5 0.1685923 -0.15 0 0 -1 255 255 0 255 0.973052 0.250455
-0.5 0.1517584 -0.15 -1 0 0 255 255 0 255 0.714559 0.248052
-0.5 0.1685923 0.1701425 -1 0 0 255 255 0 255 0.605103 0.242297
-0.5 0.1685923 -0.15 -1 0 0 255 255 0 255 0.714559 0.242297
-0.5 0.1517584 0.1359138 0 0 1 255 255 0 255 0.634756 0.075294
-0.5 0.002847478 0.1359138 0 0 1 255 255 0 255 0.634756 0.024407
0.5 0.1517584 0.1359138 1 0 0 255 255 0 255 0.616806 0.357689
0.5 0.1685923 0.1701425 1 0 0 255 255 0 255 0.605103 0.363445
0.5 0.1617587 0.176976 0 0.3826829 0.9238797 255 255 0 255 0.970012 0.095038
0.5 0.1517584 0.176976 0 -0.7071068 0.7071068 255 255 0 255 0.970056 0.089187
0.5 0.1517584 -0.15 1 0 0 255 255 0 255 0.714559 0.357689
0.5 0.002847478 0.1359138 1 0 0 255 255 0 255 0.616806 0.306777
-0.5 0.1517584 0.1359138 0 -1 0 255 255 0 255 0.634800 0.075421
0.5 0.1517584 0.1359138 0 -1 0 255 255 0 255 0.970056 0.075421
0.5 0.002847478 -0.15 0 -0.7071068 -0.7071068 255 255 0 255 0.973050 0.287333
-0.5 0.002847478 -0.15 0 -0.7071068 -0.7071068 255 255 0 255 0.751381 0.287333
-0.5 0.002847478 0.1359138 0 -1 0 255 255 0 255 0.751381 0.350712
0.5 0.002847478 0.1359138 0 -1 0 255 255 0 255 0.973050 0.350712
0.5 0.1685923 -0.15 1 0 0 255 255 0 255 0.714559 0.363445
-0.5 0.1517584 0.176976 -1 0 0 255 255 0 255 0.602766 0.248052
-0.5 0.1617587 0.176976 -1 0 0 255 255 0 255 0.602766 0.244633
-0.5 0.3340923 -0.436 0 0 -1 255 255 0 255 0.751383 0.250455
0.5 0.3340923 -0.436 0 0 -1 255 255 0 255 0.973052 0.250455
-0.5 0.3172584 -0.436 -1 0 0 255 255 0 255 0.714559 0.248052
-0.5 0.1685923 -0.15 -1 0 0 255 255 0 255 0.616805 0.298964
-0.5 0.3340923 -0.1158575 -1 0 0 255 255 0 255 0.605103 0.242297
-0.5 0.3340923 -0.436 -1 0 0 255 255 0 255 0.714559 0.242297
-0.5 0.3172584 -0.1500862 0 0.0005797439 0.9999998 255 255 0 255 0.971353 0.075294
-0.5 0.1685923 -0.15 0 0.0005797439 0.9999998 255 255 0 255 0.971353 0.024407
0.5 0.1685923 -0.15 0 0.0005797439 0.9999998 255 255 0 255 0.629632 0.024407
0.5 0.3172584 -0.1500862 1 0 0 255 255 0 255 0.616806 0.357689
0.5 0.3340923 -0.1158575 1 0 0 255 255 0 255 0.605103 0.363445
0.5 0.3272588 -0.109024 0 0.3826845 0.9238791 255 255 0 255 0.636097 0.095038
0.5 0.3172584 -0.109024 0 -0.7071068 0.7071068 255 255 0 255 0.636053 0.089187
0.5 0.3172584 -0.436 1 0 0 255 255 0 255 0.714559 0.357689
0.5 0.1685923 -0.15 1 0 0 255 255 0 255 0.616806 0.306777
-0.5 0.3172584 -0.1500862 0 -1 0 255 255 0 255 0.971309 0.075421
0.5 0.3172584 -0.1500862 0 -1 0 255 255 0 255 0.636053 0.075421
0.5 0.1683475 -0.436 0 -0.7074094 -0.7068041 255 255 0 255 0.973050 0.287333
-0.5 0.1683475 -0.436 0 -0.7074094 -0.7068041 255 255 0 255 0.751381 0.287333
-0.5 0.1685923 -0.15 0 -0.9999997 0.0008559307 255 255 0 255 0.751381 0.350712
0.5 0.1685923 -0.15 0 -0.9999997 0.0008559307 255 255 0 255 0.973050 0.350712
0.5 0.3340923 -0.436 1 0 0 255 255 0 255 0.714559 0.363445
-0.5 0.3172584 -0.109024 -1 0 0 255 255 0 255 0.602766 0.248052
-0.5 0.3272588 -0.109024 -1 0 0 255 255 0 255 0.602766 0.244633
-0.5 0.4995923 -0.7220001 0 0 -1 255 255 0 255 0.751383 0.250455
0.5 0.4995923 -0.7220001 0 0 -1 255 255 0 255 0.973052 0.250455
-0.5 0.4827584 -0.7220001 -1 0 0 255 255 0 255 0.714559 0.248052
-0.5 0.3340923 -0.436 -1 0 0 255 255 0 255 0.616805 0.298964
-0.5 0.4995923 -0.4018575 -1 0 0 255 255 0 255 0.605103 0.242297
-0.5 0.4995923 -0.7220001 -1 0 0 255 255 0 255 0.714559 0.242297
-0.5 0.4827584 -0.4360862 0 0.0005797439 0.9999998 255 255 0 255 0.634756 0.075294
-0.5 0.3340923 -0.436 0 0.0005797439 0.9999998 255 255 0 255 0.634756 0.024407
0.5 0.3340923 -0.436 0 0.0005797439 0.9999998 255 255 0 255 0.976478 0.024407
0.5 0.4827584 -0.4360862 1 0 0 255 255 0 255 0.616806 0.357689
0.5 0.4995923 -0.4018575 1 0 0 255 255 0 255 0.605103 0.363445
0.5 0.4927588 -0.395024 0 0.3826824 0.9238799 255 255 0 255 0.970012 0.095038
0.5 0.4827584 -0.395024 0 -0.7071068 0.7071068 255 255 0 255 0.970056 0.089187
0.5 0.4827584 -0.7220001 1 0 0 255 255 0 255 0.714559 0.357689
0.5 0.3340923 -0.436 1 0 0 255 255 0 255 0.616806 0.306777
-0.5 0.4827584 -0.4360862 0 -1 0 255 255 0 255 0.634800 0.075421
0.5 0.4827584 -0.4360862 0 -1 0 255 255 0 255 0.970056 0.075421
0.5 0.3338475 -0.7220001 0 -0.7074093 -0.7068041 255 255 0 255 0.973050 0.287333
-0.5 0.3338475 -0.7220001 0 -0.7074093 -0.7068041 255 255 0 255 0.751381 0.287333
-0.5 0.3340923 -0.436 0 -0.9999996 0.0008559306 255 255 0 255 0.751381 0.350712
0.5 0.3340923 -0.436 0 -0.9999996 0.0008559306 255 255 0 255 0.973050 0.350712
0.5 0.4995923 -0.7220001 1 0 0 255 255 0 255 0.714559 0.363445
-0.5 0.4827584 -0.395024 -1 0 0 255 255 0 255 0.602766 0.248052
-0.5 0.4927588 -0.395024 -1 0 0 255 255 0 255 0.602766 0.244633
-0.5 0.6650923 -1.008 0 0 -1 255 255 0 255 0.751383 0.250455
0.5 0.6650923 -1.008 0 0 -1 255 255 0 255 0.973052 0.250455
-0.5 0.6482584 -1.008 -1 0 0 255 255 0 255 0.714559 0.248052
-0.5 0.4995923 -0.7220001 -1 0 0 255 255 0 255 0.616805 0.298964
-0.5 0.6650923 -0.6878576 -1 0 0 255 255 0 255 0.605103 0.242297
-0.5 0.6650923 -1.008 -1 0 0 255 255 0 255 0.714559 0.242297
-0.5 0.6482584 -0.7220863 0 0.0005797439 0.9999998 255 255 0 255 0.971353 0.075294
-0.5 0.4995923 -0.7220001 0 0.0005797439 0.9999998 255 255 0 255 0.971353 0.024407
0.5 0.4995923 -0.7220001 0 0.0005797439 0.9999998 255 255 0 255 0.629632 0.024407
0.5 0.6482584 -0.7220863 1 0 0 255 255 0 255 0.616806 0.357689
0.5 0.6650923 -0.6878576 1 0 0 255 255 0 255 0.605103 0.363445
0.5 0.6582587 -0.6810241 0 0.3826814 0.9238804 255 255 0 255 0.636097 0.095038
0.5 0.6482584 -0.6810241 0 -0.7071068 0.7071068 255 255 0 255 0.636053 0.089187
0.5 0.6482584 -1.008 1 0 0 255 255 0 255 0.714559 0.357689
0.5 0.4995923 -0.7220001 1 0 0 255 255 0 255 0.616806 0.306777
-0.5 0.6482584 -0.7220863 0 -1 0 255 255 0 255 0.971309 0.075421
0.5 0.6482584 -0.7220863 0 -1 0 255 255 0 255 0.636053 0.075421
0.5 0.4993475 -1.008 0 -0.7074093 -0.7068041 255 255 0 255 0.973050 0.287333
-0.5 0.4993475 -1.008 0 -0.7074093 -0.7068041 255 255 0 255 0.751381 0.287333
-0.5 0.4995923 -0.7220001 0 -0.9999996 0.0008559305 255 255 0 255 0.751381 0.350712
0.5 0.4995923 -0.7220001 0 -0.9999996 0.0008559305 255 255 0 255 0.973050 0.350712
0.5 0.6650923 -1.008 1 0 0 255 255 0 255 0.714559 0.363445
-0.5 0.6482584 -0.6810241 -1 0 0 255 255 0 255 0.602766 0.248052
-0.5 0.6582587 -0.6810241 -1 0 0 255 255 0 255 0.602766 0.244633
-0.5 0.8305923 -1.294 0 0 -1 255 255 0 255 0.751383 0.250455
0.5 0.8305923 -1.294 0 0 -1 255 255 0 255 0.973052 0.250455
-0.5 0.8137584 -1.294 -1 0 0 255 255 0 255 0.714559 0.248052
-0.5 0.6650923 -1.008 -1 0 0 255 255 0 255 0.616805 0.298964
-0.5 0.8305923 -0.9738576 -1 0 0 255 255 0 255 0.605103 0.242297
-0.5 0.8305923 -1.294 -1 0 0 255 255 0 255 0.714559 0.242297
-0.5 0.8137584 -1.008086 0 0.0005789421 0.9999998 255 255 0 255 0.971353 0.075294
-0.5 0.6650923 -1.008 0 0.0005789421 0.9999998 255 255 0 255 0.971353 0.024407
0.5 0.6650923 -1.008 0 0.0005789421 0.9999998 255 255 0 255 0.629632 0.024407
0.5 0.8137584 -1.008086 1 0 0 255 255 0 255 0.616806 0.357689
0.5 0.8305923 -0.9738576 1 0 0 255 255 0 255 0.605103 0.363445
0.5 0.8237588 -0.9670241 0 0.3826835 0.9238795 255 255 0 255 0.636097 0.095038
0.5 0.8137584 -0.9670241 0 -0.7071068 0.7071068 255 255 0 255 0.636053 0.089187
0.5 0.8137584 -1.294 1 0 0 255 255 0 255 0.714559 0.357689
0.5 0.6650923 -1.008 1 0 0 255 255 0 255 0.616806 0.306777
-0.5 0.8137584 -1.008086 0 -1 0 255 255 0 255 0.971309 0.075421
0.5 0.8137584 -1.008086 0 -1 0 255 255 0 255 0.636053 0.075421
0.5 0.6648475 -1.294 0 -0.7074094 -0.7068041 255 255 0 255 0.973050 0.287333
-0.5 0.6648475 -1.294 0 -0.7074094 -0.7068041 255 255 0 255 0.751381 0.287333
-0.5 0.6650923 -1.008 0 -0.9999997 0.0008559307 255 255 0 255 0.751381 0.350712
0.5 0.6650923 -1.008 0 -0.9999997 0.0008559307 255 255 0 255 0.973050 0.350712
0.5 0.8305923 -1.294 1 0 0 255 255 0 255 0.714559 0.363445
-0.5 0.8137584 -0.9670241 -1 0 0 255 255 0 255 0.602766 0.248052
-0.5 0.8237588 -0.9670241 -1 0 0 255 255 0 255 0.602766 0.244633
-0.5 0.9960923 -1.58 0 0 -1 255 255 0 255 0.751383 0.250455
0.5 0.9960923 -1.58 0 0 -1 255 255 0 255 0.973052 0.250455
-0.5 0.9792584 -1.58 -1 0 0 255 255 0 255 0.714559 0.248052
-0.5 0.8305923 -1.294 -1 0 0 255 255 0 255 0.616805 0.298964
-0.5 0.9960923 -1.259858 -1 0 0 255 255 0 255 0.605103 0.242297
-0.5 0.9960923 -1.58 -1 0 0 255 255 0 255 0.714559 0.242297
-0.5 0.9792584 -1.294086 0 0.0005789421 0.9999998 255 255 0 255 0.634756 0.075294
-0.5 0.8305923 -1.294 0 0.0005789421 0.9999998 255 255 0 255 0.634756 0.024407
0.5 0.8305923 -1.294 0 0.0005789421 0.9999998 255 255 0 255 0.976478 0.024407
0.5 0.9792584 -1.294086 1 0 0 255 255 0 255 0.616806 0.357689
0.5 0.9960923 -1.259858 1 0 0 255 255 0 255 0.605103 0.363445
0.5 0.9892587 -1.253024 0 0.3826835 0.9238795 255 255 0 255 0.970012 0.095038
0.5 0.9792584 -1.253024 0 -0.7071068 0.7071068 255 255 0 255 0.970056 0.089187
0.5 0.9792584 -1.58 1 0 0 255 255 0 255 0.714559 0.357689
0.5 0.8305923 -1.294 1 0 0 255 255 0 255 0.616806 0.306777
-0.5 0.9792584 -1.294086 0 -1 0 255 255 0 255 0.634800 0.075421
0.5 0.9792584 -1.294086 0 -1 0 255 255 0 255 0.970056 0.075421
0.5 0.8303475 -1.58 0 -0.7074094 -0.7068041 255 255 0 255 0.973050 0.287333
-0.5 0.8303475 -1.58 0 -0.7074094 -0.7068041 255 255 0 255 0.751381 0.287333
-0.5 0.8305923 -1.294 0 -0.9999997 0.0008559307 255 255 0 255 0.751381 0.350712
0.5 0.8305923 -1.294 0 -0.9999997 0.0008559307 255 255 0 255 0.973050 0.350712
0.5 0.9960923 -1.58 1 0 0 255 255 0 255 0.714559 0.363445
-0.5 0.9792584 -1.253024 -1 0 0 255 255 0 255 0.602766 0.248052
-0.5 0.9892587 -1.253024 -1 0 0 255 255 0 255 0.602766 0.244633
-0.5 1.161592 -1.866 0 0 -1 255 255 0 255 0.751383 0.250455
0.5 1.161592 -1.866 0 0 -1 255 255 0 255 0.973052 0.250455
-0.5 1.144758 -1.866 -1 0 0 255 255 0 255 0.714559 0.248052
-0.5 0.9960923 -1.58 -1 0 0 255 255 0 255 0.616805 0.298964
-0.5 1.161592 -1.545858 -1 0 0 255 255 0 255 0.605103 0.242297
-0.5 1.161592 -1.866 -1 0 0 255 255 0 255 0.714559 0.242297
-0.5 1.144758 -1.580086 0 0.0005789424 0.9999998 255 255 0 255 0.971353 0.075294
-0.5 0.9960923 -1.58 0 0.0005789424 0.9999998 255 255 0 255 0.971353 0.024407
0.5 0.9960923 -1.58 0 0.0005789424 0.9999998 255 255 0 255 0.629632 0.024407
0.5 1.144758 -1.580086 1 0 0 255 255 0 255 0.616806 0.357689
0.5 1.161592 -1.545858 1 0 0 255 255 0 255 0.605103 0.363445
0.5 1.154759 -1.539024 0 0.3826835 0.9238795 255 255 0 255 0.636097 0.095038
0.5 1.144758 -1.539024 0 -0.7071068 0.7071068 255 255 0 255 0.636053 0.089187
0.5 1.144758 -1.866 1 0 0 255 255 0 255 0.714559 0.357689
0.5 0.9960923 -1.58 1 0 0 255 255 0 255 0.616806 0.306777
-0.5 1.144758 -1.580086 0 -1 0 255 255 0 255 0.971309 0.075421
0.5 1.144758 -1.580086 0 -1 0 255 255 0 255 0.636053 0.075421
0.5 0.9958475 -1.866 0 -0.7074094 -0.7068041 255 255 0 255 0.973050 0.287333
-0.5 0.9958475 -1.866 0 -0.7074094 -0.7068041 255 255 0 255 0.751381 0.287333
-0.5 0.9960923 -1.58 0 -0.9999997 0.0008559307 255 255 0 255 0.751381 0.350712
0.5 0.9960923 -1.58 0 -0.9999997 0.0008559307 255 255 0 255 0.973050 0.350712
0.5 1.161592 -1.866 1 0 0 255 255 0 255 0.714559 0.363445
-0.5 1.144758 -1.539024 -1 0 0 255 255 0 255 0.602766 0.248052
-0.5 1.154759 -1.539024 -1 0 0 255 255 0 255 0.602766 0.244633
-0.5 1.327092 -2.152 0 0 -1 255 255 0 255 0.751383 0.250455
0.5 1.327092 -2.152 0 0 -1 255 255 0 255 0.973052 0.250455
-0.5 1.310258 -2.152 -1 0 0 255 255 0 255 0.714559 0.248052
-0.5 1.161592 -1.866 -1 0 0 255 255 0 255 0.616805 0.298964
-0.5 1.327092 -1.831858 -1 0 0 255 255 0 255 0.605103 0.242297
-0.5 1.327092 -2.152 -1 0 0 255 255 0 255 0.714559 0.242297
-0.5 1.310258 -1.866086 0 0.0005789421 0.9999998 255 255 0 255 0.634756 0.075294
-0.5 1.161592 -1.866 0 0.0005789421 0.9999998 255 255 0 255 0.634756 0.024407
0.5 1.161592 -1.866 0 0.0005789421 0.9999998 255 255 0 255 0.976478 0.024407
0.5 1.310258 -1.866086 1 0 0 255 255 0 255 0.616806 0.357689
0.5 1.327092 -1.831858 1 0 0 255 255 0 255 0.605103 0.363445
0.5 1.320259 -1.825024 0 0.3826835 0.9238795 255 255 0 255 0.970012 0.095038
0.5 1.310258 -1.825024 0 -0.7071068 0.7071068 255 255 0 255 0.970056 0.089187
0.5 1.310258 -2.152 1 0 0 255 255 0 255 0.714559 0.357689
0.5 1.161592 -1.866 1 0 0 255 255 0 255 0.616806 0.306777
-0.5 1.310258 -1.866086 0 -1 0 255 255 0 255 0.634800 0.075421
0.5 1.310258 -1.866086 0 -1 0 255 255 0 255 0.970056 0.075421
0.5 1.161347 -2.152 0 -0.7074094 -0.706804 255 255 0 255 0.973050 0.287333
-0.5 1.161347 -2.152 0 -0.7074094 -0.706804 255 255 0 255 0.751381 0.287333
-0.5 1.161592 -1.866 0 -0.9999997 0.0008561391 255 255 0 255 0.751381 0.350712
0.5 1.161592 -1.866 0 -0.9999997 0.0008561391 255 255 0 255 0.973050 0.350712
0.5 1.327092 -2.152 1 0 0 255 255 0 255 0.714559 0.363445
-0.5 1.310258 -1.825024 -1 0 0 255 255 0 255 0.602766 0.248052
-0.5 1.320259 -1.825024 -1 0 0 255 255 0 255 0.602766 0.244633
-0.5 1.492592 -2.438 0 0 -1 255 255 0 255 0.751383 0.250455
0.5 1.492592 -2.438 0 0 -1 255 255 0 255 0.973052 0.250455
-0.5 1.475758 -2.438 -1 0 0 255 255 0 255 0.714559 0.248052
-0.5 1.327092 -2.152 -1 0 0 255 255 0 255 0.616805 0.298964
-0.5 1.492592 -2.117858 -1 0 0 255 255 0 255 0.605103 0.242297
-0.5 1.492592 -2.438 -1 0 0 255 255 0 255 0.714559 0.242297
-0.5 1.475758 -2.152086 0 0.0005789421 0.9999998 255 255 0 255 0.634756 0.075294
-0.5 1.327092 -2.152 0 0.0005789421 0.9999998 255 255 0 255 0.634756 0.024407
0.5 1.327092 -2.152 0 0.0005789421 0.9999998 255 255 0 255 0.976478 0.024407
0.5 1.475758 -2.152086 1 0 0 255 255 0 255 0.616806 0.357689
0.5 1.492592 -2.117858 1 0 0 255 255 0 255 0.605103 0.363445
0.5 1.485759 -2.111024 0 0.3826835 0.9238795 255 255 0 255 0.970012 0.095038
0.5 1.475758 -2.111024 0 -0.7071068 0.7071068 255 255 0 255 0.970056 0.089187
0.5 1.475758 -2.438 1 0 0 255 255 0 255 0.714559 0.357689
0.5 1.327092 -2.152 1 0 0 255 255 0 255 0.616806 0.306777
-0.5 1.475758 -2.152086 0 -1 0 255 255 0 255 0.634800 0.075421
0.5 1.475758 -2.152086 0 -1 0 255 255 0 255 0.970056 0.075421
0.5 1.326847 -2.438 0 -0.7074093 -0.7068042 255 255 0 255 0.973050 0.287333
-0.5 1.326847 -2.438 0 -0.7074093 -0.7068042 255 255 0 255 0.751381 0.287333
-0.5 1.327092 -2.152 0 -0.9999997 0.0008557223 255 255 0 255 0.751381 0.350712
0.5 1.327092 -2.152 0 -0.9999997 0.0008557223 255 255 0 255 0.973050 0.350712
0.5 1.492592 -2.438 1 0 0 255 255 0 255 0.714559 0.363445
-0.5 1.475758 -2.111024 -1 0 0 255 255 0 255 0.602766 0.248052
-0.5 1.485759 -2.111024 -1 0 0 255 255 0 255 0.602766 0.244633
3 0 1 2 
3 0 2 3 
3 4 128 129 
3 4 129 5 
3 6 130 7 
3 6 7 8 
3 6 131 132 
3 6 132 130 
3 9 133 134 
3 9 134 10 
3 135 136 11 
3 135 11 12 
3 3 2 13 
3 3 13 137 
3 138 137 13 
3 138 13 14 
3 139 135 140 
3 139 140 15 
3 138 14 141 
3 138 141 142 
3 4 5 143 
3 4 143 144 
3 145 144 143 
3 145 143 146 
3 139 147 136 
3 139 136 135 
3 148 149 131 
3 148 131 6 
3 16 17 18 
3 16 18 19 
3 20 150 151 
3 20 151 21 
3 22 152 23 
3 22 23 153 
3 22 154 155 
3 22 155 152 
3 24 156 157 
3 24 157 158 
3 159 160 25 
3 159 25 26 
3 19 18 27 
3 19 27 161 
3 162 161 27 
3 162 27 28 
3 163 159 164 
3 163 164 29 
3 162 28 165 
3 162 165 166 
3 20 21 167 
3 20 167 168 
3 169 168 167 
3 169 167 170 
3 163 171 160 
3 163 160 159 
3 172 173 154 
3 172 154 22 
3 30 31 32 
3 30 32 33 
3 34 174 175 
3 34 175 35 
3 36 176 37 
3 36 37 177 
3 36 178 179 
3 36 179 176 
3 38 180 181 
3 38 181 182 
3 183 184 39 
3 183 39 40 
3 33 32 41 
3 33 41 185 
3 186 185 41 
3 186 41 42 
3 187 183 188 
3 187 188 43 
3 186 42 189 
3 186 189 190 
3 34 35 191 
3 34 191 192 
3 193 192 191 
3 193 191 194 
3 187 195 184 
3 187 184 183 
3 196 197 178 
3 196 178 36 
3 44 45 46 
3 44 46 47 
3 48 198 199 
3 48 199 49 
3 50 200 51 
3 50 51 201 
3 50 202 203 
3 50 203 200 
3 52 204 205 
3 52 205 206 
3 207 208 53 
3 207 53 54 
3 47 46 55 
3 47 55 209 
3 210 209 55 
3 210 55 56 
3 211 207 212 
3 211 212 57 
3 210 56 213 
3 210 213 214 
3 48 49 215 
3 48 215 216 
3 217 216 215 
3 217 215 218 
3 211 219 208 
3 211 208 207 
3 220 221 202 
3 220 202 50 
3 58 59 60 
3 58 60 61 
3 62 222 223 
3 62 223 63 
3 64 224 65 
3 64 65 225 
3 64 226 227 
3 64 227 224 
3 66 228 229 
3 66 229 230 
3 231 232 67 
3 231 67 68 
3 61 60 69 
3 61 69 233 
3 234 233 69 
3 234 69 70 
3 235 231 236 
3 235 236 71 
3 234 70 237 
3 234 237 238 
3 62 63 239 
3 62 239 240 
3 241 240 239 
3 241 239 242 
3 235 243 232 
3 235 232 231 
3 244 245 226 
3 244 226 64 
3 72 73 74 
3 72 74 75 
3 76 246 247 
3 76 247 77 
3 78 248 79 
3 78 79 249 
3 78 250 251 
3 78 251 248 
3 80 252 253 
3 80 253 254 
3 255 256 81 
3 255 81 82 
3 75 74 83 
3 75 83 257 
3 258 257 83 
3 258 83 84 
3 259 255 260 
3 259 260 85 
3 258 84 261 
3 258 261 262 
3 76 77 263 
3 76 263 264 
3 265 264 263 
3 265 263 266 
3 259 267 256 
3 259 256 255 
3 268 269 250 
3 268 250 78 
3 86 87 88 
3 86 88 89 
3 90 270 271 
3 90 271 91 
3 92 272 93 
3 92 93 273 
3 92 274 275 
3 92 275 272 
3 94 276 277 
3 94 277 278 
3 279 280 95 
3 279 95 96 
3 89 88 97 
3 89 97 281 
3 282 281 97 
3 282 97 98 
3 283 279 284 
3 283 284 99 
3 282 98 285 
3 282 285 286 
3 90 91 287 
3 90 287 288 
3 289 288 287 
3 289 287 290 
3 283 291 280 
3 283 280 279 
3 292 293 274 
3 292 274 92 
3 100 101 102 
3 100 102 103 
3 104 294 295 
3 104 295 105 
3 106 296 107 
3 106 107 297 
3 106 298 299 
3 106 299 296 
3 108 300 301 
3 108 301 302 
3 303 304 109 
3 303 109 110 
3 103 102 111 
3 103 111 305 
3 306 305 111 
3 306 111 112 
3 307 303 308 
3 307 308 113 
3 306 112 309 
3 306 309 310 
3 104 105 311 
3 104 311 312 
3 313 312 311 
3 313 311 314 
3 307 315 304 
3 307 304 303 
3 316 317 298 
3 316 298 106 
3 114 115 116 
3 114 116 117 
3 118 318 319 
3 118 319 119 
3 120 320 121 
3 120 121 321 
3 120 322 323 
3 120 323 320 
3 122 324 325 
3 122 325 326 
3 327 328 123 
3 327 123 124 
3 117 116 125 
3 117 125 329 
3 330 329 125 
3 330 125 126 
3 331 327 332 
3 331 332 127 
3 330 126 333 
3 330 333 334 
3 118 119 335 
3 118 335 336 
3 337 336 335 
3 337 335 338 
3 331 339 328 
3 331 328 327 
3 340 341 322 
3 340 322 120 
