ply
format ascii 1.0
comment VCGLIB generated
element vertex 33
property float x
property float y
property float z
property float nx
property float ny
property float nz
property uchar red
property uchar green
property uchar blue
property uchar alpha
property float texture_u
property float texture_v
element face 46
property list uchar int vertex_indices
end_header
0.02154748 0.5543527 -0.0267853 0.2920809 0.7053385 -0.6458997 150 150 150 255 0.452452 0.053504
0.09389234 0.4600207 -0.06708107 0.7916275 0.334694 -0.5111809 150 150 150 255 0.478637 0.140162
0.05257862 0.4696878 -0.09020148 -0.03105338 0.2793154 -0.9596971 150 150 150 255 0.450729 0.134180
0.07092836 0.5007008 -0.001976644 0.367939 0.4797818 0.7965114 150 150 150 255 0.541298 0.079055
0.04790228 0.4389888 0.04583221 0.3930893 0.3953539 0.8301663 150 150 150 255 0.584264 0.134589
0.09139849 0.4358988 0.0170571 0.8210406 0.1103204 0.5601088 150 150 150 255 0.539509 0.140162
0.01619451 0.08091183 -0.06300344 0.2129639 -0.09867177 -0.972065 150 150 150 255 0.458234 0.406012
0.06475846 0.08038588 -0.03574739 0.9044228 -0.2311692 -0.358581 150 150 150 255 0.497180 0.398028
0.02039449 0.0002578236 -0.04306895 0.6782976 -0.5283934 -0.5106004 150 150 150 255 0.484399 0.465162
0.0062515 0.01132784 -0.06047833 -0.1565788 -0.3823282 -0.9106636 150 150 150 255 0.465784 0.456538
-0.02796252 0.4285568 -0.04650961 -0.5240353 0.1101446 -0.8445444 150 150 150 255 0.377772 0.148978
-0.02604945 -0.02497413 -0.01202776 -0.3680046 -0.6096129 -0.7021002 150 150 150 255 0.452268 0.511278
-0.03930466 0.05365187 -0.02768483 -0.5778859 -0.06207478 -0.8137534 150 150 150 255 0.411200 0.446376
-0.02155955 0.4724128 0.02290813 -0.7287539 0.3778541 0.5710902 150 150 150 255 0.671588 0.127145
-0.03331368 0.01967487 0.02700574 -0.8910026 -0.1820638 0.4158933 150 150 150 255 0.629061 0.459280
0.01271026 0.4518477 0.04406958 -0.2098556 0.5091855 0.8346801 150 150 150 255 0.640006 0.130199
0.01542442 0.05619485 0.0647448 0.04186276 -0.3835957 0.9225518 150 150 150 255 0.584209 0.434999
0.04079454 0.00451884 -0.001395027 0.6968186 -0.6830463 0.2188413 150 150 150 255 0.517923 0.451489
0.06903236 0.09237082 0.02394726 0.9166674 -0.2287096 0.327739 150 150 150 255 0.540075 0.391317
0.02841966 0.4111677 0.0699582 0.0930988 0.2175854 0.9715911 150 150 150 255 0.611194 0.158226
0.09005143 0.4025057 0.01825356 0.8662269 -0.008943072 0.4995708 150 150 150 255 0.545100 0.167162
0.1043766 0.4403377 -0.01313358 0.9637144 0.2059332 0.1698411 150 150 150 255 0.514104 0.144198
0.1061156 0.3886027 -0.05250955 0.9343094 -0.1000547 -0.342133 150 150 150 255 0.493551 0.182906
0.04703539 0.4129967 -0.08784148 -0.01339108 -0.06120749 -0.9980353 150 150 150 255 0.445747 0.169919
-0.02425463 0.4322757 0.02431204 -0.8503269 0.04180435 0.5245919 150 150 150 255 0.666772 0.153261
0.02154748 0.5543527 -0.0267853 -0.6786395 0.6074253 0.412896 150 150 150 255 0.694636 0.060470
-0.02796252 0.4285568 -0.04650961 -0.9913554 0.1298855 0.01855156 150 150 150 255 0.720270 0.157769
-0.02604945 -0.02497413 -0.01202776 -0.6900854 -0.5367181 0.4855059 150 150 150 255 0.639974 0.500692
-0.03930466 0.05365187 -0.02768483 -0.9955248 -0.06477064 0.06881349 150 150 150 255 0.673505 0.447204
-0.02604945 -0.02497413 -0.01202776 0.3460054 -0.8906025 0.2951397 150 150 150 255 0.517017 0.509815
0.01271026 0.4518477 0.04406958 0.165341 0.5634611 0.8094282 150 150 150 255 0.609530 0.114428
0.02154748 0.5543527 -0.0267853 0.1780442 0.5530128 0.813927 150 150 150 255 0.564021 0.016432
0.07092836 0.5007008 -0.001976644 0.8491098 0.5188346 0.0991118 150 150 150 255 0.505559 0.091406
3 0 1 2 
3 3 4 5 
3 6 7 8 
3 6 8 9 
3 0 2 10 
3 11 12 9 
3 12 6 9 
3 25 26 13 
3 27 14 28 
3 25 13 15 
3 16 17 18 
3 19 16 18 
3 19 18 20 
3 27 16 14 
3 29 17 16 
3 18 17 8 
3 18 8 7 
3 4 30 19 
3 1 21 22 
3 8 11 9 
3 31 30 4 
3 31 4 3 
3 8 17 29 
3 1 0 32 
3 1 32 21 
3 32 5 21 
3 22 7 6 
3 22 6 23 
3 20 18 7 
3 20 7 22 
3 5 20 22 
3 5 22 21 
3 4 19 20 
3 4 20 5 
3 13 24 19 
3 13 19 15 
3 13 26 24 
3 26 28 14 
3 26 14 24 
3 24 14 16 
3 24 16 19 
3 23 6 12 
3 23 12 10 
3 1 22 23 
3 1 23 2 
3 2 23 10 
