ply
format ascii 1.0
comment VCGLIB generated
element vertex 14
property float x
property float y
property float z
property float nx
property float ny
property float nz
property uchar red
property uchar green
property uchar blue
property uchar alpha
property float texture_u
property float texture_v
element face 10
property list uchar int vertex_indices
end_header
-1.254509 -5.960464e-08 0.03292735 -0.8944272 0 0.4472136 150 150 150 255 0.000000 0.000000
-1.254509 3 0.03292735 -0.3333333 0.6666667 0.6666667 150 150 150 255 0.000000 1.000000
-1.254509 3 -0.06707277 -1 0 0 150 150 150 255 -0.033333 1.000000
-1.254509 -5.960464e-08 -0.06707277 -1 0 0 150 150 150 255 -0.033333 0.000000
1.245491 3 -0.06707277 0 0 -1 150 150 150 255 0.989542 0.019113
1.245491 -5.960464e-08 -0.06707277 0 0 -1 150 150 150 255 0.989542 0.019113
1.245491 3 0.03292735 0.8164966 0.4082483 0.4082483 150 150 150 255 0.748101 1.000000
1.245491 -5.960464e-08 0.03292735 0.4472136 0 0.8944272 150 150 150 255 0.748101 0.000000
-1.254509 -5.960464e-08 -0.06707277 0 0 -1 150 150 150 255 0.989542 0.019113
-1.254509 3 -0.06707277 0 0 -1 150 150 150 255 0.989542 0.019113
1.245491 -5.960464e-08 -0.06707277 1 0 0 150 150 150 255 0.781435 0.000000
1.245491 3 -0.06707277 1 0 0 150 150 150 255 0.781435 1.000000
1.245491 3 -0.06707277 0 1 0 150 150 150 255 0.748101 1.029923
-1.254509 3 -0.06707277 0 1 0 150 150 150 255 -0.000000 1.029924
3 0 1 2 
3 0 2 3 
3 8 9 4 
3 8 4 5 
3 10 11 6 
3 10 6 7 
3 7 6 1 
3 7 1 0 
3 12 13 1 
3 12 1 6 
