ply
format ascii 1.0
comment VCGLIB generated
comment TextureFile Long_blue_Jet_Flame.jpg
element vertex 32
property float x
property float y
property float z
property float nx
property float ny
property float nz
property uchar red
property uchar green
property uchar blue
property uchar alpha
property float texture_u
property float texture_v
element face 36
property list uchar int vertex_indices
end_header
0.5 -0.5 -8.742278e-08 0 -2.746467e-07 1.570796 255 255 255 255 1.000000 0.000000
0.1666667 -0.5 -8.742278e-08 0 -5.492934e-07 3.141593 255 255 255 255 0.666667 0.000000
-0.1666667 -0.5 -8.742278e-08 0 -5.492935e-07 3.141593 255 255 255 255 0.333333 0.000000
-0.5 -0.5 -8.742278e-08 0 -2.746467e-07 1.570796 255 255 255 255 0.000000 0.000000
0.5 -0.1666667 -2.914093e-08 0 -5.492935e-07 3.141593 255 255 255 255 1.000000 0.333333
0.1666667 -0.1666667 -2.914093e-08 0 -1.098587e-06 6.283185 255 255 255 255 0.666667 0.333333
-0.1666667 -0.1666667 -2.914093e-08 0 -1.098587e-06 6.283185 255 255 255 255 0.333333 0.333333
-0.5 -0.1666667 -2.914093e-08 0 -5.492935e-07 3.141593 255 255 255 255 0.000000 0.333333
0.5 0.1666667 2.914093e-08 0 -5.492935e-07 3.141593 255 255 255 255 1.000000 0.666667
0.1666667 0.1666667 2.914093e-08 0 -1.098587e-06 6.283185 255 255 255 255 0.666667 0.666667
-0.1666667 0.1666667 2.914093e-08 0 -1.098587e-06 6.283185 255 255 255 255 0.333333 0.666667
-0.5 0.1666667 2.914093e-08 0 -5.492935e-07 3.141593 255 255 255 255 0.000000 0.666667
0.5 0.5 8.742278e-08 0 -2.746467e-07 1.570796 255 255 255 255 1.000000 1.000000
0.1666667 0.5 8.742278e-08 0 -5.492935e-07 3.141593 255 255 255 255 0.666667 1.000000
-0.1666667 0.5 8.742278e-08 0 -5.492934e-07 3.141593 255 255 255 255 0.333333 1.000000
-0.5 0.5 8.742278e-08 0 -2.746467e-07 1.570796 255 255 255 255 0.000000 1.000000
0.5 0.5 4.371139e-08 0 1.373234e-07 -1.570796 255 255 255 255 1.000000 0.000000
0.1666667 0.5 4.371139e-08 0 2.746467e-07 -3.141593 255 255 255 255 0.666667 0.000000
-0.1666667 0.5 4.371139e-08 0 2.746467e-07 -3.141593 255 255 255 255 0.333333 0.000000
-0.5 0.5 4.371139e-08 0 1.373234e-07 -1.570796 255 255 255 255 0.000000 0.000000
0.5 0.1666667 1.457047e-08 0 2.746468e-07 -3.141593 255 255 255 255 1.000000 0.333333
0.1666667 0.1666667 1.457047e-08 0 5.492935e-07 -6.283185 255 255 255 255 0.666667 0.333333
-0.1666667 0.1666667 1.457047e-08 0 5.492935e-07 -6.283185 255 255 255 255 0.333333 0.333333
-0.5 0.1666667 1.457047e-08 0 2.746468e-07 -3.141593 255 255 255 255 0.000000 0.333333
0.5 -0.1666667 -1.457047e-08 0 2.746468e-07 -3.141593 255 255 255 255 1.000000 0.666667
0.1666667 -0.1666667 -1.457047e-08 0 5.492935e-07 -6.283185 255 255 255 255 0.666667 0.666667
-0.1666667 -0.1666667 -1.457047e-08 0 5.492935e-07 -6.283185 255 255 255 255 0.333333 0.666667
-0.5 -0.1666667 -1.457047e-08 0 2.746468e-07 -3.141593 255 255 255 255 0.000000 0.666667
0.5 -0.5 -4.371139e-08 0 1.373234e-07 -1.570796 255 255 255 255 1.000000 1.000000
0.1666667 -0.5 -4.371139e-08 0 2.746467e-07 -3.141593 255 255 255 255 0.666667 1.000000
-0.1666667 -0.5 -4.371139e-08 0 2.746467e-07 -3.141593 255 255 255 255 0.333333 1.000000
-0.5 -0.5 -4.371139e-08 0 1.373234e-07 -1.570796 255 255 255 255 0.000000 1.000000
3 5 1 0 
3 0 4 5 
3 6 2 1 
3 1 5 6 
3 7 3 2 
3 2 6 7 
3 9 5 4 
3 4 8 9 
3 10 6 5 
3 5 9 10 
3 11 7 6 
3 6 10 11 
3 13 9 8 
3 8 12 13 
3 14 10 9 
3 9 13 14 
3 15 11 10 
3 10 14 15 
3 21 17 16 
3 16 20 21 
3 22 18 17 
3 17 21 22 
3 23 19 18 
3 18 22 23 
3 25 21 20 
3 20 24 25 
3 26 22 21 
3 21 25 26 
3 27 23 22 
3 22 26 27 
3 29 25 24 
3 24 28 29 
3 30 26 25 
3 25 29 30 
3 31 27 26 
3 26 30 31 
