ply
format ascii 1.0
comment VCGLIB generated
comment TextureFile Long_blue_Jet_Flame.bmp
element vertex 96
property float x
property float y
property float z
property float nx
property float ny
property float nz
property uchar red
property uchar green
property uchar blue
property uchar alpha
property float texture_u
property float texture_v
element face 108
property list uchar int vertex_indices
end_header
0.4330128 0.2499999 5.960464e-08 -0.4999996 0.8660256 2.185568e-08 255 255 255 255 1.000000 0.000000
0.4330128 0.2499999 0.3333333 -0.4999996 0.8660257 2.185568e-08 255 255 255 255 0.666667 0.000000
0.4330128 0.2499999 0.6666667 -0.4999996 0.8660257 2.185568e-08 255 255 255 255 0.333333 0.000000
0.4330128 0.2499999 0.9999999 -0.4999997 0.8660256 2.185568e-08 255 255 255 255 0.000000 0.000000
0.1443376 0.08333331 8.940697e-08 -0.4999998 0.8660255 2.185569e-08 255 255 255 255 1.000000 0.333333
0.1443376 0.08333331 0.3333333 -0.4999998 0.8660256 2.185568e-08 255 255 255 255 0.666667 0.333333
0.1443376 0.08333331 0.6666667 -0.4999997 0.8660256 2.185568e-08 255 255 255 255 0.333333 0.333333
0.1443376 0.08333331 0.9999999 -0.4999999 0.8660254 2.185569e-08 255 255 255 255 0.000000 0.333333
-0.1443376 -0.08333331 8.940697e-08 -0.4999998 0.8660255 2.185569e-08 255 255 255 255 1.000000 0.666667
-0.1443376 -0.08333331 0.3333333 -0.4999998 0.8660256 2.185568e-08 255 255 255 255 0.666667 0.666667
-0.1443376 -0.08333331 0.6666667 -0.4999998 0.8660256 2.185568e-08 255 255 255 255 0.333333 0.666667
-0.1443376 -0.08333331 0.9999999 -0.4999998 0.8660255 2.185569e-08 255 255 255 255 0.000000 0.666667
-0.4330128 -0.2499999 1.192093e-07 -0.4999997 0.8660256 2.185568e-08 255 255 255 255 1.000000 1.000000
-0.4330128 -0.2499999 0.3333333 -0.4999997 0.8660256 2.185568e-08 255 255 255 255 0.666667 1.000000
-0.4330128 -0.2499999 0.6666667 -0.4999996 0.8660257 2.185568e-08 255 255 255 255 0.333333 1.000000
-0.4330128 -0.2499999 0.9999999 -0.4999996 0.8660256 2.185568e-08 255 255 255 255 0.000000 1.000000
-0.4330128 -0.2499999 1.192093e-07 0.4999998 -0.8660256 -2.185568e-08 255 255 255 255 1.000000 0.000000
-0.4330128 -0.2499999 0.3333333 0.4999999 -0.8660254 -2.185569e-08 255 255 255 255 0.666667 0.000000
-0.4330128 -0.2499999 0.6666667 0.4999998 -0.8660255 -2.185569e-08 255 255 255 255 0.333333 0.000000
-0.4330128 -0.2499999 0.9999999 0.4999998 -0.8660256 -2.185568e-08 255 255 255 255 0.000000 0.000000
-0.1443376 -0.08333332 8.940697e-08 0.4999998 -0.8660255 -2.185569e-08 255 255 255 255 1.000000 0.333333
-0.1443376 -0.08333332 0.3333333 0.4999998 -0.8660256 -2.185568e-08 255 255 255 255 0.666667 0.333333
-0.1443376 -0.08333332 0.6666667 0.4999998 -0.8660256 -2.185568e-08 255 255 255 255 0.333333 0.333333
-0.1443376 -0.08333332 0.9999999 0.4999999 -0.8660254 -2.185569e-08 255 255 255 255 0.000000 0.333333
0.1443376 0.08333332 8.940697e-08 0.4999998 -0.8660255 -2.185569e-08 255 255 255 255 1.000000 0.666667
0.1443376 0.08333332 0.3333333 0.4999999 -0.8660255 -2.185569e-08 255 255 255 255 0.666667 0.666667
0.1443376 0.08333332 0.6666667 0.4999999 -0.8660255 -2.185569e-08 255 255 255 255 0.333333 0.666667
0.1443376 0.08333332 0.9999999 0.4999999 -0.8660254 -2.185569e-08 255 255 255 255 0.000000 0.666667
0.4330128 0.2499999 5.960464e-08 0.4999998 -0.8660256 -2.185568e-08 255 255 255 255 1.000000 1.000000
0.4330128 0.2499999 0.3333333 0.4999999 -0.8660254 -2.185569e-08 255 255 255 255 0.666667 1.000000
0.4330128 0.2499999 0.6666667 0.4999999 -0.8660254 -2.185569e-08 255 255 255 255 0.333333 1.000000
0.4330128 0.2499999 0.9999999 0.4999998 -0.8660256 -2.185568e-08 255 255 255 255 0.000000 1.000000
-0.4330127 0.2500001 2.980232e-08 -0.5000004 -0.8660252 2.185571e-08 255 255 255 255 1.000000 0.000000
-0.4330127 0.2500001 0.3333333 -0.5000004 -0.8660253 2.185571e-08 255 255 255 255 0.666667 0.000000
-0.4330127 0.2500001 0.6666667 -0.5000002 -0.8660253 2.18557e-08 255 255 255 255 0.333333 0.000000
-0.4330127 0.2500001 1 -0.5000004 -0.8660252 2.185571e-08 255 255 255 255 0.000000 0.000000
-0.1443376 0.08333337 0 -0.5000002 -0.8660253 2.18557e-08 255 255 255 255 1.000000 0.333333
-0.1443376 0.08333337 0.3333333 -0.5000002 -0.8660253 2.18557e-08 255 255 255 255 0.666667 0.333333
-0.1443376 0.08333337 0.6666667 -0.5000002 -0.8660253 2.18557e-08 255 255 255 255 0.333333 0.333333
-0.1443376 0.08333337 1 -0.5000004 -0.8660253 2.185571e-08 255 255 255 255 0.000000 0.333333
0.1443376 -0.08333337 0 -0.5000002 -0.8660253 2.18557e-08 255 255 255 255 1.000000 0.666667
0.1443376 -0.08333337 0.3333333 -0.5000002 -0.8660253 2.18557e-08 255 255 255 255 0.666667 0.666667
0.1443376 -0.08333337 0.6666667 -0.5000002 -0.8660253 2.18557e-08 255 255 255 255 0.333333 0.666667
0.1443376 -0.08333337 1 -0.5000002 -0.8660253 2.18557e-08 255 255 255 255 0.000000 0.666667
0.4330127 -0.2500001 0 -0.5000004 -0.8660252 2.185571e-08 255 255 255 255 1.000000 1.000000
0.4330127 -0.2500001 0.3333333 -0.5000004 -0.8660253 2.185571e-08 255 255 255 255 0.666667 1.000000
0.4330127 -0.2500001 0.6666667 -0.5000004 -0.8660253 2.185571e-08 255 255 255 255 0.333333 1.000000
0.4330127 -0.2500001 1 -0.5000004 -0.8660252 2.185571e-08 255 255 255 255 0.000000 1.000000
0.4330127 -0.2500001 0 0.5 0.8660254 -2.185569e-08 255 255 255 255 1.000000 0.000000
0.4330127 -0.2500001 0.3333333 0.5000002 0.8660253 -2.18557e-08 255 255 255 255 0.666667 0.000000
0.4330127 -0.2500001 0.6666667 0.5000002 0.8660253 -2.18557e-08 255 255 255 255 0.333333 0.000000
0.4330127 -0.2500001 1 0.5 0.8660254 -2.185569e-08 255 255 255 255 0.000000 0.000000
0.1443376 -0.08333337 0 0.5000002 0.8660253 -2.18557e-08 255 255 255 255 1.000000 0.333333
0.1443376 -0.08333337 0.3333333 0.5000001 0.8660254 -2.18557e-08 255 255 255 255 0.666667 0.333333
0.1443376 -0.08333337 0.6666667 0.5000001 0.8660254 -2.18557e-08 255 255 255 255 0.333333 0.333333
0.1443376 -0.08333337 1 0.5000002 0.8660253 -2.18557e-08 255 255 255 255 0.000000 0.333333
-0.1443376 0.08333337 0 0.5000002 0.8660253 -2.18557e-08 255 255 255 255 1.000000 0.666667
-0.1443376 0.08333337 0.3333333 0.5000001 0.8660254 -2.18557e-08 255 255 255 255 0.666667 0.666667
-0.1443376 0.08333337 0.6666667 0.5000001 0.8660254 -2.18557e-08 255 255 255 255 0.333333 0.666667
-0.1443376 0.08333337 1 0.5000002 0.8660253 -2.18557e-08 255 255 255 255 0.000000 0.666667
-0.4330127 0.2500001 2.980232e-08 0.5 0.8660254 -2.185569e-08 255 255 255 255 1.000000 1.000000
-0.4330127 0.2500001 0.3333333 0.5000002 0.8660253 -2.18557e-08 255 255 255 255 0.666667 1.000000
-0.4330127 0.2500001 0.6666667 0.5000002 0.8660253 -2.18557e-08 255 255 255 255 0.333333 1.000000
-0.4330127 0.2500001 1 0.5 0.8660254 -2.185569e-08 255 255 255 255 0.000000 1.000000
-1.092785e-07 -0.5 0 1 -1.748456e-07 -4.371139e-08 255 255 255 255 1.000000 0.000000
-9.470801e-08 -0.5 0.3333333 1 -1.748455e-07 -4.371139e-08 255 255 255 255 0.666667 0.000000
-8.013755e-08 -0.5 0.6666667 1 -1.748455e-07 -4.371139e-08 255 255 255 255 0.333333 0.000000
-6.556708e-08 -0.5 1 1 -1.748456e-07 -4.371139e-08 255 255 255 255 0.000000 0.000000
-5.099663e-08 -0.1666667 0 1 -1.748455e-07 -4.371139e-08 255 255 255 255 1.000000 0.333333
-3.642616e-08 -0.1666667 0.3333333 1 -1.748455e-07 -4.371139e-08 255 255 255 255 0.666667 0.333333
-2.18557e-08 -0.1666667 0.6666667 1 -1.748455e-07 -4.371139e-08 255 255 255 255 0.333333 0.333333
-7.285236e-09 -0.1666667 1 1 -1.748455e-07 -4.371139e-08 255 255 255 255 0.000000 0.333333
7.285236e-09 0.1666667 0 1 -1.748455e-07 -4.371139e-08 255 255 255 255 1.000000 0.666667
2.18557e-08 0.1666667 0.3333333 1 -1.748455e-07 -4.371139e-08 255 255 255 255 0.666667 0.666667
3.642616e-08 0.1666667 0.6666667 1 -1.748455e-07 -4.371139e-08 255 255 255 255 0.333333 0.666667
5.099663e-08 0.1666667 1 1 -1.748455e-07 -4.371139e-08 255 255 255 255 0.000000 0.666667
6.556708e-08 0.5 0 1 -1.748456e-07 -4.371139e-08 255 255 255 255 1.000000 1.000000
8.013755e-08 0.5 0.3333333 1 -1.748455e-07 -4.371139e-08 255 255 255 255 0.666667 1.000000
9.470801e-08 0.5 0.6666667 1 -1.748455e-07 -4.371139e-08 255 255 255 255 0.333333 1.000000
1.092785e-07 0.5 1 1 -1.748456e-07 -4.371139e-08 255 255 255 255 0.000000 1.000000
2.185569e-08 0.5 0 -1 8.74228e-08 4.371139e-08 255 255 255 255 1.000000 0.000000
3.642615e-08 0.5 0.3333333 -1 8.742275e-08 4.371139e-08 255 255 255 255 0.666667 0.000000
5.099662e-08 0.5 0.6666667 -1 8.742275e-08 4.371139e-08 255 255 255 255 0.333333 0.000000
6.556708e-08 0.5 1 -1 8.74228e-08 4.371139e-08 255 255 255 255 0.000000 0.000000
-7.285224e-09 0.1666667 0 -1 8.742278e-08 4.371139e-08 255 255 255 255 1.000000 0.333333
7.285237e-09 0.1666667 0.3333333 -1 8.742277e-08 4.371139e-08 255 255 255 255 0.666667 0.333333
2.18557e-08 0.1666667 0.6666667 -1 8.742277e-08 4.371139e-08 255 255 255 255 0.333333 0.333333
3.642617e-08 0.1666667 1 -1 8.742278e-08 4.371139e-08 255 255 255 255 0.000000 0.333333
-3.642617e-08 -0.1666667 0 -1 8.742278e-08 4.371139e-08 255 255 255 255 1.000000 0.666667
-2.18557e-08 -0.1666667 0.3333333 -1 8.742277e-08 4.371139e-08 255 255 255 255 0.666667 0.666667
-7.285237e-09 -0.1666667 0.6666667 -1 8.742277e-08 4.371139e-08 255 255 255 255 0.333333 0.666667
7.285224e-09 -0.1666667 1 -1 8.742278e-08 4.371139e-08 255 255 255 255 0.000000 0.666667
-6.556708e-08 -0.5 0 -1 8.74228e-08 4.371139e-08 255 255 255 255 1.000000 1.000000
-5.099662e-08 -0.5 0.3333333 -1 8.742275e-08 4.371139e-08 255 255 255 255 0.666667 1.000000
-3.642615e-08 -0.5 0.6666667 -1 8.742275e-08 4.371139e-08 255 255 255 255 0.333333 1.000000
-2.185569e-08 -0.5 1 -1 8.74228e-08 4.371139e-08 255 255 255 255 0.000000 1.000000
3 5 1 0 
3 0 4 5 
3 6 2 1 
3 1 5 6 
3 7 3 2 
3 2 6 7 
3 9 5 4 
3 4 8 9 
3 10 6 5 
3 5 9 10 
3 11 7 6 
3 6 10 11 
3 13 9 8 
3 8 12 13 
3 14 10 9 
3 9 13 14 
3 15 11 10 
3 10 14 15 
3 21 17 16 
3 16 20 21 
3 22 18 17 
3 17 21 22 
3 23 19 18 
3 18 22 23 
3 25 21 20 
3 20 24 25 
3 26 22 21 
3 21 25 26 
3 27 23 22 
3 22 26 27 
3 29 25 24 
3 24 28 29 
3 30 26 25 
3 25 29 30 
3 31 27 26 
3 26 30 31 
3 37 33 32 
3 32 36 37 
3 38 34 33 
3 33 37 38 
3 39 35 34 
3 34 38 39 
3 41 37 36 
3 36 40 41 
3 42 38 37 
3 37 41 42 
3 43 39 38 
3 38 42 43 
3 45 41 40 
3 40 44 45 
3 46 42 41 
3 41 45 46 
3 47 43 42 
3 42 46 47 
3 53 49 48 
3 48 52 53 
3 54 50 49 
3 49 53 54 
3 55 51 50 
3 50 54 55 
3 57 53 52 
3 52 56 57 
3 58 54 53 
3 53 57 58 
3 59 55 54 
3 54 58 59 
3 61 57 56 
3 56 60 61 
3 62 58 57 
3 57 61 62 
3 63 59 58 
3 58 62 63 
3 69 65 64 
3 64 68 69 
3 70 66 65 
3 65 69 70 
3 71 67 66 
3 66 70 71 
3 73 69 68 
3 68 72 73 
3 74 70 69 
3 69 73 74 
3 75 71 70 
3 70 74 75 
3 77 73 72 
3 72 76 77 
3 78 74 73 
3 73 77 78 
3 79 75 74 
3 74 78 79 
3 85 81 80 
3 80 84 85 
3 86 82 81 
3 81 85 86 
3 87 83 82 
3 82 86 87 
3 89 85 84 
3 84 88 89 
3 90 86 85 
3 85 89 90 
3 91 87 86 
3 86 90 91 
3 93 89 88 
3 88 92 93 
3 94 90 89 
3 89 93 94 
3 95 91 90 
3 90 94 95 
