ply
format ascii 1.0
comment VCGLIB generated
comment TextureFile SpaceInteriors_Texture.png
element vertex 4
property float x
property float y
property float z
property float nx
property float ny
property float nz
property uchar red
property uchar green
property uchar blue
property uchar alpha
property float texture_u
property float texture_v
element face 2
property list uchar int vertex_indices
end_header
-5 0 0 0 2 0 192 192 192 255 0.587741 0.510713
0 0 0 0 1 0 192 192 192 255 0.749611 0.510713
-5 0 5 0 1 0 192 192 192 255 0.587741 0.672706
0 0 5 0 2 0 192 192 192 255 0.749611 0.672706
3 3 1 0 
3 3 0 2 
