ply
format ascii 1.0
comment VCGLIB generated
comment TextureFile SpaceInteriors_Texture.png
element vertex 66
property float x
property float y
property float z
property float nx
property float ny
property float nz
property uchar red
property uchar green
property uchar blue
property uchar alpha
property float texture_u
property float texture_v
element face 38
property list uchar int vertex_indices
end_header
0.347589 0.243515 0.018883 0.420291 -0.907389 0 192 192 192 255 0.1736 0.088437
0.263482 0.407659 0.018883 -0.840582 1.81478 0 192 192 192 255 0.1736 0.088437
9.73652 4.59234 0.018883 0.840581 -1.81478 0 192 192 192 255 0.1736 0.088437
9.65241 4.75648 0.018883 -0.420291 0.90739 0 192 192 192 255 0.1736 0.088437
9.73652 4.59234 0.21315 0.420291 -0.907389 2 192 192 192 255 0.205638 0.088437
9.65241 4.75648 0.21315 -0.840582 1.81478 1 192 192 192 255 0.205638 0.088437
0.347589 0.243515 0.21315 0.840581 -1.81478 1 192 192 192 255 0.205638 0.088437
0.263482 0.407659 0.21315 -0.420291 0.90739 2 192 192 192 255 0.205638 0.088437
9.65241 0.243515 0.213158 -0.420291 -0.90739 2 192 192 192 255 0.205638 0.088437
9.73652 0.407659 0.213158 0.840582 1.81478 1 192 192 192 255 0.205638 0.088437
0.263482 4.59234 0.213158 -0.840581 -1.81478 1 192 192 192 255 0.205638 0.088437
0.34759 4.75648 0.213158 0.420291 0.907389 2 192 192 192 255 0.205638 0.088437
0.263482 4.59234 0.01889 -0.420291 -0.90739 0 192 192 192 255 0.1736 0.088437
0.34759 4.75648 0.01889 0.840582 1.81478 0 192 192 192 255 0.1736 0.088437
9.65241 0.243515 0.01889 -0.840581 -1.81478 0 192 192 192 255 0.1736 0.088437
9.73652 0.407659 0.01889 0.420291 0.907389 0 192 192 192 255 0.1736 0.088437
10 -0 0 0 0 2 192 192 192 255 0.391929 0.062464
0 -0 0 0 0 1 192 192 192 255 0.391929 0.062464
10 5 0 0 0 1 192 192 192 255 0.391929 0.062464
0 5 0 0 0 2 192 192 192 255 0.391929 0.062464
0 0 0.321823 -1 -1 3 192 192 192 255 0.140619 0.088437
10 0 0.321823 2 -2 3 192 192 192 255 0.140619 0.088437
0 5 0.321823 -2 2 3 192 192 192 255 0.240504 0.088437
10 5 0.321823 1 1 3 192 192 192 255 0.240504 0.088437
0 5 0 -1 1 0 192 192 192 255 0.240504 0.088437
10 5 0 2 2 0 192 192 192 255 0.240504 0.088437
0 0 0 -2 -2 0 192 192 192 255 0.140619 0.088437
10 0 0 1 -1 0 192 192 192 255 0.140619 0.088437
0.305537 0.325587 0.321823 1 2 3 192 192 192 255 0.205638 0.088437
9.69446 0.325587 0.321823 -2 1 3 192 192 192 255 0.205638 0.088437
9.69446 4.67441 0.321823 -1 -2 3 192 192 192 255 0.205638 0.088437
0.305537 4.67441 0.321823 2 -1 3 192 192 192 255 0.205638 0.088437
0.305537 4.67441 0 1 -2 0 192 192 192 255 0.205638 0.088437
9.69446 4.67441 0 -2 -1 0 192 192 192 255 0.17592 0.088437
9.69446 0.325587 0 -1 2 0 192 192 192 255 0.237214 0.088437
0.305537 0.325587 0 2 1 0 192 192 192 255 0.237214 0.088437
0.263482 0.407659 0.21315 -0.420291 0.90739 2 192 192 192 255 0.1736 0.088437
9.65241 4.75648 0.21315 -0.840582 1.81478 1 192 192 192 255 0.1736 0.088437
0.347589 0.243515 0.21315 0.840581 -1.81478 1 192 192 192 255 0.1736 0.088437
9.73652 4.59234 0.21315 0.420291 -0.907389 2 192 192 192 255 0.1736 0.088437
9.73652 0.407659 0.213158 0.840582 1.81478 1 192 192 192 255 0.1736 0.088437
0.34759 4.75648 0.213158 0.420291 0.907389 2 192 192 192 255 0.1736 0.088437
9.65241 0.243515 0.213158 -0.420291 -0.90739 2 192 192 192 255 0.1736 0.088437
0.263482 4.59234 0.213158 -0.840581 -1.81478 1 192 192 192 255 0.1736 0.088437
10 0 0.321823 2 -2 3 192 192 192 255 0.1736 0.088437
10 0 0 1 -1 0 192 192 192 255 0.1736 0.088437
10 5 0 2 2 0 192 192 192 255 0.1736 0.088437
10 5 0.321823 1 1 3 192 192 192 255 0.1736 0.088437
0 0 0 -2 -2 0 192 192 192 255 0.1736 0.088437
0 0 0.321823 -1 -1 3 192 192 192 255 0.1736 0.088437
0 5 0.321823 -2 2 3 192 192 192 255 0.1736 0.088437
0 5 0 -1 1 0 192 192 192 255 0.1736 0.088437
0 0 0.321823 -1 -1 3 192 192 192 255 0.205638 0.088437
10 0 0.321823 2 -2 3 192 192 192 255 0.205638 0.088437
10 5 0.321823 1 1 3 192 192 192 255 0.205638 0.088437
0 5 0.321823 -2 2 3 192 192 192 255 0.205638 0.088437
0.305537 0.325587 0.321823 1 2 3 192 192 192 255 0.237214 0.088437
9.69446 0.325587 0.321823 -2 1 3 192 192 192 255 0.237214 0.088437
9.69446 0.325587 0.321823 -2 1 3 192 192 192 255 0.17592 0.088437
9.69446 4.67441 0.321823 -1 -2 3 192 192 192 255 0.17592 0.088437
9.69446 0.325587 0 -1 2 0 192 192 192 255 0.17592 0.088437
9.69446 4.67441 0 -2 -1 0 192 192 192 255 0.205638 0.088437
0.305537 4.67441 0.321823 2 -1 3 192 192 192 255 0.17592 0.088437
0.305537 0.325587 0.321823 1 2 3 192 192 192 255 0.17592 0.088437
0.305537 0.325587 0 2 1 0 192 192 192 255 0.17592 0.088437
0.305537 4.67441 0 1 -2 0 192 192 192 255 0.17592 0.088437
3 4 5 7 
3 4 7 6 
3 1 36 37 
3 1 37 3 
3 38 0 2 
3 38 2 39 
3 8 9 11 
3 8 11 10 
3 40 15 13 
3 40 13 41 
3 14 42 43 
3 14 43 12 
3 19 17 16 
3 19 16 18 
3 22 23 25 
3 22 25 24 
3 26 27 21 
3 26 21 20 
3 44 45 46 
3 44 46 47 
3 48 49 50 
3 48 50 51 
3 52 53 29 
3 52 29 28 
3 53 54 30 
3 53 30 29 
3 54 55 31 
3 54 31 30 
3 55 52 28 
3 55 28 31 
3 56 57 34 
3 56 34 35 
3 58 59 33 
3 58 33 60 
3 30 31 32 
3 30 32 61 
3 62 63 64 
3 62 64 65 
